<svg width="24" height="24" viewBox="0 0 24 24" fill="none" xmlns="http://www.w3.org/2000/svg">
<path d="M14 13.9999V5.99985M14 13.9999L20.102 17.4869C20.1932 17.539 20.2965 17.5664 20.4015 17.5661C20.5066 17.5658 20.6097 17.538 20.7007 17.4853C20.7916 17.4327 20.8671 17.3571 20.9196 17.2661C20.9721 17.1751 20.9999 17.0719 21 16.9669V3.03285C21 2.92771 20.9724 2.8244 20.92 2.73327C20.8675 2.64214 20.792 2.5664 20.7011 2.51364C20.6102 2.46087 20.5069 2.43293 20.4018 2.43262C20.2966 2.43231 20.1933 2.45963 20.102 2.51185L14 5.99985M14 13.9999H7M14 5.99985H7C5.93913 5.99985 4.92172 6.42128 4.17157 7.17143C3.42143 7.92157 3 8.93899 3 9.99985C3 11.0607 3.42143 12.0781 4.17157 12.8283C4.92172 13.5784 5.93913 13.9999 7 13.9999M7 13.9999L7.757 19.2999C7.83599 19.8155 8.11528 20.2791 8.53419 20.59C8.95309 20.9009 9.47776 21.0339 9.99419 20.9602C10.5106 20.8864 10.977 20.6118 11.2922 20.196C11.6073 19.7803 11.7456 19.257 11.677 18.7399L11 13.9999H7Z" stroke="white" stroke-width="1.5"/>
</svg>
