<svg width="24" height="24" viewBox="0 0 24 24" fill="none" xmlns="http://www.w3.org/2000/svg">
<path d="M21.707 11.2928L13.707 3.29279C13.5671 3.15298 13.389 3.05777 13.195 3.0192C13.0011 2.98064 12.8 3.00044 12.6173 3.07611C12.4346 3.15178 12.2785 3.27992 12.1686 3.44433C12.0587 3.60874 12 3.80204 12 3.99979V7.54479C9.26829 7.79758 6.72923 9.06065 4.87969 11.0868C3.03015 13.113 2.00327 15.7564 2 18.4998V19.9998C2.00016 20.2074 2.06491 20.4098 2.18527 20.5789C2.30564 20.748 2.47565 20.8755 2.67173 20.9436C2.8678 21.0118 3.08022 21.0172 3.27953 20.9592C3.47883 20.9011 3.65514 20.7825 3.784 20.6198C4.76385 19.4549 5.96594 18.4969 7.3201 17.8017C8.67426 17.1065 10.1533 16.6881 11.671 16.5708C11.721 16.5648 11.846 16.5548 12 16.5448V19.9998C12 20.1975 12.0587 20.3908 12.1686 20.5552C12.2785 20.7197 12.4346 20.8478 12.6173 20.9235C12.8 20.9991 13.0011 21.0189 13.195 20.9804C13.389 20.9418 13.5671 20.8466 13.707 20.7068L21.707 12.7068C21.8945 12.5193 21.9998 12.265 21.9998 11.9998C21.9998 11.7346 21.8945 11.4803 21.707 11.2928ZM14 17.5858V15.4998C14 15.2346 13.8946 14.9802 13.7071 14.7927C13.5196 14.6051 13.2652 14.4998 13 14.4998C12.745 14.4998 11.704 14.5498 11.438 14.5848C8.74279 14.8328 6.17727 15.8568 4.052 17.5328C4.29324 15.3272 5.33954 13.2881 6.99055 11.8059C8.64157 10.3238 10.7813 9.50263 13 9.49979C13.2652 9.49979 13.5196 9.39443 13.7071 9.20689C13.8946 9.01936 14 8.765 14 8.49979V6.41379L19.586 11.9998L14 17.5858Z" fill="white"/>
</svg>
