<svg width="24" height="24" viewBox="0 0 24 24" fill="none" xmlns="http://www.w3.org/2000/svg">
<g clip-path="url(#clip0_4328_3499)">
<path d="M13.25 2.75H15.75C16.1478 2.75 16.5294 2.90804 16.8107 3.18934C17.092 3.47064 17.25 3.85218 17.25 4.25M13.05 19.14L9.33 19.67L9.86 16L19.41 6.46C19.8365 6.06256 20.4007 5.84619 20.9836 5.85647C21.5665 5.86676 22.1226 6.1029 22.5349 6.51513C22.9471 6.92737 23.1832 7.48353 23.1935 8.06643C23.2038 8.64934 22.9874 9.21348 22.59 9.64L13.05 19.14ZM5.5 0.75H12.5C12.5 0.75 13.25 0.75 13.25 1.5V4C13.25 4 13.25 4.75 12.5 4.75H5.5C5.5 4.75 4.75 4.75 4.75 4V1.5C4.75 1.5 4.75 0.75 5.5 0.75Z" stroke="white" stroke-width="1.5" stroke-linecap="round" stroke-linejoin="round"/>
<path d="M17.25 18.75V21.75C17.25 22.1478 17.092 22.5294 16.8107 22.8107C16.5294 23.092 16.1478 23.25 15.75 23.25H2.25C1.85218 23.25 1.47064 23.092 1.18934 22.8107C0.908035 22.5294 0.75 22.1478 0.75 21.75V4.25C0.75 3.85218 0.908035 3.47064 1.18934 3.18934C1.47064 2.90804 1.85218 2.75 2.25 2.75H4.75M5.25 8.75H12.25M5.25 13.25H7.75" stroke="white" stroke-width="1.5" stroke-linecap="round" stroke-linejoin="round"/>
</g>
<defs>
<clipPath id="clip0_4328_3499">
<rect width="24" height="24" fill="white"/>
</clipPath>
</defs>
</svg>
