<svg width="250" height="29" viewBox="0 0 250 29" fill="none" xmlns="http://www.w3.org/2000/svg">
<g clip-path="url(#clip0_4212_711)">
<path fill-rule="evenodd" clip-rule="evenodd" d="M221.244 26.5383H216.491C210.739 15.8509 207.629 9.90683 207.042 8.76605L197.418 26.5383H192.899L207.101 0.0600414L221.244 26.5383ZM179.754 22.5155C181.162 22.5155 182.453 22.3354 183.568 21.8551C184.742 21.3747 185.739 20.7143 186.62 19.8737C187.5 19.0331 188.146 18.0725 188.615 16.9317C189.085 15.7909 189.319 14.5901 189.319 13.3292C189.319 12.0683 189.085 10.8075 188.556 9.66667C188.087 8.52588 187.383 7.50518 186.502 6.6646C185.622 5.82402 184.624 5.16356 183.451 4.68323C182.277 4.2029 181.045 4.02277 179.754 4.08282V22.5155ZM180.282 0.0600414C182.042 0.0600414 183.744 0.42029 185.329 1.08075C186.854 1.7412 188.263 2.70186 189.437 3.90269C190.61 5.10352 191.549 6.54451 192.254 8.10559C192.958 9.72671 193.31 11.4079 193.31 13.2692C193.31 15.1304 192.958 16.8716 192.254 18.4327C191.549 20.0538 190.61 21.4348 189.437 22.6356C188.263 23.8364 186.913 24.7971 185.329 25.4576C183.744 26.118 182.101 26.4783 180.282 26.4783H175.822V0.0600414H180.282ZM157.923 26.5383C156.631 26.4182 155.458 26.118 154.401 25.5176C153.345 24.9172 152.465 24.1967 151.761 23.3561C151.056 22.5155 150.528 21.4948 150.117 20.354C149.707 19.2133 149.531 18.0725 149.531 16.8116V0.0600414H153.521V16.8116C153.521 17.5921 153.638 18.3727 153.932 19.0331C154.225 19.7536 154.577 20.354 155.106 20.8344C155.575 21.3147 156.221 21.735 156.866 22.0352C157.57 22.3354 158.275 22.5155 159.038 22.5155C159.8 22.5155 160.505 22.3354 161.209 22.0352C161.913 21.735 162.5 21.3147 162.969 20.8344C163.439 20.354 163.85 19.7536 164.143 19.0331C164.437 18.3126 164.613 17.5921 164.613 16.8116V0.0600414H168.662V16.8116C168.662 18.0124 168.427 19.2133 168.016 20.4141C167.606 21.5549 166.96 22.6356 166.197 23.5362C165.434 24.4369 164.495 25.2174 163.439 25.7578C162.383 26.2981 161.209 26.5983 159.977 26.5983H157.923V26.5383ZM135.915 0.0600414C137.207 0.0600414 138.322 0.300207 139.378 0.720497C140.434 1.14079 141.315 1.7412 142.077 2.52174C142.84 3.24224 143.427 4.2029 143.779 5.28364C144.19 6.36439 144.366 7.56522 144.366 8.88613V9.90683H140.493C140.493 9.24638 140.434 8.52588 140.258 7.80538C140.082 7.08489 139.789 6.48447 139.437 5.9441C139.085 5.40373 138.615 5.04348 138.028 4.68323C137.441 4.38302 136.737 4.2029 135.915 4.2029C135.329 4.2029 134.742 4.32298 134.155 4.56315C133.627 4.80331 133.099 5.16356 132.688 5.58385C132.277 6.00414 131.925 6.48447 131.69 7.08489C131.455 7.6853 131.338 8.28572 131.338 8.88613V18.0124C131.338 18.6128 131.455 19.2133 131.69 19.8137C131.925 20.4141 132.277 20.8944 132.688 21.3147C133.099 21.735 133.627 22.0352 134.155 22.3354C134.742 22.5756 135.27 22.6957 135.915 22.6957C136.796 22.6957 137.559 22.5155 138.146 22.2153C138.732 21.8551 139.202 21.4348 139.554 20.8944C139.906 20.354 140.141 19.6936 140.317 18.9731C140.434 18.2526 140.552 17.5321 140.552 16.7516H144.425C144.425 18.1325 144.249 19.3934 143.897 20.5942C143.545 21.795 143.075 22.8758 142.371 23.7764C141.725 24.677 140.845 25.3975 139.73 25.9379C138.674 26.4783 137.383 26.7184 135.915 26.7184C134.742 26.7184 133.627 26.4783 132.57 26.058C131.573 25.5776 130.634 24.9772 129.871 24.2567C129.108 23.4762 128.521 22.5756 128.052 21.5549C127.641 20.4741 127.406 19.3333 127.406 18.1325V8.82609C127.406 7.62526 127.641 6.48447 128.052 5.40373C128.462 4.32298 129.108 3.42236 129.871 2.64182C130.634 1.86128 131.573 1.26087 132.57 0.780538C133.627 0.300207 134.742 0.0600414 135.915 0.0600414ZM126.232 26.5383H121.479C115.728 15.8509 112.617 9.90683 112.031 8.76605L102.406 26.5383H97.8873L112.089 0.0600414L126.232 26.5383ZM80.4577 13.3292H87.3826C88.0282 13.3292 88.6737 13.2091 89.2019 12.9689C89.73 12.7288 90.2582 12.3685 90.669 11.9482C91.0798 11.528 91.3732 10.9876 91.608 10.4472C91.8427 9.84679 91.9014 9.30642 91.9014 8.706C91.9014 7.26501 91.4906 6.12422 90.6103 5.28364C89.73 4.44306 88.6737 4.02277 87.3826 4.02277H80.4577V13.3292ZM76.4671 26.5383V0H87.3239C88.5563 0.0600414 89.6714 0.300207 90.669 0.780538C91.6667 1.26087 92.6056 1.86128 93.3685 2.64182C94.1315 3.42236 94.7183 4.32298 95.1878 5.34369C95.5986 6.36439 95.8333 7.50518 95.8333 8.706C95.8333 10.087 95.5399 11.4679 94.8944 12.7288C94.3075 13.9896 93.3685 15.0104 92.1948 15.7309C92.7817 17.412 93.3685 19.2733 93.9554 21.1346C94.5423 23.0559 95.0704 24.8571 95.5986 26.5383H91.7254L88.615 17.352C88.4977 17.352 88.3803 17.352 88.1455 17.412C87.9108 17.472 87.7934 17.472 87.6761 17.472H80.4577V26.5383H76.4671ZM55.5164 13.3292H62.4413C63.0869 13.3292 63.7324 13.2091 64.2606 12.9689C64.7887 12.7288 65.3169 12.3685 65.7277 11.9482C66.1385 11.528 66.4319 10.9876 66.6667 10.4472C66.9014 9.84679 66.9601 9.30642 66.9601 8.706C66.9601 7.26501 66.5493 6.12422 65.669 5.28364C64.7887 4.44306 63.7324 4.02277 62.4413 4.02277H55.5164V13.3292ZM51.5258 26.5383V0H62.3826C63.615 0.0600414 64.73 0.300207 65.7277 0.780538C66.7253 1.26087 67.6643 1.86128 68.4272 2.64182C69.1901 3.42236 69.777 4.32298 70.2465 5.34369C70.6573 6.36439 70.892 7.50518 70.892 8.706C70.892 10.087 70.5986 11.4679 69.953 12.7288C69.3662 13.9896 68.4272 15.0104 67.2535 15.7309C67.8404 17.412 68.4272 19.2733 69.0141 21.1346C69.6009 23.0559 70.1291 24.8571 70.6573 26.5383H66.784L63.615 17.352C63.4977 17.352 63.3803 17.352 63.1455 17.412C62.9108 17.472 62.7934 17.472 62.6761 17.472H55.5164V26.5383H51.5258ZM49.061 26.5383H44.3075C38.5563 15.8509 35.446 9.90683 34.8592 8.76605L32.5704 12.9689C31.7488 11.9482 30.7512 10.8075 29.6362 9.78675L34.8592 0L49.061 26.5383ZM0 14.3499V10.3872H10.2113C10.5634 10.3872 10.8568 10.3271 11.2089 10.147C11.561 9.96687 11.8545 9.78675 12.1479 9.54658C12.4413 9.30642 12.6761 8.94617 12.8521 8.58592C13.0282 8.16563 13.1455 7.74534 13.1455 7.32505C13.1455 6.36439 12.8521 5.64389 12.3239 5.10352C11.7958 4.62319 11.0915 4.26294 10.2113 4.14286H0V0.0600414H10.8568C11.7958 0.180124 12.6761 0.42029 13.439 0.84058C14.2019 1.26087 14.8474 1.80124 15.4343 2.4617C16.0211 3.12215 16.4319 3.84265 16.7254 4.68323C17.0188 5.52381 17.1362 6.36439 17.1362 7.32505C17.1362 8.10559 17.0188 8.88613 16.784 9.66667C16.5493 10.4472 16.1385 11.0476 15.6103 11.648C16.9014 12.5487 17.8991 13.5694 18.6033 14.6501C19.3075 15.7909 19.6596 17.1118 19.6596 18.6128C19.6596 20.1139 19.3075 21.5549 18.5446 22.8157C17.7817 24.0766 16.784 25.0973 15.5516 25.7578C15.1408 25.9979 14.6127 26.1781 13.9671 26.3582C13.3216 26.5383 12.6761 26.5983 11.9131 26.5983H0V22.5756H3.99061V22.6356H11.9718C12.4413 22.6356 12.9108 22.5155 13.3803 22.2754C13.8498 22.0352 14.2606 21.735 14.6127 21.3747C14.9648 21.0145 15.1995 20.5942 15.4343 20.1139C15.669 19.6335 15.7277 19.0932 15.7277 18.5528C15.7277 18.0124 15.6103 17.4721 15.4343 16.9317C15.1995 16.4513 14.9648 15.971 14.6127 15.6108C14.2606 15.2505 13.8498 14.9503 13.3803 14.7101C12.9108 14.47 12.4413 14.3499 11.9718 14.3499H0Z" fill="white"/>
<path fill-rule="evenodd" clip-rule="evenodd" d="M19.4844 26.4783L37.4421 26.5383C37.7355 22.7557 34.2731 16.9317 32.806 14.8903C31.0454 12.4286 27.0548 8.04559 23.7097 6.96484C25.2942 13.3292 25.705 16.0911 21.9492 22.5156C21.3036 23.5963 19.6604 25.5176 19.4844 26.4783Z" fill="white"/>
<path fill-rule="evenodd" clip-rule="evenodd" d="M108.451 26.4186H115.846C115.963 24.8575 114.554 22.4559 113.909 21.6153C113.146 20.5946 111.561 18.7933 110.153 18.373C110.799 21.0149 110.975 22.1557 109.449 24.7975C109.155 25.2178 108.51 26.0583 108.451 26.4186Z" fill="white"/>
<path fill-rule="evenodd" clip-rule="evenodd" d="M204.402 26.4183H209.567C209.625 25.3376 208.628 23.6564 208.217 23.056C207.689 22.3355 206.574 21.0746 205.576 20.7744C206.046 22.5757 206.163 23.4162 205.048 25.2775C204.931 25.5777 204.461 26.1781 204.402 26.4183Z" fill="white"/>
<path d="M248.24 23.2363C248.24 24.0769 247.947 25.2177 246.832 25.2177C245.776 25.2177 245.423 24.137 245.423 23.2363C245.423 22.2156 245.834 21.315 246.832 21.315C247.771 21.315 248.24 22.2156 248.24 23.2363ZM243.78 28.0997C243.78 28.7001 244.132 29.0003 244.66 29.0003C245.189 29.0003 245.541 28.7001 245.541 28.0997V25.698C245.834 26.2985 246.48 26.5987 247.243 26.5987C249.062 26.5987 249.942 24.9775 249.942 23.2964C249.942 21.0148 248.651 19.874 247.184 19.874C246.362 19.874 245.658 20.2343 245.365 21.0148V20.7146C245.365 20.1742 245.071 19.874 244.602 19.874C244.074 19.874 243.839 20.1742 243.839 20.7146V28.0997H243.78ZM240.963 23.2363C240.963 24.0769 240.67 25.2177 239.555 25.2177C238.499 25.2177 238.146 24.137 238.146 23.2363C238.146 22.2156 238.557 21.315 239.555 21.315C240.494 21.315 240.963 22.2156 240.963 23.2363ZM236.503 28.0997C236.503 28.7001 236.855 29.0003 237.383 29.0003C237.912 29.0003 238.264 28.7001 238.264 28.0997V25.698C238.557 26.2985 239.203 26.5987 239.966 26.5987C241.785 26.5987 242.665 24.9775 242.665 23.2964C242.665 21.0148 241.374 19.874 239.907 19.874C239.085 19.874 238.381 20.2343 238.088 21.0148V20.7146C238.088 20.1742 237.794 19.874 237.325 19.874C236.797 19.874 236.562 20.1742 236.562 20.7146V28.0997H236.503ZM233.275 24.137C233.275 24.7974 232.689 25.4579 231.75 25.4579C231.163 25.4579 230.811 25.1577 230.811 24.7374C230.811 24.197 231.222 23.9568 231.926 23.8368L232.571 23.7167C232.747 23.6566 233.158 23.5966 233.334 23.4165V24.137H233.275ZM234.977 21.7353C234.977 20.4744 233.804 19.874 232.16 19.874C230.341 19.874 229.402 20.7746 229.402 21.4951C229.402 21.8554 229.696 22.1556 230.165 22.1556C230.869 22.1556 230.869 21.1949 232.16 21.1949C232.747 21.1949 233.275 21.4351 233.275 21.9154C233.275 22.3958 232.923 22.5158 232.513 22.5759L231.456 22.696C230.106 22.8761 228.991 23.2964 228.991 24.7374C228.991 25.8782 229.989 26.5386 230.987 26.5386C231.926 26.5386 232.689 26.2985 233.393 25.5179C233.393 26.0583 233.686 26.5386 234.449 26.5386C234.86 26.5386 235.212 26.2384 235.212 25.8782C235.212 25.578 235.036 25.3978 235.036 24.6773V21.7353H234.977ZM225.705 25.578C225.705 26.1183 226.175 26.5987 226.703 26.5987C227.231 26.5987 227.7 26.1183 227.7 25.578C227.7 25.0376 227.231 24.5573 226.703 24.5573C226.116 24.5573 225.705 24.9775 225.705 25.578Z" fill="white"/>
</g>
<defs>
<clipPath id="clip0_4212_711">
<rect width="250" height="29" fill="white"/>
</clipPath>
</defs>
</svg>
