<svg width="18" height="18" viewBox="0 0 18 18" fill="none" xmlns="http://www.w3.org/2000/svg">
<g clip-path="url(#clip0_4386_3515)">
<path d="M7.88203 0.724969C7.98495 0.507348 8.14414 0.324124 8.3416 0.196009C8.53906 0.0678948 8.76691 0 8.9994 0C9.23189 0 9.45974 0.0678948 9.6572 0.196009C9.85465 0.324124 10.0138 0.507348 10.1168 0.724969L12.2227 5.17974L16.9318 5.89378C17.162 5.92844 17.3783 6.02967 17.5562 6.18601C17.7342 6.34235 17.8667 6.54756 17.9387 6.77843C18.0108 7.0093 18.0195 7.2566 17.9639 7.49237C17.9082 7.72813 17.7905 7.94294 17.624 8.1125L14.2152 11.5815L15.0196 16.4771C15.0587 16.7163 15.033 16.9621 14.9452 17.1868C14.8575 17.4116 14.7114 17.6062 14.5233 17.7487C14.3352 17.8912 14.1126 17.976 13.8808 17.9935C13.649 18.0109 13.4171 17.9603 13.2113 17.8474L8.9994 15.5376L4.78745 17.8503C4.5815 17.9634 4.34929 18.0141 4.11715 17.9966C3.88501 17.9791 3.66221 17.894 3.47399 17.7511C3.28577 17.6082 3.13966 17.4131 3.05221 17.1879C2.96475 16.9628 2.93945 16.7165 2.97917 16.4771L3.78224 11.5815L0.376128 8.11394C0.209668 7.94448 0.0919417 7.72979 0.036261 7.49413C-0.0194198 7.25847 -0.0108343 7.01125 0.0610467 6.78042C0.132928 6.54959 0.265237 6.34436 0.443015 6.18793C0.620793 6.0315 0.836949 5.93011 1.06704 5.89523L5.77467 5.18119L7.88203 0.724969Z" fill="url(#paint0_linear_4386_3515)"/>
</g>
<defs>
<linearGradient id="paint0_linear_4386_3515" x1="17.9979" y1="18.4024" x2="-1.26815" y2="0.999873" gradientUnits="userSpaceOnUse">
<stop stop-color="#FF6F47"/>
<stop offset="1" stop-color="#FFCD0F"/>
</linearGradient>
<clipPath id="clip0_4386_3515">
<rect width="18" height="18" fill="white"/>
</clipPath>
</defs>
</svg>
