<svg width="48" height="48" viewBox="0 0 48 48" fill="none" xmlns="http://www.w3.org/2000/svg">
<path d="M31.94 44.895C31.976 43.595 32 41.985 32 40C32 36.435 31.923 34.076 31.839 32.559C31.751 30.978 30.824 29.665 29.265 29.386C28.091 29.176 26.395 29 24 29C21.605 29 19.91 29.175 18.735 29.386C17.176 29.665 16.249 30.977 16.161 32.559C16.077 34.076 16 36.434 16 40C16 41.984 16.024 43.595 16.06 44.895M6.09 6.916C6.767 5.112 8.313 3.806 10.229 3.594C12.789 3.311 17.155 3 24 3C30.845 3 35.21 3.31 37.771 3.594C39.687 3.807 41.233 5.112 41.909 6.916C45 15.163 45 17.736 45 17.736C45.0009 18.4264 44.8659 19.1101 44.6025 19.7483C44.3392 20.3865 43.9527 20.9665 43.4652 21.4553C42.9777 21.9441 42.3987 22.3321 41.7612 22.5972C41.1238 22.8622 40.4404 22.9991 39.75 23C36.85 23 34.5 20.644 34.5 17.737C34.5016 19.1311 33.9494 20.4687 32.9649 21.4557C31.9803 22.4426 30.6441 22.9981 29.25 23C26.35 23 24 20.644 24 17.737C24.0016 19.1311 23.4494 20.4687 22.4649 21.4557C21.4803 22.4426 20.1441 22.9981 18.75 23C15.85 23 13.5 20.644 13.5 17.737C13.5016 19.1311 12.9494 20.4687 11.9649 21.4557C10.9803 22.4426 9.64407 22.9981 8.25 23C5.35 23 3 20.644 3 17.737C3 17.737 3 15.162 6.09 6.916Z" stroke="white" stroke-width="3" stroke-linecap="round" stroke-linejoin="round"/>
<path d="M5 21.8701V30.0001C5 34.4461 5.179 37.7631 5.378 40.0751C5.595 42.6111 7.594 44.4831 10.134 44.6381C13.073 44.8181 17.618 45.0001 24 45.0001C30.382 45.0001 34.927 44.8181 37.866 44.6381C40.406 44.4831 42.405 42.6111 42.622 40.0751C42.822 37.7631 43 34.4461 43 30.0001V21.8701" stroke="white" stroke-width="3" stroke-linecap="round" stroke-linejoin="round"/>
</svg>
