<svg width="48" height="48" viewBox="0 0 48 48" fill="none" xmlns="http://www.w3.org/2000/svg">
<path d="M30 12H27C27 10.0109 26.2098 8.10322 24.8033 6.6967C23.3968 5.29018 21.4891 4.5 19.5 4.5C17.5109 4.5 15.6032 5.29018 14.1967 6.6967C12.7902 8.10322 12 10.0109 12 12H9C9 9.21523 10.1062 6.54451 12.0754 4.57538C14.0445 2.60625 16.7152 1.5 19.5 1.5C22.2848 1.5 24.9555 2.60625 26.9246 4.57538C28.8938 6.54451 30 9.21523 30 12Z" fill="white"/>
<path d="M37.4994 22.5C36.7244 22.5028 35.9639 22.7097 35.2944 23.1C34.89 22.4586 34.3301 21.9297 33.6666 21.5626C33.0031 21.1955 32.2577 21.002 31.4994 21C30.7244 21.0028 29.9639 21.2097 29.2944 21.6C28.7487 20.7413 27.928 20.0929 26.9664 19.7605C26.0048 19.4282 24.9589 19.4315 23.9994 19.77V12C23.9994 10.8065 23.5253 9.66193 22.6814 8.81802C21.8375 7.97411 20.6929 7.5 19.4994 7.5C18.3059 7.5 17.1613 7.97411 16.3174 8.81802C15.4735 9.66193 14.9994 10.8065 14.9994 12V28.65L11.6544 26.37C10.8876 25.7989 9.95546 25.4935 8.99939 25.5C8.10686 25.4978 7.23383 25.7611 6.4913 26.2563C5.74878 26.7516 5.1703 27.4564 4.82942 28.2813C4.48853 29.1062 4.40064 30.0138 4.57692 30.8888C4.7532 31.7637 5.18569 32.5665 5.81939 33.195L17.8194 44.145C19.5183 45.6656 21.7194 46.5044 23.9994 46.5H31.4994C34.2842 46.5 36.9549 45.3937 38.924 43.4246C40.8931 41.4555 41.9994 38.7848 41.9994 36V27C41.9994 25.8065 41.5253 24.6619 40.6814 23.818C39.8375 22.9741 38.6929 22.5 37.4994 22.5ZM38.9994 36C38.9994 37.9891 38.2092 39.8968 36.8027 41.3033C35.3962 42.7098 33.4885 43.5 31.4994 43.5H23.9994C22.4832 43.5183 21.012 42.9853 19.8594 42L7.93439 31.05C7.65727 30.7706 7.50105 30.3935 7.49939 30C7.49939 29.7214 7.57696 29.4484 7.72341 29.2114C7.86987 28.9744 8.07941 28.7829 8.32857 28.6584C8.57773 28.5338 8.85666 28.481 9.1341 28.5061C9.41154 28.5311 9.67654 28.6329 9.89939 28.8L17.9994 34.35V12C17.9994 11.6022 18.1574 11.2206 18.4387 10.9393C18.72 10.658 19.1016 10.5 19.4994 10.5C19.8972 10.5 20.2787 10.658 20.56 10.9393C20.8414 11.2206 20.9994 11.6022 20.9994 12V28.5H23.9994V24C23.9994 23.6022 24.1574 23.2206 24.4387 22.9393C24.72 22.658 25.1016 22.5 25.4994 22.5C25.8972 22.5 26.2787 22.658 26.5601 22.9393C26.8414 23.2206 26.9994 23.6022 26.9994 24V28.5H29.9994V25.5C29.9994 25.1022 30.1574 24.7206 30.4387 24.4393C30.72 24.158 31.1016 24 31.4994 24C31.8972 24 32.2787 24.158 32.5601 24.4393C32.8414 24.7206 32.9994 25.1022 32.9994 25.5V28.5H35.9994V27C35.9994 26.6022 36.1574 26.2206 36.4387 25.9393C36.72 25.658 37.1016 25.5 37.4994 25.5C37.8972 25.5 38.2787 25.658 38.5601 25.9393C38.8414 26.2206 38.9994 26.6022 38.9994 27V36Z" fill="white"/>
</svg>
