<svg width="48" height="48" viewBox="0 0 48 48" fill="none" xmlns="http://www.w3.org/2000/svg">
<path d="M34.4247 4.47419C34.5444 4.0984 34.5112 3.6906 34.3324 3.33907C34.1537 2.98754 33.8436 2.72055 33.4695 2.59592C33.0953 2.47128 32.6871 2.49902 32.3332 2.67313C31.9793 2.84724 31.7083 3.1537 31.5787 3.52619L30.0787 8.02419C29.959 8.39998 29.9922 8.80778 30.171 9.15931C30.3497 9.51084 30.6598 9.77782 31.0339 9.90246C31.4081 10.0271 31.8163 9.99936 32.1702 9.82525C32.524 9.65114 32.7951 9.34467 32.9247 8.97219L34.4247 4.47419ZM43.5607 4.44019C43.8416 4.72144 43.9994 5.10269 43.9994 5.50019C43.9994 5.89769 43.8416 6.27894 43.5607 6.56019L38.5607 11.5602C38.4234 11.7076 38.2578 11.8258 38.0738 11.9078C37.8898 11.9897 37.6911 12.0338 37.4897 12.0374C37.2883 12.0409 37.0883 12.0039 36.9015 11.9284C36.7147 11.853 36.5451 11.7407 36.4026 11.5983C36.2602 11.4558 36.1479 11.2862 36.0725 11.0994C35.997 10.9126 35.96 10.7125 35.9635 10.5111C35.9671 10.3097 36.0112 10.1111 36.0931 9.92711C36.1751 9.74311 36.2933 9.57751 36.4407 9.44019L41.4407 4.44019C41.7219 4.15929 42.1032 4.00151 42.5007 4.00151C42.8982 4.00151 43.2794 4.15929 43.5607 4.44019ZM18.1527 8.63619C18.4809 7.95477 18.9703 7.36368 19.5785 6.91417C20.1868 6.46466 20.8955 6.1703 21.6432 6.05662C22.391 5.94293 23.1551 6.01335 23.8695 6.26176C24.5839 6.51018 25.2268 6.92909 25.7427 7.48219L39.7547 22.4942C40.2606 23.0363 40.6296 23.6916 40.8307 24.4053C41.0319 25.1191 41.0594 25.8706 40.9111 26.5971C40.7627 27.3237 40.4427 28.0042 39.9779 28.5819C39.513 29.1596 38.9167 29.6178 38.2387 29.9182L31.3987 32.9502C32.2305 34.8854 32.2656 37.0706 31.4962 39.0315C30.7268 40.9924 29.215 42.5707 27.2891 43.4239C25.3632 44.277 23.1785 44.3362 21.2092 43.5885C19.24 42.8408 17.6451 41.3466 16.7707 39.4302L13.9367 40.6862C13.2885 40.9734 12.57 41.0628 11.8712 40.9433C11.1724 40.8237 10.5245 40.5005 10.0087 40.0142L7.1307 37.3002C6.57426 36.7757 6.19928 36.0876 6.06012 35.3357C5.92096 34.5838 6.02483 33.8071 6.3567 33.1182L18.1527 8.63619ZM19.5167 38.2142C20.0813 39.3822 21.0777 40.285 22.2956 40.732C23.5134 41.1789 24.8573 41.1351 26.0435 40.6096C27.2296 40.0842 28.165 39.1183 28.6523 37.916C29.1395 36.7137 29.1404 35.3691 28.6547 34.1662L19.5167 38.2142ZM23.5487 9.53019C23.3657 9.33414 23.1378 9.18564 22.8845 9.09754C22.6312 9.00944 22.3603 8.9844 22.0951 9.02458C21.83 9.06477 21.5787 9.16896 21.3629 9.32816C21.1471 9.48735 20.9733 9.69673 20.8567 9.93819L9.0607 34.4202C9.00503 34.535 8.98743 34.6646 9.01044 34.7901C9.03346 34.9157 9.0959 35.0306 9.1887 35.1182L12.0667 37.8302C12.1526 37.9111 12.2605 37.9649 12.3768 37.9848C12.4931 38.0047 12.6128 37.9899 12.7207 37.9422L37.0227 27.1762C37.2634 27.0698 37.4751 26.9074 37.6402 26.7025C37.8054 26.4976 37.9191 26.2562 37.972 25.9984C38.0248 25.7407 38.0152 25.474 37.944 25.2207C37.8728 24.9673 37.7421 24.7347 37.5627 24.5422L23.5487 9.53019ZM38.0007 16.4982C38.0007 16.1004 38.1587 15.7188 38.44 15.4375C38.7213 15.1562 39.1029 14.9982 39.5007 14.9982H43.5007C43.8985 14.9982 44.2801 15.1562 44.5614 15.4375C44.8427 15.7188 45.0007 16.1004 45.0007 16.4982C45.0007 16.896 44.8427 17.2775 44.5614 17.5588C44.2801 17.8402 43.8985 17.9982 43.5007 17.9982H39.5007C39.1029 17.9982 38.7213 17.8402 38.44 17.5588C38.1587 17.2775 38.0007 16.896 38.0007 16.4982Z" fill="white"/>
</svg>
