<svg width="48" height="48" viewBox="0 0 48 48" fill="none" xmlns="http://www.w3.org/2000/svg">
<path d="M18 10.5C17.6022 10.5 17.2206 10.658 16.9393 10.9393C16.658 11.2206 16.5 11.6022 16.5 12C16.5 12.3978 16.658 12.7794 16.9393 13.0607C17.2206 13.342 17.6022 13.5 18 13.5H30C30.3978 13.5 30.7794 13.342 31.0607 13.0607C31.342 12.7794 31.5 12.3978 31.5 12C31.5 11.6022 31.342 11.2206 31.0607 10.9393C30.7794 10.658 30.3978 10.5 30 10.5H18Z" fill="white"/>
<path fill-rule="evenodd" clip-rule="evenodd" d="M23.886 2.5C19.74 2.5 16.474 2.5 13.922 2.846C11.302 3.202 9.212 3.95 7.57 5.61C5.93 7.268 5.194 9.374 4.842 12.014C4.5 14.592 4.5 17.89 4.5 22.082V32.278C4.5 35.294 4.5 37.68 4.692 39.478C4.882 41.254 5.288 42.856 6.452 43.928C7.384 44.788 8.564 45.328 9.824 45.474C11.398 45.654 12.868 44.902 14.318 43.874C15.784 42.838 17.562 41.264 19.806 39.28L19.878 39.216C20.918 38.296 21.622 37.676 22.21 37.244C22.778 36.83 23.124 36.68 23.416 36.62C23.8016 36.5435 24.1984 36.5435 24.584 36.62C24.876 36.68 25.224 36.83 25.79 37.244C26.378 37.674 27.082 38.296 28.122 39.216L28.196 39.28C30.438 41.264 32.216 42.838 33.682 43.876C35.132 44.902 36.602 45.654 38.176 45.474C39.4351 45.3278 40.6155 44.7866 41.548 43.928C42.71 42.856 43.118 41.254 43.308 39.478C43.5 37.68 43.5 35.294 43.5 32.278V22.082C43.5 17.89 43.5 14.59 43.158 12.014C42.806 9.374 42.07 7.268 40.43 5.61C38.788 3.95 36.698 3.202 34.078 2.846C31.526 2.5 28.26 2.5 24.114 2.5H23.886ZM9.7 7.72C10.694 6.716 12.044 6.13 14.324 5.82C16.65 5.504 19.712 5.5 23.998 5.5C28.284 5.5 31.346 5.504 33.672 5.82C35.952 6.13 37.302 6.716 38.296 7.72C39.292 8.726 39.874 10.096 40.182 12.41C40.494 14.766 40.498 17.864 40.498 22.196V32.182C40.498 35.314 40.496 37.542 40.324 39.158C40.144 40.818 39.818 41.44 39.514 41.722C39.046 42.152 38.458 42.422 37.834 42.492C37.434 42.538 36.766 42.384 35.414 41.428C34.098 40.494 32.44 39.032 30.108 36.968L30.056 36.922C29.08 36.06 28.272 35.346 27.558 34.822C26.812 34.278 26.06 33.858 25.174 33.68C24.3977 33.5248 23.5983 33.5248 22.822 33.68C21.936 33.86 21.182 34.278 20.438 34.824C19.724 35.344 18.916 36.06 17.94 36.922L17.888 36.968C15.556 39.032 13.898 40.494 12.582 41.428C11.23 42.384 10.562 42.538 10.162 42.492C9.53493 42.4185 8.94702 42.1491 8.482 41.722C8.178 41.44 7.85 40.818 7.674 39.158C7.5 37.54 7.498 35.314 7.498 32.182V22.194C7.498 17.864 7.502 14.766 7.814 12.41C8.122 10.096 8.704 8.726 9.7 7.72Z" fill="white"/>
</svg>
