<svg width="48" height="48" viewBox="0 0 48 48" fill="none" xmlns="http://www.w3.org/2000/svg">
<path d="M14.5 14C14.5 13.6022 14.658 13.2206 14.9393 12.9393C15.2206 12.658 15.6022 12.5 16 12.5H32C32.3978 12.5 32.7794 12.658 33.0607 12.9393C33.342 13.2206 33.5 13.6022 33.5 14C33.5 14.3978 33.342 14.7794 33.0607 15.0607C32.7794 15.342 32.3978 15.5 32 15.5H16C15.6022 15.5 15.2206 15.342 14.9393 15.0607C14.658 14.7794 14.5 14.3978 14.5 14ZM16 19.5C15.6022 19.5 15.2206 19.658 14.9393 19.9393C14.658 20.2206 14.5 20.6022 14.5 21C14.5 21.3978 14.658 21.7794 14.9393 22.0607C15.2206 22.342 15.6022 22.5 16 22.5H26C26.3978 22.5 26.7794 22.342 27.0607 22.0607C27.342 21.7794 27.5 21.3978 27.5 21C27.5 20.6022 27.342 20.2206 27.0607 19.9393C26.7794 19.658 26.3978 19.5 26 19.5H16Z" fill="white"/>
<path fill-rule="evenodd" clip-rule="evenodd" d="M19.89 2.5C17.156 2.5 14.95 2.5 13.216 2.734C11.416 2.974 9.9 3.494 8.696 4.696C7.492 5.9 6.976 7.416 6.734 9.216C6.5 10.95 6.5 13.156 6.5 15.89V32.11C6.5 34.844 6.5 37.05 6.734 38.784C6.974 40.584 7.494 42.1 8.696 43.304C9.9 44.508 11.416 45.024 13.216 45.268C14.95 45.5 17.156 45.5 19.89 45.5H28.11C30.844 45.5 33.05 45.5 34.784 45.268C36.584 45.024 38.1 44.508 39.304 43.304C40.508 42.1 41.024 40.584 41.268 38.784C41.5 37.05 41.5 34.844 41.5 32.11V15.89C41.5 13.156 41.5 10.95 41.268 9.216C41.024 7.416 40.508 5.9 39.304 4.696C38.1 3.492 36.584 2.976 34.784 2.734C33.05 2.5 30.844 2.5 28.11 2.5H19.89ZM10.82 6.818C11.374 6.264 12.15 5.904 13.62 5.706C15.128 5.504 17.132 5.5 20.002 5.5H28.002C30.872 5.5 32.874 5.504 34.386 5.706C35.854 5.904 36.63 6.266 37.184 6.818C37.738 7.372 38.098 8.148 38.296 9.618C38.498 11.126 38.502 13.13 38.502 16V30.5H15.564C13.928 30.5 12.812 30.5 11.854 30.756C11.0123 30.9836 10.216 31.3543 9.5 31.852V16C9.5 13.13 9.504 11.126 9.706 9.616C9.904 8.148 10.268 7.372 10.82 6.818ZM9.554 36.498C9.584 37.206 9.632 37.828 9.706 38.384C9.904 39.852 10.266 40.628 10.818 41.182C11.372 41.736 12.148 42.096 13.618 42.294C15.126 42.496 17.13 42.5 20 42.5H28C30.87 42.5 32.872 42.496 34.384 42.294C35.852 42.096 36.628 41.734 37.182 41.182C37.736 40.628 38.096 39.852 38.294 38.382C38.46 37.152 38.492 35.592 38.498 33.5H15.796C13.84 33.5 13.156 33.512 12.63 33.654C11.9251 33.8431 11.2767 34.2008 10.7409 34.6962C10.205 35.1917 9.79766 35.8101 9.554 36.498Z" fill="white"/>
</svg>
