<svg width="48" height="48" viewBox="0 0 48 48" fill="none" xmlns="http://www.w3.org/2000/svg">
<path d="M40.4991 3C40.8969 3 41.2784 3.15804 41.5597 3.43934C41.841 3.72064 41.9991 4.10218 41.9991 4.5V6H43.4991C43.8969 6 44.2784 6.15804 44.5597 6.43934C44.841 6.72064 44.9991 7.10218 44.9991 7.5C44.9991 7.89782 44.841 8.27936 44.5597 8.56066C44.2784 8.84196 43.8969 9 43.4991 9H41.9991V10.5C41.9991 10.8978 41.841 11.2794 41.5597 11.5607C41.2784 11.842 40.8969 12 40.4991 12C40.1012 12 39.7197 11.842 39.4384 11.5607C39.1571 11.2794 38.9991 10.8978 38.9991 10.5V9H37.4991C37.1012 9 36.7197 8.84196 36.4384 8.56066C36.1571 8.27936 35.9991 7.89782 35.9991 7.5C35.9991 7.10218 36.1571 6.72064 36.4384 6.43934C36.7197 6.15804 37.1012 6 37.4991 6H38.9991V4.5C38.9991 4.10218 39.1571 3.72064 39.4384 3.43934C39.7197 3.15804 40.1012 3 40.4991 3ZM10.4991 9C10.8969 9 11.2784 9.15804 11.5597 9.43934C11.841 9.72064 11.9991 10.1022 11.9991 10.5V12H13.4991C13.8969 12 14.2784 12.158 14.5597 12.4393C14.841 12.7206 14.9991 13.1022 14.9991 13.5C14.9991 13.8978 14.841 14.2794 14.5597 14.5607C14.2784 14.842 13.8969 15 13.4991 15H11.9991V16.5C11.9991 16.8978 11.841 17.2794 11.5597 17.5607C11.2784 17.842 10.8969 18 10.4991 18C10.1012 18 9.71971 17.842 9.43841 17.5607C9.1571 17.2794 8.99907 16.8978 8.99907 16.5V15H7.49907C7.10124 15 6.71971 14.842 6.43841 14.5607C6.1571 14.2794 5.99907 13.8978 5.99907 13.5C5.99907 13.1022 6.1571 12.7206 6.43841 12.4393C6.71971 12.158 7.10124 12 7.49907 12H8.99907V10.5C8.99907 10.1022 9.1571 9.72064 9.43841 9.43934C9.71971 9.15804 10.1012 9 10.4991 9ZM37.4991 36C37.8969 36 38.2784 35.842 38.5597 35.5607C38.841 35.2794 38.9991 34.8978 38.9991 34.5C38.9991 34.1022 38.841 33.7206 38.5597 33.4393C38.2784 33.158 37.8969 33 37.4991 33H35.9991V31.5C35.9991 31.1022 35.841 30.7206 35.5597 30.4393C35.2784 30.158 34.8969 30 34.4991 30C34.1012 30 33.7197 30.158 33.4384 30.4393C33.1571 30.7206 32.9991 31.1022 32.9991 31.5V33H31.4991C31.1012 33 30.7197 33.158 30.4384 33.4393C30.1571 33.7206 29.9991 34.1022 29.9991 34.5C29.9991 34.8978 30.1571 35.2794 30.4384 35.5607C30.7197 35.842 31.1012 36 31.4991 36H32.9991V37.5C32.9991 37.8978 33.1571 38.2794 33.4384 38.5607C33.7197 38.842 34.1012 39 34.4991 39C34.8969 39 35.2784 38.842 35.5597 38.5607C35.841 38.2794 35.9991 37.8978 35.9991 37.5V36H37.4991ZM26.1891 13.689C27.2664 12.6121 28.7274 12.0072 30.2506 12.0075C31.7739 12.0078 33.2347 12.6132 34.3116 13.6905C35.3885 14.7678 35.9933 16.2288 35.993 17.7521C35.9928 19.2753 35.3874 20.7361 34.3101 21.813L12.8001 43.323C11.7228 44.3999 10.2618 45.0048 8.73851 45.0045C7.21524 45.0042 5.75448 44.3988 4.67757 43.3215C3.60066 42.2442 2.99581 40.7832 2.99609 39.2599C2.99638 37.7367 3.60176 36.2759 4.67907 35.199L26.1891 13.689ZM24.7491 19.371L6.80007 37.32C6.28568 37.8344 5.9967 38.532 5.9967 39.2595C5.9967 39.987 6.28568 40.6846 6.80007 41.199C7.31446 41.7134 8.01212 42.0024 8.73957 42.0024C9.46702 42.0024 10.1647 41.7134 10.6791 41.199L28.6281 23.25L24.7491 19.371ZM30.7491 21.129L32.1891 19.689C32.4486 19.4354 32.6551 19.1328 32.7968 18.7988C32.9385 18.4648 33.0125 18.106 33.0145 17.7432C33.0166 17.3804 32.9465 17.0208 32.8086 16.6852C32.6706 16.3496 32.4674 16.0448 32.2107 15.7883C31.9541 15.5319 31.6491 15.3289 31.3134 15.1912C30.9777 15.0535 30.6181 14.9837 30.2552 14.986C29.8924 14.9883 29.5337 15.0626 29.1998 15.2046C28.8659 15.3465 28.5635 15.5533 28.3101 15.813L26.8701 17.253L30.7491 21.129Z" fill="white"/>
</svg>
