<svg width="48" height="48" viewBox="0 0 48 48" fill="none" xmlns="http://www.w3.org/2000/svg">
<path fill-rule="evenodd" clip-rule="evenodd" d="M19 7.5C12.234 7.5 6.5 12.518 6.5 19C6.50566 21.3977 7.30609 23.7258 8.776 25.62L7.552 30.106C7.232 31.286 8.448 32.356 9.576 31.886L15.176 29.552C15.5433 29.399 15.8348 29.1063 15.9863 28.7383C16.1379 28.3704 16.137 27.9573 15.984 27.59C15.831 27.2227 15.5383 26.9312 15.1703 26.7797C14.8024 26.6281 14.3893 26.629 14.022 26.782L11.254 27.936L11.874 25.662C11.9397 25.4216 11.9445 25.1687 11.8879 24.926C11.8313 24.6833 11.7152 24.4585 11.55 24.272C10.254 22.81 9.5 20.98 9.5 19C9.5 14.436 13.616 10.5 19 10.5C23.16 10.5 26.582 12.866 27.908 16.044C21.628 16.55 16.5 21.37 16.5 27.5C16.5 33.982 22.234 39 29 39C30.532 39 32.006 38.746 33.368 38.28L38.424 40.384C39.552 40.856 40.768 39.784 40.448 38.604L39.224 34.12C40.6939 32.2258 41.4943 29.8976 41.5 27.5C41.5 21.706 36.92 17.084 31.118 16.166C29.73 11.106 24.75 7.5 19 7.5ZM19.5 27.5C19.5 22.938 23.616 19 29 19C34.384 19 38.5 22.938 38.5 27.5C38.5 29.478 37.746 31.31 36.45 32.772C36.2848 32.9585 36.1687 33.1833 36.1121 33.426C36.0555 33.6687 36.0603 33.9216 36.126 34.162L36.746 36.436L33.978 35.282C33.6168 35.1321 33.2113 35.1293 32.848 35.274C31.6229 35.7575 30.3171 36.0038 29 36C23.616 36 19.5 32.064 19.5 27.5Z" fill="white"/>
</svg>
