<svg width="24" height="24" viewBox="0 0 24 24" fill="none" xmlns="http://www.w3.org/2000/svg">
<circle cx="12" cy="12" r="12" fill="#F3DFD3"/>
<path d="M18.7437 7.25071C18.9078 7.41145 19 7.62934 19 7.85652C19 8.0837 18.9078 8.30158 18.7437 8.46232L10.2719 16.7493C10.1076 16.9098 9.88488 17 9.65263 17C9.42039 17 9.19764 16.9098 9.03332 16.7493L5.23564 13.0344C5.08064 12.872 4.99621 12.657 5.00013 12.4348C5.00405 12.2126 5.09603 12.0005 5.25667 11.8434C5.41732 11.6863 5.63407 11.5963 5.86122 11.5925C6.08837 11.5886 6.30817 11.6712 6.47427 11.8228L9.65263 14.9319L17.5051 7.25071C17.6694 7.09017 17.8921 7 18.1244 7C18.3566 7 18.5794 7.09017 18.7437 7.25071Z" fill="#212121"/>
</svg>
