<svg width="24" height="24" viewBox="0 0 24 24" fill="none" xmlns="http://www.w3.org/2000/svg">
<path d="M14.0008 10.0002L11.0008 13.0002M20.2888 3.03122C20.3837 2.99847 20.4859 2.99309 20.5837 3.01567C20.6815 3.03825 20.771 3.0879 20.8419 3.15893C20.9129 3.22996 20.9624 3.31952 20.9848 3.41736C21.0073 3.5152 21.0017 3.61738 20.9688 3.71222L15.0448 20.6422C15.0094 20.7434 14.9443 20.8316 14.8581 20.8954C14.772 20.9592 14.6686 20.9956 14.5614 20.9999C14.4543 21.0042 14.3483 20.9763 14.2573 20.9196C14.1662 20.863 14.0943 20.7802 14.0508 20.6822L10.8318 13.4402C10.7777 13.3198 10.6813 13.2234 10.5608 13.1692L3.31884 9.94922C3.22113 9.9056 3.13875 9.83368 3.08234 9.74275C3.02593 9.65183 2.99808 9.54608 3.00239 9.43917C3.00669 9.33225 3.04296 9.22909 3.1065 9.14299C3.17004 9.0569 3.25794 8.99184 3.35884 8.95622L20.2888 3.03122Z" stroke="white" stroke-width="1.5" stroke-linecap="round" stroke-linejoin="round"/>
</svg>
