<svg width="200" height="23" viewBox="0 0 200 23" fill="none" xmlns="http://www.w3.org/2000/svg">
<g clip-path="url(#clip0_4212_847)">
<path fill-rule="evenodd" clip-rule="evenodd" d="M176.995 21.0476H173.192C168.592 12.5714 166.103 7.85714 165.634 6.95238L157.934 21.0476H154.319L165.681 0.0476191L176.995 21.0476ZM143.803 17.8571C144.93 17.8571 145.962 17.7143 146.854 17.3333C147.793 16.9524 148.592 16.4286 149.296 15.7619C150 15.0952 150.516 14.3333 150.892 13.4286C151.268 12.5238 151.455 11.5714 151.455 10.5714C151.455 9.57143 151.268 8.57143 150.845 7.66667C150.469 6.76191 149.906 5.95238 149.202 5.28571C148.498 4.61905 147.7 4.09524 146.761 3.71429C145.822 3.33333 144.836 3.19048 143.803 3.2381V17.8571ZM144.225 0.0476191C145.634 0.0476191 146.995 0.333333 148.263 0.857143C149.484 1.38095 150.61 2.14286 151.549 3.09524C152.488 4.04762 153.239 5.19048 153.803 6.42857C154.366 7.71429 154.648 9.04762 154.648 10.5238C154.648 12 154.366 13.381 153.803 14.619C153.239 15.9048 152.488 17 151.549 17.9524C150.61 18.9048 149.531 19.6667 148.263 20.1905C146.995 20.7143 145.681 21 144.225 21H140.657V0.0476191H144.225ZM126.338 21.0476C125.305 20.9524 124.366 20.7143 123.521 20.2381C122.676 19.7619 121.972 19.1905 121.408 18.5238C120.845 17.8571 120.423 17.0476 120.094 16.1429C119.765 15.2381 119.624 14.3333 119.624 13.3333V0.0476191H122.817V13.3333C122.817 13.9524 122.911 14.5714 123.146 15.0952C123.38 15.6667 123.662 16.1429 124.084 16.5238C124.46 16.9048 124.977 17.2381 125.493 17.4762C126.056 17.7143 126.62 17.8571 127.23 17.8571C127.84 17.8571 128.404 17.7143 128.967 17.4762C129.531 17.2381 130 16.9048 130.376 16.5238C130.751 16.1429 131.08 15.6667 131.315 15.0952C131.549 14.5238 131.69 13.9524 131.69 13.3333V0.0476191H134.93V13.3333C134.93 14.2857 134.742 15.2381 134.413 16.1905C134.085 17.0952 133.568 17.9524 132.958 18.6667C132.347 19.381 131.596 20 130.751 20.4286C129.906 20.8571 128.967 21.0952 127.981 21.0952H126.338V21.0476ZM108.732 0.0476191C109.765 0.0476191 110.657 0.238095 111.502 0.571429C112.347 0.904762 113.052 1.38095 113.662 2C114.272 2.57143 114.742 3.33333 115.023 4.19048C115.352 5.04762 115.493 6 115.493 7.04762V7.85714H112.394C112.394 7.33333 112.347 6.76191 112.207 6.19048C112.066 5.61905 111.831 5.14286 111.549 4.71429C111.268 4.28571 110.892 4 110.423 3.71429C109.953 3.47619 109.39 3.33333 108.732 3.33333C108.263 3.33333 107.793 3.42857 107.324 3.61905C106.901 3.80952 106.479 4.09524 106.15 4.42857C105.822 4.76191 105.54 5.14286 105.352 5.61905C105.164 6.09524 105.07 6.57143 105.07 7.04762V14.2857C105.07 14.7619 105.164 15.2381 105.352 15.7143C105.54 16.1905 105.822 16.5714 106.15 16.9048C106.479 17.2381 106.901 17.4762 107.324 17.7143C107.793 17.9048 108.216 18 108.732 18C109.437 18 110.047 17.8571 110.516 17.619C110.986 17.3333 111.362 17 111.643 16.5714C111.925 16.1429 112.113 15.619 112.254 15.0476C112.347 14.4762 112.441 13.9048 112.441 13.2857H115.54C115.54 14.381 115.399 15.381 115.117 16.3333C114.836 17.2857 114.46 18.1429 113.897 18.8571C113.38 19.5714 112.676 20.1429 111.784 20.5714C110.939 21 109.906 21.1905 108.732 21.1905C107.793 21.1905 106.901 21 106.056 20.6667C105.258 20.2857 104.507 19.8095 103.897 19.2381C103.286 18.619 102.817 17.9048 102.441 17.0952C102.113 16.2381 101.925 15.3333 101.925 14.381V7C101.925 6.04762 102.113 5.14286 102.441 4.28571C102.77 3.42857 103.286 2.71429 103.897 2.09524C104.507 1.47619 105.258 1 106.056 0.619048C106.901 0.238095 107.793 0.0476191 108.732 0.0476191ZM100.986 21.0476H97.1831C92.5822 12.5714 90.0939 7.85714 89.6244 6.95238L81.9249 21.0476H78.3099L89.6714 0.0476191L100.986 21.0476ZM64.3662 10.5714H69.9061C70.4225 10.5714 70.939 10.4762 71.3615 10.2857C71.784 10.0952 72.2066 9.80952 72.5352 9.47619C72.8638 9.14286 73.0986 8.71429 73.2864 8.28572C73.4742 7.80952 73.5211 7.38095 73.5211 6.90476C73.5211 5.76191 73.1925 4.85714 72.4883 4.19048C71.784 3.52381 70.939 3.19048 69.9061 3.19048H64.3662V10.5714ZM61.1737 21.0476V0H69.8592C70.8451 0.0476191 71.7371 0.238095 72.5352 0.619048C73.3333 1 74.0845 1.47619 74.6948 2.09524C75.3052 2.71429 75.7746 3.42857 76.1502 4.2381C76.4789 5.04762 76.6667 5.95238 76.6667 6.90476C76.6667 8 76.4319 9.09524 75.9155 10.0952C75.446 11.0952 74.6948 11.9048 73.7559 12.4762C74.2253 13.8095 74.6948 15.2857 75.1643 16.7619C75.6338 18.2857 76.0563 19.7143 76.4789 21.0476H73.3803L70.892 13.7619C70.7981 13.7619 70.7042 13.7619 70.5164 13.8095C70.3286 13.8571 70.2347 13.8571 70.1408 13.8571H64.3662V21.0476H61.1737ZM44.4131 10.5714H49.9531C50.4695 10.5714 50.9859 10.4762 51.4085 10.2857C51.831 10.0952 52.2535 9.80952 52.5822 9.47619C52.9108 9.14286 53.1455 8.71429 53.3333 8.28572C53.5211 7.80952 53.5681 7.38095 53.5681 6.90476C53.5681 5.76191 53.2394 4.85714 52.5352 4.19048C51.831 3.52381 50.9859 3.19048 49.9531 3.19048H44.4131V10.5714ZM41.2207 21.0476V0H49.9061C50.892 0.0476191 51.784 0.238095 52.5822 0.619048C53.3803 1 54.1315 1.47619 54.7418 2.09524C55.3521 2.71429 55.8216 3.42857 56.1972 4.2381C56.5258 5.04762 56.7136 5.95238 56.7136 6.90476C56.7136 8 56.4789 9.09524 55.9624 10.0952C55.493 11.0952 54.7418 11.9048 53.8028 12.4762C54.2723 13.8095 54.7418 15.2857 55.2113 16.7619C55.6807 18.2857 56.1033 19.7143 56.5258 21.0476H53.4272L50.892 13.7619C50.7981 13.7619 50.7042 13.7619 50.5164 13.8095C50.3286 13.8571 50.2347 13.8571 50.1408 13.8571H44.4131V21.0476H41.2207ZM39.2488 21.0476H35.446C30.8451 12.5714 28.3568 7.85714 27.8873 6.95238L26.0563 10.2857C25.3991 9.47619 24.6009 8.57143 23.7089 7.7619L27.8873 0L39.2488 21.0476ZM0 11.381V8.2381H8.16901C8.4507 8.2381 8.68545 8.19048 8.96714 8.04762C9.24883 7.90476 9.48357 7.76191 9.71831 7.57143C9.95305 7.38095 10.1408 7.09524 10.2817 6.80952C10.4225 6.47619 10.5164 6.14286 10.5164 5.80952C10.5164 5.04762 10.2817 4.47619 9.85915 4.04762C9.43662 3.66667 8.87324 3.38095 8.16901 3.28571H0V0.0476191H8.68545C9.43662 0.142857 10.1408 0.333333 10.7512 0.666667C11.3615 1 11.8779 1.42857 12.3474 1.95238C12.8169 2.47619 13.1455 3.04762 13.3803 3.71429C13.615 4.38095 13.7089 5.04762 13.7089 5.80952C13.7089 6.42857 13.615 7.04762 13.4272 7.66667C13.2394 8.28572 12.9108 8.7619 12.4883 9.2381C13.5211 9.95238 14.3192 10.7619 14.8826 11.619C15.446 12.5238 15.7277 13.5714 15.7277 14.7619C15.7277 15.9524 15.446 17.0952 14.8357 18.0952C14.2254 19.0952 13.4272 19.9048 12.4413 20.4286C12.1127 20.619 11.6901 20.7619 11.1737 20.9048C10.6573 21.0476 10.1408 21.0952 9.53052 21.0952H0V17.9048H3.19249V17.9524H9.57746C9.95305 17.9524 10.3286 17.8571 10.7042 17.6667C11.0798 17.4762 11.4085 17.2381 11.6901 16.9524C11.9718 16.6667 12.1596 16.3333 12.3474 15.9524C12.5352 15.5714 12.5822 15.1429 12.5822 14.7143C12.5822 14.2857 12.4883 13.8571 12.3474 13.4286C12.1596 13.0476 11.9718 12.6667 11.6901 12.381C11.4085 12.0952 11.0798 11.8571 10.7042 11.6667C10.3286 11.4762 9.95305 11.381 9.57746 11.381H0Z" fill="#E7440B"/>
<path fill-rule="evenodd" clip-rule="evenodd" d="M15.5859 21.0001L29.9521 21.0477C30.1869 18.0477 27.4169 13.4287 26.2432 11.8096C24.8348 9.85726 21.6423 6.38107 18.9662 5.52393C20.2338 10.5715 20.5625 12.762 17.5578 17.8573C17.0413 18.7144 15.7268 20.2382 15.5859 21.0001Z" fill="#E7440B"/>
<path fill-rule="evenodd" clip-rule="evenodd" d="M86.7598 20.9525H92.6753C92.7692 19.7144 91.6424 17.8096 91.126 17.143C90.5156 16.3334 89.248 14.9049 88.1213 14.5715C88.6377 16.6668 88.7785 17.5715 87.5579 19.6668C87.3231 20.0001 86.8067 20.6668 86.7598 20.9525Z" fill="#E7440B"/>
<path fill-rule="evenodd" clip-rule="evenodd" d="M163.521 20.9523H167.653C167.7 20.0951 166.902 18.7618 166.573 18.2856C166.151 17.7142 165.259 16.7142 164.46 16.4761C164.836 17.9046 164.93 18.5713 164.038 20.0475C163.944 20.2856 163.568 20.7618 163.521 20.9523Z" fill="#E7440B"/>
<path d="M198.591 18.4286C198.591 19.0953 198.356 20.0001 197.464 20.0001C196.619 20.0001 196.337 19.1429 196.337 18.4286C196.337 17.6191 196.666 16.9048 197.464 16.9048C198.215 16.9048 198.591 17.6191 198.591 18.4286ZM195.023 22.2858C195.023 22.762 195.304 23.0001 195.727 23.0001C196.149 23.0001 196.431 22.762 196.431 22.2858V20.381C196.666 20.8572 197.182 21.0953 197.793 21.0953C199.248 21.0953 199.952 19.8096 199.952 18.4762C199.952 16.6667 198.919 15.762 197.746 15.762C197.088 15.762 196.525 16.0477 196.29 16.6667V16.4286C196.29 16.0001 196.055 15.762 195.68 15.762C195.257 15.762 195.07 16.0001 195.07 16.4286V22.2858H195.023ZM192.769 18.4286C192.769 19.0953 192.534 20.0001 191.642 20.0001C190.797 20.0001 190.516 19.1429 190.516 18.4286C190.516 17.6191 190.844 16.9048 191.642 16.9048C192.393 16.9048 192.769 17.6191 192.769 18.4286ZM189.201 22.2858C189.201 22.762 189.483 23.0001 189.905 23.0001C190.328 23.0001 190.609 22.762 190.609 22.2858V20.381C190.844 20.8572 191.361 21.0953 191.971 21.0953C193.426 21.0953 194.131 19.8096 194.131 18.4762C194.131 16.6667 193.098 15.762 191.924 15.762C191.267 15.762 190.703 16.0477 190.469 16.6667V16.4286C190.469 16.0001 190.234 15.762 189.858 15.762C189.436 15.762 189.248 16.0001 189.248 16.4286V22.2858H189.201ZM186.619 19.1429C186.619 19.6667 186.149 20.1905 185.398 20.1905C184.929 20.1905 184.647 19.9524 184.647 19.6191C184.647 19.1905 184.976 19.0001 185.539 18.9048L186.055 18.8096C186.196 18.762 186.525 18.7143 186.666 18.5715V19.1429H186.619ZM187.98 17.2382C187.98 16.2382 187.041 15.762 185.727 15.762C184.271 15.762 183.52 16.4762 183.52 17.0477C183.52 17.3334 183.755 17.5715 184.131 17.5715C184.694 17.5715 184.694 16.8096 185.727 16.8096C186.196 16.8096 186.619 17.0001 186.619 17.381C186.619 17.762 186.337 17.8572 186.009 17.9048L185.163 18.0001C184.084 18.1429 183.192 18.4762 183.192 19.6191C183.192 20.5239 183.99 21.0477 184.788 21.0477C185.539 21.0477 186.149 20.8572 186.713 20.2382C186.713 20.6667 186.947 21.0477 187.558 21.0477C187.886 21.0477 188.168 20.8096 188.168 20.5239C188.168 20.2858 188.027 20.1429 188.027 19.5715V17.2382H187.98ZM180.562 20.2858C180.562 20.7143 180.938 21.0953 181.361 21.0953C181.783 21.0953 182.159 20.7143 182.159 20.2858C182.159 19.8572 181.783 19.4763 181.361 19.4763C180.891 19.4763 180.562 19.8096 180.562 20.2858Z" fill="#E7440B"/>
</g>
<defs>
<clipPath id="clip0_4212_847">
<rect width="200" height="23" fill="white"/>
</clipPath>
</defs>
</svg>
