<svg width="81" height="83" viewBox="0 0 81 83" fill="none" xmlns="http://www.w3.org/2000/svg">
<path d="M80.6244 78.8051C77.4122 69.1976 74.1787 59.5974 70.9451 49.9972C69.6188 46.061 63.39 47.6231 64.6526 51.6353C66.4801 57.4393 68.2255 63.2787 70.1221 69.0633C55.8138 63.3703 42.394 52.5717 31.7699 42.1487C19.3673 29.9823 10.0271 15.8309 2.02403 0.50782C1.47835 -0.534945 -0.375496 0.17673 0.0682105 1.30911C6.47059 17.6315 16.7971 32.438 28.984 44.9733C41.7903 58.1466 56.5258 66.4554 71.988 75.7623C66.2317 75.1609 60.4761 74.5607 54.7198 73.9592C50.4719 73.5151 50.4742 80.1543 54.6852 80.5907C62.2589 81.376 69.8333 82.1592 77.407 82.9444C79.4582 83.1573 81.2584 80.7021 80.6244 78.8051Z" fill="#E7440B"/>
</svg>
