<svg width="400" height="360" viewBox="0 0 400 360" fill="none" xmlns="http://www.w3.org/2000/svg">
<path d="M365.491 230.079C329.593 303.834 233.97 345.152 151.045 334.007C137.551 332.193 100.558 326.791 67.8059 301.304C4.75568 252.24 -8.72808 155.088 42.1327 86.6221C79.1503 36.791 145.508 8.54338 208.561 9.95636C222.143 10.2607 274.193 12.1364 319.936 45.0495C326.655 49.8838 341.474 61.3714 354.83 79.5958C386.191 122.39 388.886 182.011 365.491 230.079Z" fill="url(#paint0_linear_4245_710)"/>
<path d="M2.12743 245.929C8.24797 220.215 28.2622 200.029 53.7414 193.855C71.2585 189.611 88.0647 191.888 102.27 198.766C106.981 201.047 112.58 198.464 113.886 193.358C126.443 144.233 170.637 107.941 223.233 107.941C285.599 107.941 336.157 158.968 336.157 221.913C336.157 223.584 336.124 225.866 336.095 228.056C336.316 232.763 338.352 234.762 341.392 235.264C365.826 237.831 385.03 258.161 386.095 283.237C387.319 312.03 364.1 335.884 335.545 335.884H71.4239C26.21 335.884 -9.1913 293.483 2.12743 245.929Z" fill="#FF8A80"/>
<path opacity="0.21" d="M22.5831 255.566C28.0479 232.607 45.9181 214.583 68.6676 209.071C84.3081 205.281 99.3138 207.315 111.997 213.455C116.204 215.492 121.203 213.186 122.368 208.627C133.58 164.765 173.04 132.361 220.001 132.361C275.686 132.361 320.828 177.922 320.828 234.123C320.828 235.615 320.798 237.653 320.772 239.608C320.969 243.811 322.788 245.596 325.501 246.044C347.319 248.335 364.464 266.488 365.416 288.877C366.508 314.585 345.777 335.884 320.282 335.884H84.4557C44.0857 335.884 12.477 298.025 22.5831 255.566Z" fill="white"/>
<path d="M60.0911 346.276C60.0911 348.383 61.8442 350.107 63.9868 350.107H274.656C276.798 350.107 278.551 348.383 278.551 346.276L280.304 227.105C280.304 224.998 277.782 220.885 273.16 221.194L67.2716 215.95C64.5832 215.882 61.9838 216.9 60.08 218.768C58.1762 220.636 57.1345 223.19 57.1981 225.834L60.0911 346.276Z" fill="url(#paint1_linear_4245_710)"/>
<path d="M63.9368 342.601C63.9368 344.596 65.5954 346.229 67.6224 346.229H269.575C271.602 346.229 273.261 344.596 273.261 342.601L274.915 234.417C274.72 227.906 268.921 225.567 265.407 225.705L68.0808 220.494C66.1922 220.444 64.3659 221.16 63.0282 222.474C61.6905 223.787 60.9548 225.584 61.0022 227.444L63.9368 342.601Z" fill="#7D97F4"/>
<path d="M271.077 291.206C271.075 291.206 271.072 291.206 271.072 291.206C270.771 291.201 270.533 290.96 270.537 290.666L270.668 281.892C270.672 281.602 270.913 281.369 271.208 281.369C271.21 281.369 271.213 281.369 271.213 281.369C271.514 281.373 271.752 281.614 271.748 281.908L271.617 290.682C271.613 290.973 271.372 291.206 271.077 291.206Z" fill="white"/>
<path d="M271.398 269.706C271.398 269.706 271.393 269.706 271.39 269.706C271.092 269.702 270.853 269.46 270.858 269.166L271.359 235.563C271.35 233.567 270.734 231.974 269.53 230.837C267.281 228.717 263.711 228.825 263.56 228.832L200.49 227.167C200.192 227.16 199.957 226.915 199.965 226.621C199.973 226.328 200.202 226.078 200.519 226.104L263.552 227.769C263.944 227.747 267.745 227.682 270.277 230.069C271.701 231.413 272.428 233.263 272.439 235.568L271.938 269.182C271.934 269.473 271.692 269.706 271.398 269.706Z" fill="white"/>
<path d="M43.7847 360H290.586C291.017 360 291.37 359.653 291.37 359.228V350.302C291.37 349.877 291.017 349.529 290.586 349.529H43.7847C43.3531 349.529 43 349.877 43 350.302V359.228C43.0001 359.652 43.3532 360 43.7847 360Z" fill="url(#paint2_linear_4245_710)"/>
<path d="M151.553 340.951H73.7966C70.9296 340.951 68.6055 338.663 68.6055 335.841V235.934C68.6055 233.035 71.0525 230.717 73.9951 230.828L151.752 233.757C154.539 233.862 156.744 236.117 156.744 238.863V335.841C156.744 338.663 154.42 340.951 151.553 340.951Z" fill="#91B3FA"/>
<path opacity="0.51" d="M136.087 276.758H84.5819C84.1732 276.758 83.8418 276.432 83.8418 276.029V270.749C83.8418 270.346 84.1732 270.02 84.5819 270.02H136.087C136.496 270.02 136.827 270.346 136.827 270.749V276.029C136.827 276.432 136.496 276.758 136.087 276.758Z" fill="white"/>
<path opacity="0.51" d="M136.19 287.518H84.6854C84.2767 287.518 83.9453 287.191 83.9453 286.789V281.508C83.9453 281.106 84.2767 280.78 84.6854 280.78H136.19C136.599 280.78 136.931 281.106 136.931 281.508V286.789C136.931 287.191 136.599 287.518 136.19 287.518Z" fill="white"/>
<path opacity="0.51" d="M136.501 298.503H84.996C84.5873 298.503 84.2559 298.177 84.2559 297.774V292.494C84.2559 292.091 84.5873 291.765 84.996 291.765H136.501C136.91 291.765 137.241 292.091 137.241 292.494V297.774C137.241 298.177 136.91 298.503 136.501 298.503Z" fill="white"/>
<path opacity="0.51" d="M136.606 309.263H85.1015C84.6926 309.263 84.3613 308.937 84.3613 308.534V303.253C84.3613 302.851 84.6927 302.525 85.1015 302.525H136.606C137.015 302.525 137.347 302.851 137.347 303.253V308.534C137.347 308.937 137.015 309.263 136.606 309.263Z" fill="white"/>
<path opacity="0.51" d="M249.043 276.75H174.346C173.937 276.75 173.605 276.424 173.605 276.021V270.741C173.605 270.338 173.937 270.012 174.346 270.012H249.043C249.451 270.012 249.783 270.338 249.783 270.741V276.021C249.783 276.424 249.451 276.75 249.043 276.75Z" fill="white"/>
<path opacity="0.51" d="M249.279 287.517H174.582C174.173 287.517 173.842 287.191 173.842 286.789V281.508C173.842 281.105 174.173 280.779 174.582 280.779H249.279C249.688 280.779 250.019 281.106 250.019 281.508V286.789C250.019 287.191 249.688 287.517 249.279 287.517Z" fill="white"/>
<path opacity="0.51" d="M218.241 298.503H174.582C174.173 298.503 173.842 298.177 173.842 297.774V292.494C173.842 292.091 174.173 291.765 174.582 291.765H218.241C218.649 291.765 218.981 292.091 218.981 292.494V297.774C218.981 298.177 218.649 298.503 218.241 298.503Z" fill="white"/>
<g opacity="0.51">
<path d="M214.045 244.9H212.885C212.308 244.9 211.841 244.44 211.841 243.873V239.969C211.841 238.572 210.69 237.439 209.271 237.439H202.081C200.661 237.439 199.51 238.572 199.51 239.969V243.873C199.51 244.44 199.043 244.9 198.467 244.9H197.307C196.731 244.9 196.264 244.44 196.264 243.873V239.969C196.264 236.806 198.868 234.243 202.081 234.243H209.271C212.484 234.243 215.088 236.806 215.088 239.969V243.873C215.088 244.44 214.621 244.9 214.045 244.9Z" fill="white"/>
<path d="M215.483 245.822H195.868C194.666 245.822 193.691 246.781 193.691 247.964V262.782C193.691 263.965 194.666 264.924 195.868 264.924H215.483C216.685 264.924 217.659 263.965 217.659 262.782V247.964C217.659 246.781 216.685 245.822 215.483 245.822ZM208.482 260.143C208.603 260.643 208.219 261.123 207.698 261.123H203.653C203.131 261.123 202.747 260.643 202.869 260.143L203.813 256.276C202.699 255.62 201.97 254.395 202.045 253.008C202.141 251.212 203.62 249.742 205.443 249.631C207.556 249.501 209.311 251.15 209.311 253.202C209.311 254.509 208.6 255.651 207.538 256.276L208.482 260.143Z" fill="white"/>
</g>
<path d="M264.299 92.3223C264.222 92.3223 264.144 92.3038 264.073 92.2644C263.847 92.1409 263.765 91.8611 263.891 91.6392C264.192 91.1066 264.483 90.5703 264.766 90.0304C264.884 89.805 265.166 89.7169 265.396 89.8327C265.625 89.949 265.715 90.2266 265.597 90.4525C265.309 91.0005 265.013 91.5448 264.708 92.0855C264.622 92.2369 264.463 92.3223 264.299 92.3223Z" fill="#91B3FA"/>
<path d="M209.642 123.988C209.366 123.988 209.091 123.986 208.815 123.983C208.557 123.979 208.351 123.771 208.354 123.517C208.358 123.265 208.566 123.063 208.821 123.063H208.828C210.036 123.079 211.257 123.059 212.463 123.005C212.704 122.989 212.939 123.19 212.951 123.444C212.963 123.698 212.763 123.913 212.505 123.924C211.556 123.967 210.593 123.988 209.642 123.988ZM202.881 123.629C202.864 123.629 202.847 123.628 202.83 123.627C201.609 123.496 200.379 123.33 199.174 123.131C198.919 123.089 198.748 122.851 198.79 122.601C198.833 122.351 199.075 122.18 199.328 122.224C200.516 122.42 201.728 122.584 202.93 122.712C203.187 122.739 203.372 122.966 203.344 123.219C203.318 123.455 203.116 123.629 202.881 123.629ZM218.411 123.383C218.181 123.383 217.981 123.217 217.948 122.987C217.912 122.736 218.09 122.503 218.346 122.467C219.542 122.302 220.748 122.099 221.93 121.864C222.181 121.815 222.43 121.976 222.481 122.225C222.531 122.473 222.368 122.716 222.115 122.766C220.914 123.004 219.69 123.21 218.476 123.378C218.454 123.381 218.432 123.383 218.411 123.383ZM193.435 121.896C193.395 121.896 193.354 121.891 193.314 121.88C192.13 121.569 190.941 121.219 189.778 120.841C189.533 120.761 189.4 120.501 189.482 120.26C189.562 120.019 189.825 119.889 190.072 119.968C191.217 120.34 192.389 120.685 193.555 120.992C193.805 121.058 193.953 121.31 193.886 121.555C193.83 121.761 193.642 121.896 193.435 121.896ZM227.795 121.346C227.594 121.346 227.409 121.218 227.348 121.019C227.273 120.776 227.413 120.52 227.66 120.446C228.817 120.101 229.977 119.717 231.108 119.307C231.349 119.22 231.618 119.342 231.708 119.58C231.797 119.819 231.673 120.083 231.431 120.171C230.283 120.587 229.105 120.976 227.931 121.326C227.886 121.34 227.84 121.346 227.795 121.346ZM184.37 118.76C184.307 118.76 184.243 118.747 184.182 118.721C183.059 118.234 181.938 117.708 180.851 117.158C180.621 117.042 180.531 116.765 180.649 116.539C180.767 116.314 181.048 116.224 181.278 116.34C182.349 116.881 183.453 117.399 184.559 117.879C184.795 117.982 184.902 118.253 184.798 118.485C184.721 118.657 184.55 118.76 184.37 118.76ZM236.749 117.911C236.575 117.911 236.408 117.816 236.327 117.651C236.216 117.422 236.313 117.148 236.546 117.037C237.633 116.522 238.719 115.967 239.775 115.388C240.002 115.265 240.285 115.345 240.411 115.567C240.536 115.788 240.455 116.069 240.229 116.192C239.158 116.78 238.055 117.343 236.951 117.866C236.886 117.897 236.817 117.911 236.749 117.911ZM175.907 114.288C175.821 114.288 175.733 114.265 175.655 114.215C174.624 113.564 173.599 112.874 172.609 112.165C172.401 112.016 172.355 111.728 172.507 111.523C172.659 111.317 172.951 111.272 173.159 111.421C174.134 112.12 175.143 112.799 176.16 113.441C176.377 113.578 176.44 113.862 176.301 114.076C176.211 114.213 176.061 114.288 175.907 114.288ZM245.058 113.157C244.909 113.157 244.763 113.088 244.673 112.959C244.526 112.75 244.579 112.463 244.792 112.319C245.786 111.644 246.773 110.931 247.725 110.2C247.928 110.044 248.222 110.08 248.381 110.28C248.539 110.48 248.503 110.769 248.3 110.926C247.333 111.667 246.332 112.391 245.323 113.076C245.242 113.131 245.149 113.157 245.058 113.157ZM168.247 108.585C168.137 108.585 168.027 108.547 167.938 108.47C167.023 107.673 166.117 106.837 165.246 105.984C165.064 105.805 165.063 105.514 165.245 105.334C165.427 105.154 165.722 105.153 165.905 105.332C166.763 106.172 167.656 106.996 168.557 107.781C168.75 107.949 168.768 108.24 168.597 108.43C168.505 108.533 168.376 108.585 168.247 108.585ZM252.532 107.205C252.408 107.205 252.285 107.156 252.192 107.061C252.015 106.876 252.024 106.585 252.212 106.41C253.091 105.594 253.956 104.743 254.784 103.88C254.961 103.696 255.257 103.688 255.444 103.861C255.632 104.036 255.641 104.327 255.464 104.511C254.624 105.387 253.745 106.251 252.853 107.079C252.763 107.163 252.647 107.205 252.532 107.205ZM161.557 101.795C161.422 101.795 161.29 101.738 161.197 101.629C160.414 100.704 159.647 99.7425 158.918 98.7714C158.765 98.5671 158.809 98.2792 159.016 98.1279C159.225 97.9769 159.517 98.0211 159.67 98.2245C160.388 99.1816 161.143 100.129 161.915 101.041C162.08 101.236 162.053 101.526 161.855 101.689C161.768 101.76 161.662 101.795 161.557 101.795ZM258.999 100.21C258.899 100.21 258.798 100.179 258.713 100.113C258.509 99.9576 258.473 99.6684 258.631 99.4682C259.375 98.5272 260.098 97.5558 260.78 96.5806C260.927 96.3714 261.218 96.3184 261.429 96.4621C261.642 96.6062 261.696 96.8928 261.55 97.1017C260.858 98.092 260.124 99.0783 259.368 100.033C259.276 100.149 259.138 100.21 258.999 100.21ZM155.99 94.0848C155.831 94.0848 155.676 94.0053 155.589 93.8616C154.955 92.8236 154.347 91.7574 153.782 90.6925C153.663 90.4675 153.751 90.1895 153.98 90.0718C154.208 89.9546 154.491 90.0412 154.611 90.2667C155.167 91.3155 155.766 92.3654 156.39 93.3881C156.523 93.6058 156.451 93.8884 156.23 94.0191C156.154 94.0636 156.071 94.0848 155.99 94.0848ZM151.694 85.6232C151.51 85.6232 151.335 85.5151 151.261 85.3362C150.799 84.2156 150.366 83.0699 149.974 81.931C149.891 81.6907 150.022 81.4293 150.267 81.3481C150.509 81.2668 150.776 81.3958 150.859 81.6365C151.245 82.7579 151.671 83.8861 152.127 84.9905C152.224 85.2259 152.109 85.4939 151.87 85.5896C151.812 85.6125 151.753 85.6232 151.694 85.6232Z" fill="#91B3FA"/>
<path d="M148.771 76.5862C148.559 76.5862 148.367 76.4435 148.317 76.2314C148.173 75.6295 148.039 75.0264 147.914 74.4219C147.862 74.1732 148.026 73.9301 148.278 73.8799C148.531 73.8296 148.778 73.989 148.829 74.2387C148.952 74.8344 149.085 75.4285 149.227 76.0213C149.285 76.2689 149.129 76.5163 148.878 76.5742C148.842 76.5821 148.807 76.5862 148.771 76.5862Z" fill="#91B3FA"/>
<path d="M156.693 29.6857C156.608 29.6857 156.522 29.6627 156.445 29.6146C156.227 29.4794 156.161 29.1951 156.299 28.9805C156.632 28.4595 156.974 27.9417 157.325 27.4283C157.469 27.2177 157.759 27.1607 157.973 27.3031C158.188 27.445 158.244 27.7307 158.1 27.9413C157.755 28.4474 157.418 28.9573 157.089 29.4711C157.001 29.6097 156.849 29.6857 156.693 29.6857Z" fill="#91B3FA"/>
<path d="M269.614 45.093C269.412 45.093 269.226 44.9632 269.166 44.7624C268.809 43.5636 268.409 42.3604 267.977 41.1855C267.89 40.947 268.015 40.6834 268.258 40.5968C268.5 40.5096 268.768 40.6341 268.856 40.873C269.294 42.065 269.7 43.2866 270.063 44.5038C270.135 44.7476 269.993 45.0032 269.746 45.0747C269.702 45.0871 269.658 45.093 269.614 45.093ZM265.994 35.8098C265.82 35.8098 265.653 35.7137 265.572 35.5493C265.021 34.4211 264.428 33.2975 263.81 32.2097C263.684 31.9882 263.764 31.708 263.989 31.5836C264.215 31.4605 264.5 31.539 264.625 31.7605C265.253 32.8644 265.855 34.0052 266.414 35.1504C266.526 35.3795 266.428 35.6544 266.196 35.7644C266.131 35.7955 266.062 35.8098 265.994 35.8098ZM260.891 27.2271C260.744 27.2271 260.599 27.1588 260.508 27.0308C259.781 26.0091 259.011 24.9945 258.22 24.0158C258.06 23.8169 258.093 23.5276 258.295 23.3695C258.497 23.2105 258.791 23.2443 258.951 23.4428C259.754 24.4367 260.536 25.4661 261.274 26.5036C261.422 26.7116 261.37 26.9982 261.159 27.1441C261.078 27.2001 260.984 27.2271 260.891 27.2271ZM161.461 23.2131C161.356 23.2131 161.25 23.1786 161.163 23.1071C160.964 22.945 160.937 22.6548 161.102 22.4595C161.922 21.4875 162.786 20.5241 163.67 19.5967C163.847 19.4112 164.142 19.4022 164.331 19.5761C164.519 19.7504 164.528 20.0413 164.352 20.2265C163.48 21.1404 162.628 22.0894 161.821 23.047C161.728 23.1566 161.595 23.2131 161.461 23.2131ZM254.453 19.564C254.331 19.564 254.209 19.5173 254.117 19.4244C253.237 18.5311 252.314 17.6504 251.373 16.8065C251.183 16.6353 251.169 16.3443 251.343 16.1566C251.517 15.9679 251.813 15.955 252.003 16.1265C252.958 16.9835 253.894 17.8772 254.788 18.784C254.968 18.9664 254.963 19.2574 254.778 19.4344C254.687 19.5209 254.57 19.564 254.453 19.564ZM168.515 16.0954C168.385 16.0954 168.256 16.042 168.163 15.9382C167.994 15.7468 168.013 15.4562 168.208 15.2891C169.18 14.4534 170.189 13.6373 171.208 12.8634C171.414 12.7089 171.706 12.7462 171.863 12.9464C172.021 13.1477 171.983 13.4364 171.779 13.5918C170.775 14.3539 169.781 15.1579 168.823 15.9816C168.734 16.0581 168.624 16.0954 168.515 16.0954ZM246.86 13.0108C246.763 13.0108 246.666 12.9811 246.582 12.9201C245.563 12.175 244.509 11.4523 243.446 10.7715C243.23 10.6331 243.168 10.348 243.309 10.135C243.45 9.92259 243.738 9.86193 243.956 10.0007C245.034 10.692 246.105 11.4254 247.139 12.1817C247.346 12.3331 247.389 12.6214 247.236 12.8253C247.144 12.9466 247.003 13.0108 246.86 13.0108ZM176.634 10.1727C176.478 10.1727 176.326 10.0959 176.237 9.95578C176.101 9.74022 176.168 9.45675 176.387 9.32247C177.48 8.65281 178.609 8.00692 179.744 7.40379C179.972 7.28207 180.255 7.36691 180.377 7.58972C180.5 7.81335 180.415 8.0923 180.188 8.21306C179.07 8.80731 177.957 9.44323 176.88 10.103C176.804 10.1503 176.718 10.1727 176.634 10.1727ZM238.291 7.75106C238.219 7.75106 238.146 7.73494 238.078 7.69983C236.951 7.12812 235.791 6.58332 234.629 6.08033C234.392 5.97842 234.285 5.70711 234.389 5.47447C234.492 5.24182 234.768 5.1354 235.005 5.23868C236.184 5.74891 237.362 6.30177 238.506 6.8825C238.735 6.99875 238.825 7.27634 238.707 7.50188C238.624 7.66035 238.461 7.75106 238.291 7.75106ZM185.617 5.619C185.434 5.619 185.26 5.51258 185.185 5.33567C185.086 5.10125 185.199 4.83227 185.437 4.73432C186.624 4.24881 187.845 3.79199 189.066 3.37793C189.311 3.29569 189.576 3.42233 189.66 3.66262C189.744 3.90292 189.615 4.1648 189.371 4.24745C188.168 4.65563 186.966 5.10521 185.796 5.58403C185.738 5.6078 185.676 5.619 185.617 5.619ZM228.97 3.92669C228.922 3.92669 228.873 3.91944 228.826 3.90428C227.62 3.51932 226.385 3.16632 225.155 2.85472C224.905 2.79133 224.755 2.54038 224.819 2.29462C224.883 2.04845 225.142 1.90078 225.388 1.96362C226.636 2.28028 227.89 2.6386 229.114 3.02944C229.359 3.10758 229.493 3.36714 229.414 3.6088C229.35 3.80319 229.167 3.92669 228.97 3.92669ZM195.229 2.56046C195.017 2.56046 194.825 2.4177 194.774 2.2061C194.716 1.95911 194.871 1.71116 195.122 1.65283C196.379 1.36131 197.658 1.1053 198.925 0.892056C199.186 0.85162 199.421 1.01733 199.465 1.26759C199.509 1.51827 199.338 1.75584 199.083 1.79846C197.835 2.0087 196.574 2.26101 195.336 2.54844C195.301 2.5565 195.265 2.56046 195.229 2.56046ZM219.143 1.63261C219.119 1.63261 219.095 1.63084 219.071 1.62715C217.817 1.43767 216.54 1.28453 215.276 1.17129C215.019 1.14834 214.83 0.924297 214.853 0.671434C214.877 0.418571 215.099 0.23128 215.361 0.255049C216.644 0.370074 217.94 0.525943 219.213 0.718152C219.468 0.756812 219.643 0.991234 219.604 1.24232C219.569 1.47005 219.369 1.63261 219.143 1.63261ZM205.217 1.06842C204.974 1.06842 204.769 0.882905 204.752 0.640834C204.733 0.387151 204.927 0.167481 205.185 0.149996C206.468 0.0610631 207.772 0.0107921 209.062 0H209.066C209.323 0 209.531 0.203411 209.534 0.455865C209.536 0.710094 209.328 0.917602 209.071 0.919788C207.799 0.93058 206.514 0.980033 205.251 1.06705C205.239 1.06801 205.228 1.06842 205.217 1.06842Z" fill="#91B3FA"/>
<path d="M271.392 52.9228C271.165 52.9228 270.966 52.7606 270.93 52.5338C270.835 51.9333 270.731 51.3337 270.617 50.7351C270.57 50.4854 270.737 50.2451 270.991 50.1984C271.243 50.1552 271.489 50.317 271.536 50.5663C271.651 51.1739 271.757 51.7825 271.854 52.392C271.894 52.6431 271.719 52.8785 271.464 52.9176C271.439 52.921 271.415 52.9228 271.392 52.9228Z" fill="#91B3FA"/>
<path d="M257.63 60.6183C257.655 60.3042 257.474 60.0089 257.181 59.8833L248.805 56.3018C248.158 52.1526 246.834 48.075 244.817 44.2382L249.439 36.4924C249.601 36.2207 249.57 35.8778 249.362 35.6384L242.242 27.4451C242.034 27.2056 241.694 27.1226 241.397 27.238L232.907 30.5331C229.368 27.9775 225.481 26.0583 221.417 24.7864L219.12 16.0865C219.039 15.7816 218.771 15.5605 218.452 15.5361L207.531 14.6985C207.212 14.6741 206.912 14.8515 206.785 15.1406L203.146 23.3852C198.931 24.0221 194.789 25.3253 190.891 27.3108L183.022 22.7611C182.746 22.6014 182.397 22.6317 182.154 22.8366L173.83 29.8456C173.587 30.0504 173.503 30.3845 173.62 30.6777L176.968 39.0347C174.371 42.5177 172.422 46.344 171.13 50.3446L162.291 52.6059C161.982 52.6852 161.757 52.9493 161.732 53.2632L160.881 64.0127C160.856 64.3269 161.037 64.622 161.33 64.7475L169.706 68.329C170.353 72.4782 171.677 76.5559 173.694 80.3927L169.072 88.1385C168.91 88.4101 168.94 88.7532 169.148 88.9925L176.269 97.186C176.477 97.4255 176.816 97.5084 177.114 97.3928L185.604 94.0977C189.142 96.6537 193.03 98.5727 197.094 99.8444L199.391 108.544C199.471 108.849 199.74 109.07 200.059 109.095L210.98 109.932C211.299 109.957 211.598 109.779 211.726 109.49L215.365 101.246C219.58 100.609 223.722 99.3056 227.62 97.32L235.489 101.87C235.765 102.029 236.114 101.999 236.357 101.794L244.68 94.7855C244.924 94.5808 245.008 94.2466 244.891 93.9534L241.543 85.5964C244.14 82.1134 246.089 78.2869 247.381 74.2865L256.22 72.0251C256.53 71.9459 256.754 71.682 256.779 71.3676L257.63 60.6183Z" fill="#91B3FA"/>
<path opacity="0.7" d="M209.234 72.582C207.095 72.5824 205.013 71.9343 203.232 70.6939C198.539 67.4247 197.423 61.0067 200.744 56.387C202.353 54.1489 204.751 52.662 207.497 52.1994C210.242 51.7382 213.006 52.3549 215.279 53.938C217.552 55.5221 219.063 57.8823 219.533 60.5842C220.003 63.2866 219.376 66.0074 217.767 68.2449C216.158 70.483 213.76 71.97 211.015 72.4326C210.42 72.5325 209.824 72.582 209.234 72.582ZM209.275 53.4294C208.763 53.4294 208.247 53.4726 207.733 53.5592C205.357 53.9593 203.281 55.2466 201.889 57.1837C199.014 61.1823 199.979 66.738 204.042 69.5676C206.01 70.9387 208.401 71.4719 210.779 71.0726C213.155 70.6725 215.23 69.3852 216.623 67.4481C218.015 65.511 218.559 63.1563 218.152 60.8171C217.745 58.4781 216.437 56.435 214.469 55.0642C212.927 53.9903 211.126 53.4294 209.275 53.4294Z" fill="white"/>
<path opacity="0.7" d="M209.066 89.0256C208.352 89.0256 207.634 88.9981 206.915 88.9429C199.689 88.3891 193.116 85.0983 188.405 79.6774C184.163 74.7968 181.889 68.7151 181.889 62.3603C181.889 61.6569 181.916 60.9509 181.973 60.2422C182.536 53.1302 185.878 46.6597 191.386 42.0224C196.892 37.3856 203.904 35.1368 211.13 35.691C218.355 36.2448 224.929 39.5356 229.639 44.9565C230.897 46.4036 231.998 47.9805 232.91 49.6427L231.677 50.2984C230.812 48.722 229.768 47.2264 228.574 45.8535C224.107 40.7123 217.873 37.5918 211.021 37.0662C204.169 36.5452 197.52 38.6737 192.297 43.0706C187.074 47.4684 183.904 53.6049 183.37 60.3494C183.317 61.0213 183.29 61.6909 183.29 62.358C183.29 68.3844 185.448 74.1521 189.47 78.7809C193.938 83.9216 200.171 87.0421 207.023 87.5675C213.88 88.0935 220.526 85.9606 225.748 81.5632C229.293 78.5783 231.944 74.7117 233.417 70.3817L234.746 70.8201C233.193 75.3868 230.396 79.4645 226.658 82.6115C221.7 86.7867 215.521 89.0256 209.066 89.0256Z" fill="white"/>
<path d="M317 107.419C316.919 107.419 316.837 107.398 316.762 107.355C316.54 107.226 316.467 106.943 316.599 106.725C316.912 106.203 317.213 105.67 317.49 105.14C317.609 104.914 317.89 104.826 318.12 104.942C318.349 105.058 318.439 105.336 318.321 105.562C318.035 106.108 317.726 106.656 317.402 107.194C317.315 107.339 317.16 107.419 317 107.419Z" fill="#91B3FA"/>
<path d="M286.846 122.811C286.833 122.811 286.821 122.811 286.809 122.81C285.542 122.711 284.268 122.539 283.025 122.297C282.772 122.248 282.607 122.006 282.657 121.757C282.707 121.508 282.954 121.345 283.206 121.395C284.414 121.63 285.651 121.797 286.882 121.893C287.139 121.913 287.331 122.134 287.311 122.387C287.292 122.628 287.087 122.811 286.846 122.811ZM292.957 122.714C292.722 122.714 292.519 122.54 292.492 122.305C292.464 122.052 292.649 121.825 292.905 121.796C294.135 121.661 295.365 121.453 296.562 121.179C296.811 121.119 297.065 121.275 297.123 121.523C297.182 121.771 297.025 122.017 296.774 122.075C295.541 122.358 294.275 122.571 293.009 122.711C292.991 122.713 292.974 122.714 292.957 122.714ZM277.258 120.583C277.199 120.583 277.14 120.573 277.082 120.55C275.907 120.08 274.748 119.535 273.634 118.932C273.408 118.809 273.326 118.529 273.45 118.307C273.575 118.085 273.858 118.004 274.085 118.126C275.166 118.712 276.293 119.241 277.434 119.697C277.673 119.793 277.788 120.061 277.691 120.297C277.617 120.475 277.442 120.583 277.258 120.583ZM302.463 120.171C302.284 120.171 302.114 120.069 302.036 119.899C301.931 119.666 302.037 119.395 302.272 119.291C303.399 118.796 304.507 118.229 305.565 117.607C305.786 117.476 306.073 117.547 306.206 117.766C306.338 117.984 306.266 118.266 306.045 118.396C304.955 119.037 303.813 119.621 302.654 120.131C302.592 120.158 302.527 120.171 302.463 120.171ZM268.817 115.593C268.711 115.593 268.605 115.558 268.518 115.486C267.546 114.688 266.61 113.822 265.734 112.913C265.556 112.728 265.564 112.437 265.751 112.262C265.939 112.088 266.235 112.095 266.412 112.279C267.263 113.163 268.173 114.004 269.116 114.78C269.314 114.942 269.341 115.233 269.175 115.427C269.083 115.536 268.951 115.593 268.817 115.593ZM310.731 114.899C310.603 114.899 310.475 114.847 310.383 114.746C310.211 114.556 310.228 114.265 310.42 114.096L310.695 113.852C311.517 113.114 312.307 112.327 313.044 111.512C313.215 111.321 313.51 111.304 313.703 111.474C313.896 111.643 313.913 111.933 313.742 112.123C312.984 112.962 312.171 113.773 311.325 114.532L311.043 114.783C310.953 114.861 310.842 114.899 310.731 114.899ZM262.303 108.32C262.149 108.32 261.998 108.245 261.909 108.108C261.224 107.056 260.596 105.953 260.041 104.827C259.928 104.598 260.025 104.323 260.257 104.213C260.491 104.102 260.769 104.197 260.882 104.425C261.421 105.518 262.031 106.59 262.696 107.612C262.835 107.826 262.772 108.11 262.554 108.247C262.476 108.297 262.389 108.32 262.303 108.32Z" fill="#91B3FA"/>
<path d="M258.328 99.4277C258.121 99.4277 257.932 99.2916 257.877 99.0855C257.716 98.4877 257.571 97.8765 257.445 97.2697C257.393 97.0209 257.556 96.7783 257.81 96.7276C258.062 96.6769 258.31 96.8372 258.36 97.0865C258.483 97.6757 258.624 98.269 258.78 98.8502C258.846 99.0955 258.697 99.3475 258.448 99.4125C258.408 99.4228 258.368 99.4277 258.328 99.4277Z" fill="#91B3FA"/>
<path d="M262.176 74.4689C262.09 74.4689 262.005 74.446 261.927 74.3979C261.709 74.2627 261.643 73.9789 261.781 73.7638C262.117 73.2392 262.472 72.7182 262.838 72.2148C262.988 72.0086 263.28 71.9605 263.489 72.1079C263.7 72.2558 263.748 72.5428 263.598 72.7493C263.243 73.2384 262.897 73.7447 262.571 74.2543C262.483 74.393 262.331 74.4689 262.176 74.4689Z" fill="#91B3FA"/>
<path d="M318.932 78.9419C318.75 78.9419 318.577 78.8369 318.501 78.6616C318.028 77.563 317.483 76.4797 316.882 75.4417C316.754 75.2213 316.832 74.9401 317.056 74.8143C317.28 74.6885 317.566 74.7658 317.694 74.9863C318.313 76.0553 318.874 77.1708 319.362 78.3022C319.463 78.5358 319.352 78.8062 319.114 78.9053C319.055 78.9302 318.993 78.9419 318.932 78.9419ZM313.834 70.8279C313.702 70.8279 313.57 70.7731 313.478 70.6663C313.24 70.3905 312.996 70.118 312.745 69.848C312.175 69.2331 311.574 68.6336 310.957 68.0658C310.768 67.8921 310.759 67.6009 310.935 67.4156C311.111 67.2296 311.407 67.2202 311.596 67.394C312.23 67.9783 312.849 68.5955 313.435 69.2282C313.693 69.5054 313.944 69.786 314.19 70.0699C314.356 70.2634 314.333 70.5536 314.137 70.7184C314.049 70.792 313.941 70.8279 313.834 70.8279ZM267.159 68.4691C267.035 68.4691 266.912 68.4215 266.82 68.3267C266.643 68.1426 266.649 67.8516 266.836 67.6764C267.025 67.4989 267.217 67.3229 267.41 67.1486C268.14 66.4929 268.908 65.8627 269.694 65.2757C269.899 65.1216 270.192 65.1607 270.348 65.3637C270.505 65.5657 270.465 65.8541 270.259 66.0078C269.496 66.5787 268.749 67.1908 268.04 67.8277C267.852 67.9975 267.665 68.1691 267.481 68.3419C267.39 68.4269 267.274 68.4691 267.159 68.4691ZM306.519 64.5689C306.433 64.5689 306.347 64.546 306.27 64.498C305.244 63.8598 304.17 63.2745 303.078 62.758C302.845 62.6481 302.747 62.3736 302.859 62.1445C302.97 61.9154 303.248 61.8175 303.482 61.9289C304.607 62.4608 305.713 63.0635 306.769 63.72C306.987 63.8561 307.052 64.14 306.914 64.3547C306.825 64.493 306.674 64.5689 306.519 64.5689ZM275.086 62.9803C274.914 62.9803 274.749 62.8868 274.667 62.7252C274.552 62.4975 274.647 62.2218 274.878 62.1086C275.994 61.5624 277.157 61.0742 278.335 60.6566C278.58 60.5712 278.846 60.6947 278.933 60.9337C279.021 61.1727 278.895 61.4363 278.652 61.5221C277.508 61.9277 276.378 62.402 275.294 62.9323C275.227 62.9651 275.156 62.9803 275.086 62.9803ZM297.64 60.754C297.601 60.754 297.56 60.7491 297.52 60.7387C296.348 60.4324 295.145 60.1898 293.944 60.0178C293.688 59.9814 293.511 59.7478 293.549 59.4968C293.586 59.2449 293.821 59.0647 294.078 59.1078C295.315 59.2847 296.553 59.5341 297.76 59.8493C298.009 59.9145 298.158 60.1664 298.092 60.412C298.036 60.6179 297.847 60.754 297.64 60.754ZM284.318 60.0812C284.093 60.0812 283.894 59.9196 283.858 59.6932C283.817 59.4421 283.991 59.2067 284.246 59.1673C285.476 58.9755 286.735 58.852 287.985 58.7999C288.244 58.7946 288.461 58.9858 288.472 59.2401C288.483 59.4937 288.282 59.7081 288.025 59.7189C286.81 59.7692 285.587 59.8895 284.392 60.0754C284.367 60.0794 284.343 60.0812 284.318 60.0812Z" fill="#91B3FA"/>
<path d="M321.095 86.4049C320.868 86.4049 320.67 86.2427 320.634 86.0159C320.54 85.4217 320.426 84.8226 320.298 84.2347C320.243 83.9863 320.404 83.7415 320.656 83.6881C320.912 83.6347 321.157 83.7927 321.211 84.0407C321.344 84.6456 321.46 85.2628 321.557 85.874C321.597 86.1251 321.422 86.3603 321.167 86.3995C321.143 86.4031 321.119 86.4049 321.095 86.4049Z" fill="#91B3FA"/>
<path d="M314.027 90.1339C314.04 89.9726 313.947 89.8209 313.796 89.7565L309.494 87.9168C309.161 85.7854 308.481 83.6908 307.445 81.7199L309.82 77.741C309.903 77.6016 309.887 77.4253 309.78 77.3023L306.123 73.0935C306.016 72.9705 305.841 72.9279 305.688 72.9872L301.327 74.6799C299.51 73.3671 297.513 72.3812 295.425 71.7279L294.245 67.2589C294.204 67.1023 294.066 66.9888 293.902 66.9763L288.292 66.5461C288.128 66.5335 287.974 66.6246 287.909 66.7731L286.04 71.0081C283.874 71.3353 281.747 72.0047 279.744 73.0248L275.702 70.6875C275.561 70.6054 275.382 70.6211 275.257 70.7263L270.981 74.3268C270.856 74.432 270.813 74.6035 270.873 74.7542L272.593 79.047C271.259 80.8362 270.257 82.8017 269.594 84.8567L265.054 86.0183C264.895 86.059 264.779 86.1947 264.766 86.356L264.329 91.8779C264.316 92.0392 264.409 92.1908 264.56 92.2553L268.862 94.095C269.195 96.2264 269.875 98.321 270.911 100.292L268.537 104.271C268.453 104.41 268.469 104.586 268.576 104.709L272.234 108.918C272.34 109.041 272.515 109.084 272.668 109.025L277.029 107.332C278.847 108.645 280.843 109.631 282.931 110.284L284.111 114.753C284.153 114.909 284.291 115.023 284.454 115.036L290.064 115.466C290.228 115.478 290.382 115.387 290.447 115.239L292.316 111.004C294.482 110.677 296.61 110.007 298.612 108.987L302.654 111.324C302.796 111.406 302.975 111.391 303.1 111.286L307.375 107.685C307.5 107.58 307.544 107.408 307.483 107.258L305.764 102.965C307.097 101.176 308.099 99.2104 308.763 97.1553L313.303 95.9938C313.462 95.9531 313.577 95.8175 313.59 95.6561L314.027 90.1339Z" fill="#91B3FA"/>
<path opacity="0.7" d="M289.165 96.6154C287.997 96.6154 286.859 96.2615 285.887 95.5838C283.322 93.7976 282.713 90.2908 284.527 87.7667C285.406 86.5438 286.717 85.7313 288.216 85.4788C289.716 85.2259 291.227 85.5636 292.468 86.4288C293.711 87.2942 294.536 88.5836 294.793 90.06C295.049 91.5367 294.707 93.0233 293.827 94.2458C292.948 95.4687 291.638 96.2813 290.138 96.5336C289.813 96.5885 289.488 96.6154 289.165 96.6154ZM289.183 86.7795C287.835 86.7795 286.507 87.4006 285.671 88.5634C284.303 90.4668 284.763 93.1109 286.696 94.4573C287.633 95.1099 288.774 95.3645 289.902 95.1737C291.033 94.9832 292.021 94.3707 292.683 93.449C293.346 92.5269 293.604 91.4059 293.411 90.2929C293.217 89.1795 292.595 88.2072 291.659 87.555C290.907 87.031 290.041 86.7795 289.183 86.7795Z" fill="white"/>
<path opacity="0.7" d="M289.082 105.062C288.706 105.062 288.328 105.048 287.949 105.018C284.147 104.727 280.688 102.995 278.209 100.142C275.911 97.4987 274.787 94.2496 274.787 91.016C274.787 87.0479 276.481 83.1024 279.777 80.3267C285.759 75.2885 294.79 75.9813 299.908 81.8708C299.948 81.9166 299.988 81.9633 300.027 82.0096C300.582 82.6653 301.076 83.3687 301.499 84.1057C301.501 84.1089 301.503 84.1116 301.504 84.1143C301.51 84.1255 301.517 84.1363 301.523 84.1471C301.534 84.1664 301.545 84.1858 301.556 84.2046C301.561 84.2154 301.567 84.2262 301.573 84.2365C301.592 84.2697 301.61 84.3034 301.629 84.3366L300.396 84.9923C299.963 84.2037 299.44 83.4555 298.843 82.7674C295.575 79.0072 290.538 77.5974 285.961 78.7055C284.074 79.1627 282.264 80.0487 280.688 81.3751C277.715 83.8786 276.188 87.4365 276.188 91.0151C276.188 93.9313 277.201 96.8615 279.273 99.2458C283.889 104.556 292.033 105.181 297.428 100.638C299.202 99.1447 300.529 97.21 301.266 95.0429L302.595 95.4813C301.778 97.8851 300.306 100.031 298.339 101.686C295.73 103.883 292.479 105.062 289.082 105.062Z" fill="white"/>
<path d="M241.161 150.479C242.313 149.417 243.87 148.889 245.442 149.028C262.259 150.517 293.635 142.544 314.141 121.891C315.565 120.457 318.16 121.267 319.792 122.468C342.598 139.246 380.4 142.72 393.523 143.43C396.238 143.577 398.44 145.65 398.721 148.312C410.655 261.772 335.607 302.886 320.042 310.143C318.341 310.936 316.338 310.821 314.739 309.841C237.164 262.277 240.483 200.422 239.41 154.59C239.373 153.037 240.009 151.541 241.161 150.479Z" fill="url(#paint3_linear_4245_710)"/>
<path opacity="0.61" d="M317.942 301.902C317.596 301.902 317.249 301.806 316.948 301.617C287.207 282.903 267.824 260.53 257.689 233.22C248.637 208.829 248.195 183.992 247.803 162.079L247.75 159.158C247.741 158.67 247.927 158.21 248.274 157.863C248.624 157.512 249.092 157.319 249.594 157.319H249.595C268.013 157.319 295.657 149.314 315.933 131.43C316.556 130.881 317.477 130.815 318.175 131.271C340.454 145.821 372.232 150.058 389.193 151.289C390.095 151.355 390.807 152.047 390.886 152.936C394.829 197.206 385.474 234.641 363.083 264.202C346.359 286.279 326.529 297.783 318.779 301.704C318.517 301.836 318.23 301.902 317.942 301.902ZM318.434 301.043C326.137 297.145 345.849 285.711 362.477 263.758C384.754 234.348 394.06 197.084 390.134 153.001C390.087 152.477 389.668 152.069 389.137 152.03C372.103 150.794 340.179 146.535 317.758 131.89C317.347 131.621 316.804 131.66 316.437 131.984C296.013 149.999 268.157 158.063 249.61 158.063H249.61C249.297 158.063 249.019 158.177 248.813 158.384C248.609 158.587 248.5 158.857 248.506 159.144L248.559 162.065C248.948 183.921 249.391 208.691 258.398 232.965C268.474 260.116 287.759 282.367 317.355 300.99C317.679 301.194 318.093 301.215 318.434 301.043Z" fill="white"/>
<path opacity="0.61" d="M345.061 193.309H341.553C339.811 193.309 338.399 191.919 338.399 190.204V178.401C338.399 174.177 334.919 170.752 330.627 170.752H308.89C304.598 170.752 301.119 174.177 301.119 178.401V190.204C301.119 191.919 299.707 193.309 297.965 193.309H294.457C292.715 193.309 291.303 191.919 291.303 190.204V178.401C291.303 168.84 299.177 161.089 308.89 161.089H330.627C340.34 161.089 348.215 168.84 348.215 178.401V190.204C348.215 191.919 346.802 193.309 345.061 193.309Z" fill="white"/>
<path opacity="0.61" d="M349.409 196.095H290.109C286.475 196.095 283.529 198.994 283.529 202.571V247.369C283.529 250.946 286.475 253.846 290.109 253.846H349.409C353.043 253.846 355.988 250.946 355.988 247.369V202.571C355.988 198.994 353.043 196.095 349.409 196.095ZM328.243 239.392C328.612 240.901 327.45 242.352 325.873 242.352H313.645C312.068 242.352 310.906 240.901 311.274 239.392L314.128 227.7C310.76 225.718 308.558 222.014 308.783 217.821C309.074 212.392 313.544 207.947 319.057 207.61C325.446 207.219 330.751 212.204 330.751 218.408C330.751 222.358 328.6 225.811 325.39 227.7L328.243 239.392Z" fill="white"/>
<path d="M49.3905 185.375C49.3905 185.375 54.1933 185.625 54.7823 195.351C54.7823 195.351 43.6453 205.178 28.6016 207.517C27.4721 207.693 30.1805 199.929 30.5875 198.877C32.5248 193.872 38.6257 190.649 49.3905 185.375Z" fill="url(#paint4_linear_4245_710)"/>
<path d="M103.479 173.938H93.344C93.344 173.938 62.2366 140.121 41.834 136.709C41.834 136.709 27.6318 154.554 42.5904 187.897C43.7938 190.579 47.1592 191.771 49.6697 190.193C50.4205 189.721 50.9596 189.088 51.2871 188.295L50.0843 159.825C50.0843 159.825 76.6191 182.67 81.2313 187.078C85.8435 191.487 109.288 188.799 103.479 173.938Z" fill="#7D97F4"/>
<path d="M5.495 244.94C9.74213 241.277 16.5092 237.166 26.2785 235.987L29.5823 237.977C29.5823 237.977 27.4755 241.035 23.6268 244.267C20.0897 246.289 14.6277 249.028 10.0994 249.622C5.69693 250.199 5.04771 247.58 5.495 244.94Z" fill="url(#paint5_linear_4245_710)"/>
<path d="M30.5865 198.877C33.203 199.71 34.3539 203.359 40.9931 200.946C47.4166 198.612 52.1916 195.601 54.6483 193.865C54.7031 194.335 54.7493 194.827 54.7811 195.351C54.7811 195.351 43.0384 206.345 27.9946 208.684C26.8652 208.86 25.9701 207.75 26.3774 206.698C27.1078 204.811 28.425 201.949 30.5865 198.877Z" fill="#91B3FA"/>
<path d="M2.29496 248.068C3.13223 247.131 4.20085 246.055 5.49457 244.94C5.04714 247.58 5.69649 250.198 10.0991 249.621C14.6272 249.028 20.0892 246.288 23.6265 244.266C19.1931 247.988 12.4477 251.938 3.93383 251.706C2.04266 251.655 1.04537 249.466 2.29496 248.068Z" fill="#91B3FA"/>
<path d="M103.11 181.157L55.6478 181.663C55.6478 181.663 28.5435 203.736 23.6271 237.395C23.6271 237.395 22.8111 239.871 27.7105 240.295C27.7105 240.295 44.0975 229.759 54.7826 211.133C67.8841 188.295 93.8399 198.575 93.8399 198.575C106.31 201.284 116.235 200.276 123.498 189.274L103.11 181.157Z" fill="#7D97F4"/>
<path d="M101.988 143.522C101.988 143.522 96.8786 168.728 71.8442 178.699L62.9392 177.666L60.8379 180.964L81.7263 181.619C81.7263 181.619 99.5815 174.658 109.042 155.689C109.354 155.062 114.564 144.474 101.988 143.522Z" fill="url(#paint6_linear_4245_710)"/>
<path d="M99.2502 180.745C99.2502 180.745 105.06 165.198 106.309 150.092C106.309 150.092 102.058 146.496 99.4016 144.945C98.5413 144.442 98.2164 143.38 98.6513 142.493C100.605 138.51 112.417 122.87 113.302 122.653C118.112 121.471 137.837 112.239 151.729 130.944C157.691 138.972 150.546 163.683 123.497 189.274C114.793 190.669 106.656 188.2 99.2502 180.745Z" fill="url(#paint7_linear_4245_710)"/>
<path d="M121.638 153.499C121.638 153.499 105.496 172.313 84.857 175.063C84.857 175.063 79.5232 170.277 75.557 171.986C71.5908 173.695 66.1523 181.238 66.1523 181.238H92.6521C92.6521 181.238 117.709 180.369 130.229 165.412C129.222 160.179 126.205 157.053 121.638 153.499Z" fill="url(#paint8_linear_4245_710)"/>
<path d="M131.055 109.456L134.587 121.052C134.749 121.583 134.549 122.159 134.084 122.472C132.384 123.618 127.939 125.898 121.843 123.683C121.145 123.429 120.667 122.788 120.607 122.059L119.77 111.957L131.055 109.456Z" fill="url(#paint9_linear_4245_710)"/>
<path d="M110.375 100.066C110.375 100.066 112.112 112.086 116.803 115.782C121.493 119.479 130.633 116.696 133.72 107.634L127.569 92.1396L110.375 100.066Z" fill="url(#paint10_linear_4245_710)"/>
<path d="M128.261 102.166C127.904 102.279 127.531 102.054 127.475 101.689C127.306 100.58 126.883 98.3837 126.027 96.8878C126.027 96.8878 126.475 95.3108 121.978 97.6931C117.482 100.075 110.728 103.575 106.751 101.491C102.875 99.4593 98.9477 89.234 109.193 91.1285C109.583 91.2007 109.942 90.8949 109.913 90.5054C109.787 88.8249 109.956 84.9586 113.934 83.7176C117.656 82.5563 119.694 84.2102 120.533 85.2086C120.78 85.5023 121.239 85.4964 121.474 85.1937C122.589 83.7608 125.617 80.711 130.075 82.6447C133.747 84.2376 134.318 86.4636 134.257 87.8509C134.238 88.3003 134.701 88.605 135.116 88.4167C136.241 87.9069 138.049 87.642 139.782 89.779C142.177 92.7331 138.754 95.295 137.728 95.9667C137.559 96.0768 137.455 96.2592 137.453 96.4581C137.444 97.9944 137.201 104.696 133.789 108.476C133.493 108.804 132.947 108.707 132.775 108.304L130.148 102.142C130.026 101.856 129.701 101.709 129.401 101.804L128.261 102.166Z" fill="url(#paint11_linear_4245_710)"/>
<path d="M128.207 103.417C128.207 103.417 129.811 96.9845 132.248 99.0729C134.686 101.161 131.613 105.758 128.821 106.634L128.207 103.417Z" fill="url(#paint12_linear_4245_710)"/>
<path d="M67.4868 182.698L55.5885 143.64C55.1032 142.046 53.665 140.916 51.9791 140.802L35.9147 139.72C34.2818 139.61 33.0672 141.18 33.6094 142.701L46.9107 180.001C47.3392 181.203 48.4352 182.052 49.7224 182.18L65.5415 183.909L67.4868 182.698Z" fill="url(#paint13_linear_4245_710)"/>
<path d="M45.543 156.877C46.4313 158.642 47.9654 159.676 48.9695 159.187C49.9736 158.697 50.0674 156.869 49.179 155.104C48.2907 153.339 46.7567 152.305 45.7527 152.795C44.7486 153.285 44.6546 155.112 45.543 156.877Z" fill="#91B3FA"/>
<path d="M65.5427 183.909C65.5686 183.909 65.5944 183.909 65.6203 183.907L99.3274 182.23C100.161 182.189 100.802 181.49 100.76 180.67C100.718 179.85 100.005 179.205 99.1748 179.26L65.4677 180.937C64.6344 180.978 63.9931 181.677 64.0352 182.497C64.0761 183.292 64.7434 183.909 65.5427 183.909Z" fill="url(#paint14_linear_4245_710)"/>
<path d="M106.308 150.322C106.179 150.322 106.075 150.219 106.074 150.093C106.051 143.089 108.789 133.819 108.817 133.726C108.853 133.605 108.982 133.535 109.106 133.57C109.23 133.606 109.301 133.734 109.265 133.856C109.237 133.948 106.518 143.155 106.542 150.091C106.542 150.218 106.438 150.322 106.309 150.322H106.308Z" fill="url(#paint15_linear_4245_710)"/>
<path d="M121.638 153.729C121.587 153.729 121.536 153.713 121.493 153.679C121.392 153.601 121.375 153.456 121.454 153.356C121.528 153.264 128.855 144.096 131.362 137.841C131.41 137.723 131.544 137.663 131.666 137.712C131.786 137.759 131.844 137.892 131.797 138.01C129.264 144.328 121.895 153.549 121.821 153.641C121.775 153.699 121.707 153.729 121.638 153.729Z" fill="url(#paint16_linear_4245_710)"/>
<path d="M132.024 167.826L130.691 165.97C130.617 165.866 130.642 165.723 130.747 165.649C130.852 165.575 130.998 165.601 131.073 165.704L132.187 167.256C142.583 162.769 149.02 150.527 149.084 150.403C149.142 150.29 149.282 150.244 149.398 150.303C149.513 150.36 149.558 150.499 149.5 150.612C149.435 150.738 142.853 163.262 132.198 167.752L132.024 167.826Z" fill="url(#paint17_linear_4245_710)"/>
<defs>
<linearGradient id="paint0_linear_4245_710" x1="414.04" y1="338.845" x2="171.551" y2="92.1304" gradientUnits="userSpaceOnUse">
<stop stop-color="#DAE3FE"/>
<stop offset="1" stop-color="#E9EFFD"/>
</linearGradient>
<linearGradient id="paint1_linear_4245_710" x1="188.564" y1="340.946" x2="140.204" y2="193.558" gradientUnits="userSpaceOnUse">
<stop stop-color="#09005D"/>
<stop offset="1" stop-color="#1A0F91"/>
</linearGradient>
<linearGradient id="paint2_linear_4245_710" x1="72.7974" y1="332.165" x2="293.944" y2="386.813" gradientUnits="userSpaceOnUse">
<stop stop-color="#09005D"/>
<stop offset="1" stop-color="#1A0F91"/>
</linearGradient>
<linearGradient id="paint3_linear_4245_710" x1="487.847" y1="35.2998" x2="424.368" y2="98.3857" gradientUnits="userSpaceOnUse">
<stop stop-color="#FF928E"/>
<stop offset="1" stop-color="#FE7062"/>
</linearGradient>
<linearGradient id="paint4_linear_4245_710" x1="44.5374" y1="194.619" x2="27.4125" y2="212.79" gradientUnits="userSpaceOnUse">
<stop stop-color="#09005D"/>
<stop offset="1" stop-color="#1A0F91"/>
</linearGradient>
<linearGradient id="paint5_linear_4245_710" x1="21.4404" y1="239.55" x2="-11.1282" y2="263.834" gradientUnits="userSpaceOnUse">
<stop stop-color="#09005D"/>
<stop offset="1" stop-color="#1A0F91"/>
</linearGradient>
<linearGradient id="paint6_linear_4245_710" x1="74.6485" y1="151.615" x2="96.5952" y2="178.128" gradientUnits="userSpaceOnUse">
<stop stop-color="#FEBBBA"/>
<stop offset="1" stop-color="#FF928E"/>
</linearGradient>
<linearGradient id="paint7_linear_4245_710" x1="185.512" y1="87.1948" x2="119.336" y2="157.224" gradientUnits="userSpaceOnUse">
<stop stop-color="#FF928E"/>
<stop offset="1" stop-color="#FE7062"/>
</linearGradient>
<linearGradient id="paint8_linear_4245_710" x1="100.72" y1="175.428" x2="56.9423" y2="114.586" gradientUnits="userSpaceOnUse">
<stop stop-color="#FEBBBA"/>
<stop offset="1" stop-color="#FF928E"/>
</linearGradient>
<linearGradient id="paint9_linear_4245_710" x1="128.059" y1="125.554" x2="126.463" y2="110.965" gradientUnits="userSpaceOnUse">
<stop stop-color="#FEBBBA"/>
<stop offset="1" stop-color="#FF928E"/>
</linearGradient>
<linearGradient id="paint10_linear_4245_710" x1="119.28" y1="112.833" x2="126.329" y2="89.2141" gradientUnits="userSpaceOnUse">
<stop stop-color="#FEBBBA"/>
<stop offset="1" stop-color="#FF928E"/>
</linearGradient>
<linearGradient id="paint11_linear_4245_710" x1="125.827" y1="69.5781" x2="119.285" y2="107.488" gradientUnits="userSpaceOnUse">
<stop stop-color="#09005D"/>
<stop offset="1" stop-color="#1A0F91"/>
</linearGradient>
<linearGradient id="paint12_linear_4245_710" x1="126.796" y1="115.076" x2="133.845" y2="91.4569" gradientUnits="userSpaceOnUse">
<stop stop-color="#FEBBBA"/>
<stop offset="1" stop-color="#FF928E"/>
</linearGradient>
<linearGradient id="paint13_linear_4245_710" x1="67.4869" y1="161.812" x2="33.4786" y2="161.812" gradientUnits="userSpaceOnUse">
<stop stop-color="#09005D"/>
<stop offset="1" stop-color="#1A0F91"/>
</linearGradient>
<linearGradient id="paint14_linear_4245_710" x1="63.3603" y1="176.445" x2="90.4928" y2="184" gradientUnits="userSpaceOnUse">
<stop stop-color="#09005D"/>
<stop offset="1" stop-color="#1A0F91"/>
</linearGradient>
<linearGradient id="paint15_linear_4245_710" x1="113.696" y1="50.1126" x2="103.51" y2="209.483" gradientUnits="userSpaceOnUse">
<stop stop-color="#E1473D"/>
<stop offset="1" stop-color="#E9605A"/>
</linearGradient>
<linearGradient id="paint16_linear_4245_710" x1="132.835" y1="51.3361" x2="122.648" y2="210.707" gradientUnits="userSpaceOnUse">
<stop stop-color="#E1473D"/>
<stop offset="1" stop-color="#E9605A"/>
</linearGradient>
<linearGradient id="paint17_linear_4245_710" x1="147.075" y1="52.2461" x2="136.888" y2="211.617" gradientUnits="userSpaceOnUse">
<stop stop-color="#E1473D"/>
<stop offset="1" stop-color="#E9605A"/>
</linearGradient>
</defs>
</svg>
