<svg width="400" height="330" viewBox="0 0 400 330" fill="none" xmlns="http://www.w3.org/2000/svg">
<g opacity="0.2">
<path d="M399.971 251.188H30.5197C8.09066 242.565 2.53261 162.602 61.7327 158.336C120.872 154.085 40.0305 60.9123 124.537 48.6808C209.059 36.4341 242.286 193.41 321.401 161.027C343.164 152.128 363.276 153.183 378.117 171.424C400.198 198.593 399.971 251.188 399.971 251.188Z" fill="#ABC7F2"/>
</g>
<g opacity="0.6">
<path d="M361.819 50.2729C361.773 51.1527 361.704 52.0325 361.613 52.9123C361.613 53.005 361.59 53.0744 361.59 53.167C361.268 55.8528 360.695 58.4923 359.823 61.016C359.8 61.1086 359.754 61.2012 359.731 61.2938C355.922 72.0601 346.698 80.7425 329.396 82.2243C324.807 82.618 321.755 85.1185 319.139 88.7767C319.093 88.8462 319.024 88.9388 318.978 89.0083C314.596 95.3059 311.406 104.868 303.972 113.064C303.903 113.157 303.811 113.25 303.742 113.319C293.76 124.132 276.252 132.421 238.506 127.419C238.368 127.396 238.253 127.396 238.116 127.373C238.116 127.373 238.024 127.211 237.886 126.91C235.431 122.002 214.986 79.145 233.985 55.1351C248.212 37.145 259.135 38.812 267.831 33.7415C267.9 33.6952 267.969 33.6489 268.061 33.6025C271.594 31.4956 274.761 28.231 277.629 22.0028C286.441 2.8782 306.22 1.46585 320.424 6.58271C320.493 6.60587 320.585 6.62902 320.654 6.67533C322.397 7.32362 324.073 8.06452 325.61 8.87489C339.699 16.3765 371.204 -5.15598 385.11 11.1439C398.969 27.4901 362.599 34.9223 361.819 50.2729Z" fill="#CFE6FF"/>
<path d="M385.108 12.4638C383.984 12.649 382.882 12.8574 381.781 13.0889C374.232 14.5938 366.797 16.7008 359.523 19.2708C359.431 19.294 359.362 19.3171 359.271 19.3634C354.934 20.8915 350.643 22.5817 346.421 24.3877C331.345 30.8474 316.981 39.0668 303.787 48.8375C300.138 51.5464 296.604 54.348 293.185 57.2884C293.139 57.3347 293.094 57.3579 293.048 57.4042C291.005 59.1638 289.009 60.9466 287.036 62.7757C286.967 62.8452 286.898 62.8915 286.852 62.961C280.358 69.0271 274.278 75.5332 268.633 82.456C267.99 83.2432 267.325 84.0536 266.682 84.8639C266.636 84.9334 266.591 85.0028 266.522 85.0492C259.271 94.1484 252.57 103.711 246.467 113.667C246.421 113.736 246.375 113.805 246.329 113.875C244.929 116.144 243.575 118.459 242.245 120.775C240.983 122.974 239.72 125.22 238.504 127.489C238.367 127.466 238.252 127.466 238.114 127.443C238.114 127.443 238.022 127.281 237.885 126.98C239.881 123.275 241.969 119.663 244.103 116.098C247.453 110.495 251.01 104.984 254.727 99.5894C254.773 99.5199 254.819 99.4505 254.888 99.3579C260.074 91.8794 265.627 84.6556 271.547 77.7327C272.534 76.5751 273.543 75.4406 274.553 74.3061C274.599 74.2366 274.668 74.1903 274.714 74.1208C283.181 64.7438 292.566 56.2465 302.662 48.7217C302.731 48.6754 302.8 48.6291 302.869 48.5597C304.727 47.1705 306.632 45.8044 308.559 44.4615C308.995 44.1605 309.408 43.8595 309.844 43.5817C309.913 43.5354 310.005 43.4659 310.074 43.4196C320.216 36.52 330.932 30.5001 342.084 25.4527C342.153 25.4064 342.245 25.3833 342.313 25.3369C345.159 24.0404 348.027 22.8364 350.941 21.6787C361.909 17.3028 373.314 13.714 384.971 11.7228C385.452 11.6071 385.59 12.3711 385.108 12.4638Z" fill="#B3D6F9"/>
<path d="M243.369 46.0128C239.239 64.8827 247.316 83.2432 254.957 100.029C255.026 100.168 255.232 100.076 255.164 99.9367C247.545 83.1737 239.468 64.8827 243.599 46.0359C243.622 45.897 243.392 45.8738 243.369 46.0128Z" fill="#B3D6F9"/>
<path d="M266.178 84.8637C278.822 90.9762 293.714 91.7171 307.459 90.5594C311.36 90.2353 315.238 89.7028 319.093 89.0082C319.23 88.985 319.207 88.7535 319.047 88.7766C305.302 91.3003 290.639 91.8097 276.963 88.4525C273.269 87.5495 269.666 86.2992 266.247 84.6553C266.133 84.5627 266.041 84.7943 266.178 84.8637Z" fill="#B3D6F9"/>
<path d="M320.515 6.42082C313.264 17.3955 310.029 30.8475 309.822 43.9291C309.822 44.0912 310.052 44.1143 310.052 43.9522C310.235 30.8938 313.471 17.5112 320.699 6.55974C320.791 6.42082 320.607 6.2819 320.515 6.42082Z" fill="#B3D6F9"/>
<path d="M312.368 4.75406C308.398 11.6769 305.393 19.1554 303.488 26.9349C301.721 34.1587 300.551 41.7529 302.754 49.0231C302.8 49.162 303.029 49.1388 302.983 48.9768C300.757 41.614 301.996 33.904 303.809 26.6107C305.714 19.0165 308.674 11.7 312.552 4.91613C312.644 4.77722 312.46 4.6383 312.368 4.75406Z" fill="#B3D6F9"/>
<path d="M286.624 62.8448C304.751 70.3002 325.357 71.4578 344.288 66.7114C349.611 65.3685 354.82 63.5626 359.8 61.2473C359.937 61.1778 359.845 60.9694 359.708 61.0389C342.016 69.2351 321.617 71.2958 302.571 67.4523C297.133 66.3641 291.81 64.7434 286.693 62.6365C286.578 62.567 286.486 62.7985 286.624 62.8448Z" fill="#B3D6F9"/>
<path d="M293.093 57.497C310.441 63.4474 329.647 63.0538 347.224 58.2611C352.157 56.9182 356.976 55.2049 361.657 53.1442C361.795 53.0748 361.703 52.8664 361.565 52.9359C344.952 60.2754 326.136 63.3085 308.123 60.808C303.052 60.1134 298.05 58.9325 293.185 57.2655C293.025 57.2192 292.956 57.4507 293.093 57.497Z" fill="#B3D6F9"/>
<path d="M346.261 8.85214C343.071 13.7375 341.878 20.012 342.108 25.8003C342.108 25.9624 342.337 25.9161 342.337 25.754C342.108 20.0352 343.301 13.8301 346.444 8.99106C346.536 8.8753 346.353 8.73638 346.261 8.85214Z" fill="#B3D6F9"/>
<path d="M358.927 19.0395C365.192 24.9436 373.613 28.185 382.172 27.9535C382.333 27.9535 382.356 27.722 382.195 27.722C373.682 27.9535 365.306 24.7583 359.111 18.8774C359.019 18.7848 358.836 18.9237 358.927 19.0395Z" fill="#B3D6F9"/>
<path d="M267.808 33.7186C268.359 40.9887 268.405 48.282 268.841 55.5521C269.231 62.1507 270.677 68.842 274.577 74.3062C274.669 74.422 274.853 74.2831 274.761 74.1441C270.699 68.4716 269.369 61.4793 269.024 54.6259C268.68 47.6337 268.565 40.6414 268.038 33.6491C268.015 33.5333 267.785 33.5797 267.808 33.7186Z" fill="#B3D6F9"/>
<path d="M303.835 113.041C289.378 118.112 273.247 117.834 258.263 115.773C254.156 115.195 250.049 114.454 246.01 113.528C245.872 113.504 245.849 113.736 245.987 113.759C260.925 117.139 276.758 118.575 291.948 116.213C296.033 115.588 300.048 114.616 303.949 113.25C304.087 113.203 303.995 112.995 303.835 113.041Z" fill="#B3D6F9"/>
</g>
<path d="M357.933 268.577C357.383 270.869 356.97 271.98 356.97 272.003C355.088 277.907 353.023 280.894 353.023 281.056C352.977 281.149 352.908 281.265 352.862 281.357C345.772 293.42 332.67 301.732 311.49 299.44C305.845 298.838 301.623 301.13 297.631 304.927C290.494 311.92 285.079 321.69 274.914 329.701C225.832 329.655 205.754 329.609 190.311 329.609C187.167 317.268 176.405 267.072 202.748 244.382C224.409 225.743 237.534 230.698 248.755 226.461C253.505 224.748 258.071 221.552 262.959 214.722C278.011 193.769 302.151 196.686 318.076 206.225C318.19 206.225 321.265 208.147 323.789 210.207C339.026 222.571 381.958 204.002 394.969 226.924C407.956 249.869 362.408 250.286 357.933 268.577Z" fill="#BEDEFF"/>
<path d="M394.717 201.729C393.341 201.705 391.941 201.682 390.564 201.682C381.133 201.705 371.679 202.516 362.317 203.882C362.202 203.905 362.111 203.905 361.996 203.928C356.397 204.762 350.844 205.78 345.337 206.961C325.672 211.198 306.489 217.704 288.315 226.387C283.313 228.772 278.403 231.342 273.584 234.074C273.515 234.097 273.469 234.143 273.4 234.166C270.532 235.787 267.71 237.477 264.933 239.214C264.841 239.26 264.75 239.329 264.658 239.376C255.433 245.141 246.599 251.554 238.178 258.57C237.214 259.38 236.25 260.191 235.287 261.001C235.218 261.07 235.126 261.14 235.057 261.186C224.226 270.447 213.924 280.403 204.286 290.938C204.217 291.007 204.148 291.077 204.08 291.17C201.877 293.578 199.697 296.032 197.563 298.509C196.347 299.922 195.131 301.357 193.914 302.793H192.652C195.337 299.574 198.091 296.402 200.867 293.323C206.214 287.349 211.744 281.538 217.48 275.935C217.549 275.865 217.641 275.773 217.71 275.703C225.695 267.901 234.047 260.492 242.767 253.569C244.236 252.411 245.704 251.253 247.196 250.142C247.265 250.073 247.356 250.026 247.425 249.957C259.793 240.649 273.056 232.638 286.985 225.924C287.076 225.877 287.168 225.831 287.26 225.785C289.83 224.535 292.423 223.354 295.062 222.196C295.658 221.941 296.232 221.687 296.829 221.432C296.943 221.386 297.035 221.339 297.15 221.293C310.963 215.366 325.282 210.619 339.876 207.17C339.968 207.146 340.082 207.123 340.174 207.1C343.914 206.22 347.655 205.433 351.418 204.715C365.644 202.006 380.215 200.363 394.717 200.733C395.337 200.779 395.314 201.729 394.717 201.729Z" fill="#A8CCFC"/>
<path d="M216.147 208.837C206.808 230.601 212.315 254.634 217.616 276.653C217.662 276.838 217.937 276.768 217.891 276.583C212.59 254.611 207.083 230.647 216.4 208.929C216.514 208.744 216.216 208.652 216.147 208.837Z" fill="#A8CCFC"/>
<path d="M234.688 261.001C248.502 271.327 266.285 275.726 283.128 277.555C287.901 278.065 292.696 278.366 297.492 278.412C297.676 278.412 297.676 278.134 297.492 278.111C280.328 277.926 262.545 275.101 246.873 267.831C242.628 265.863 238.589 263.525 234.826 260.723C234.688 260.63 234.528 260.885 234.688 261.001Z" fill="#A8CCFC"/>
<path d="M318.282 179.247C307.016 190.777 299.994 206.197 296.736 221.941C296.69 222.126 296.965 222.196 297.011 222.034C300.246 206.336 307.245 190.962 318.489 179.478C318.603 179.339 318.397 179.131 318.282 179.247Z" fill="#A8CCFC"/>
<path d="M308.852 175.357C302.473 182.79 297.126 191.078 293.019 199.992C289.21 208.281 286.043 217.149 287.03 226.433C287.053 226.619 287.328 226.619 287.328 226.433C286.341 217.056 289.6 208.027 293.501 199.668C297.562 190.963 302.794 182.836 309.058 175.566C309.173 175.427 308.966 175.218 308.852 175.357Z" fill="#A8CCFC"/>
<path d="M264.405 239.283C284.529 252.504 309.081 258.755 333.014 257.505C339.738 257.158 346.438 256.162 352.978 254.565C353.161 254.518 353.092 254.24 352.909 254.287C329.71 259.982 304.63 257.69 282.578 248.568C276.291 245.975 270.256 242.78 264.543 239.029C264.405 238.936 264.244 239.191 264.405 239.283Z" fill="#A8CCFC"/>
<path d="M273.444 234.352C292.995 245.604 316.193 249.656 338.497 248.012C344.738 247.549 350.957 246.623 357.061 245.234C357.244 245.187 357.175 244.91 356.992 244.956C335.262 249.911 311.925 249.124 290.769 241.877C284.826 239.839 279.066 237.246 273.605 234.097C273.421 234.004 273.261 234.259 273.444 234.352Z" fill="#A8CCFC"/>
<path d="M348.732 188.254C343.753 193.394 340.862 200.664 339.806 207.703C339.783 207.888 340.058 207.888 340.104 207.703C341.16 200.757 344.028 193.556 348.939 188.462C349.076 188.323 348.87 188.115 348.732 188.254Z" fill="#A8CCFC"/>
<path d="M361.651 203.488C367.823 212.078 377.231 217.982 387.603 219.719C387.786 219.742 387.878 219.464 387.695 219.441C377.392 217.705 368.053 211.893 361.903 203.35C361.811 203.211 361.559 203.35 361.651 203.488Z" fill="#A8CCFC"/>
<path d="M248.457 199.761C247.424 208.652 245.795 217.45 244.648 226.318C243.592 234.375 243.799 242.78 247.241 250.258C247.309 250.42 247.562 250.281 247.493 250.119C243.913 242.34 243.913 233.611 245.084 225.253C246.277 216.755 247.745 208.281 248.732 199.761C248.755 199.576 248.48 199.576 248.457 199.761Z" fill="#A8CCFC"/>
<path d="M218.008 296.379C225.97 299.111 234.277 301.45 242.721 302.932H241.275C228.448 300.616 215.897 296.449 204.056 291.262C203.919 291.216 203.804 291.147 203.666 291.1C203.506 291.031 203.574 290.753 203.758 290.823C203.919 290.892 204.102 290.961 204.263 291.054C208.783 292.976 213.372 294.782 218.008 296.379Z" fill="#A8CCFC"/>
<path d="M168.548 319.185H163.089H162.018L146.052 319.165H145.393L91.77 319.102C88.4945 315.735 85.6517 312.492 82.7676 310.102C82.7058 310.039 82.6234 309.977 82.5616 309.935C79.2037 307.233 75.7222 305.716 71.3549 306.547C54.9362 309.728 44.1416 304.094 37.8172 295.136C37.7554 295.052 37.7142 294.99 37.6524 294.907C36.1898 292.787 34.9743 290.5 33.9855 288.089C33.9443 288.006 33.9237 287.943 33.9031 287.86C33.5941 287.07 33.2851 286.281 33.0173 285.47C28.3204 271.439 -7.31858 274.141 1.35425 255.35C10.0271 236.56 44.8214 248.262 55.9457 237.578C57.1611 236.414 58.5207 235.271 59.9628 234.232C60.0246 234.19 60.0864 234.148 60.1482 234.086C71.9729 225.584 90.6782 221.697 103.801 237.1C108.065 242.11 111.856 244.313 115.667 245.331C115.749 245.352 115.831 245.373 115.893 245.394C125.267 247.784 134.949 243.378 152.809 256.307C173.122 271.023 170.402 305.965 168.548 319.185Z" fill="#CFE6FF"/>
<path d="M163.089 319.185H162.018C160.225 317.419 158.413 315.693 156.559 313.989C156.497 313.926 156.435 313.885 156.373 313.822C148.154 306.215 139.46 299.106 130.375 292.579C130.313 292.537 130.252 292.496 130.19 292.433C129.386 291.851 128.583 291.29 127.759 290.708C120.734 285.782 113.4 281.354 105.819 277.446C105.758 277.405 105.675 277.363 105.593 277.342C103.306 276.158 100.978 275.035 98.6298 273.954C98.568 273.934 98.5268 273.913 98.465 273.892C94.5303 272.063 90.5132 270.4 86.4343 268.841C71.6637 263.249 56.2133 259.425 40.5775 257.408C36.1896 256.847 31.7811 256.411 27.352 256.12C27.2696 256.12 27.1872 256.099 27.1048 256.099C19.6886 255.642 12.2518 255.642 4.87678 256.244C3.78495 256.327 2.71372 256.431 1.62189 256.556C1.14808 256.598 1.06568 255.87 1.53949 255.808C12.8492 254.561 24.3649 254.893 35.6746 256.078C38.6617 256.39 41.6487 256.764 44.6152 257.201C44.6976 257.221 44.78 257.221 44.8624 257.242C56.5223 258.988 68.0174 261.753 79.2035 265.473C79.2859 265.494 79.3683 265.536 79.4713 265.557C79.9451 265.723 80.419 265.868 80.8928 266.035C83.0146 266.762 85.1159 267.531 87.2171 268.321C87.2995 268.342 87.3613 268.384 87.4437 268.404C98.774 272.749 109.672 278.132 119.931 284.597C119.993 284.638 120.054 284.68 120.137 284.722C121.373 285.511 122.609 286.301 123.824 287.112C131.096 291.955 138.1 297.193 144.857 302.764C144.919 302.827 145.002 302.868 145.063 302.93C149.905 306.942 154.622 311.12 159.195 315.423C160.493 316.67 161.791 317.917 163.089 319.185Z" fill="#B3D6F9"/>
<path d="M141.748 250.32C150.462 266.721 147.722 285.886 144.982 303.45C144.961 303.596 144.735 303.554 144.755 303.409C147.475 285.865 150.235 266.762 141.521 250.383C141.48 250.258 141.686 250.196 141.748 250.32Z" fill="#B3D6F9"/>
<path d="M130.642 292.35C120.506 301.35 106.889 305.965 93.8285 308.501C90.1204 309.228 86.3917 309.769 82.6424 310.122C82.4982 310.143 82.4776 309.914 82.6218 309.893C96.0328 308.605 109.753 305.237 121.557 298.523C124.75 296.715 127.758 294.615 130.518 292.183C130.621 292.059 130.745 292.246 130.642 292.35Z" fill="#B3D6F9"/>
<path d="M59.9628 233.919C69.5215 242.192 76.0107 253.791 79.5746 265.889C79.6158 266.034 79.4098 266.118 79.3686 265.972C75.8047 253.916 69.3567 242.338 59.8186 234.107C59.7156 234.003 59.8598 233.836 59.9628 233.919Z" fill="#B3D6F9"/>
<path d="M67.0898 230.24C72.5695 235.624 77.2871 241.756 81.057 248.47C84.5591 254.706 87.6079 261.441 87.4431 268.757C87.4431 268.903 87.2165 268.924 87.2165 268.778C87.3813 261.378 84.25 254.54 80.6655 248.241C76.9368 241.694 72.3017 235.686 66.9456 230.427C66.8426 230.324 66.9868 230.136 67.0898 230.24Z" fill="#B3D6F9"/>
<path d="M105.985 277.322C91.1113 289.004 72.303 295.51 53.5153 296.092C48.221 296.258 42.9267 295.926 37.7147 295.115C37.5705 295.094 37.6117 294.866 37.7559 294.886C56.2758 297.817 75.7227 294.367 92.3886 285.782C97.1473 283.329 101.659 280.44 105.861 277.135C105.964 277.052 106.109 277.218 105.985 277.322Z" fill="#B3D6F9"/>
<path d="M98.6085 274.058C84.0439 284.139 66.1627 288.837 48.611 289.024C43.6875 289.086 38.7846 288.754 33.9022 288.068C33.758 288.047 33.7992 287.818 33.9434 287.839C51.2685 290.271 69.4794 288.13 85.5478 281.063C90.0799 279.067 94.406 276.677 98.4849 273.85C98.5879 273.788 98.7321 273.975 98.6085 274.058Z" fill="#B3D6F9"/>
<path d="M36.7255 242.962C40.9487 246.662 43.6885 252.15 44.9658 257.575C45.007 257.72 44.7804 257.741 44.7392 257.596C43.4619 252.233 40.7632 246.787 36.5813 243.128C36.4783 243.045 36.6019 242.879 36.7255 242.962Z" fill="#B3D6F9"/>
<path d="M27.5979 255.745C23.3336 262.875 16.35 268.092 8.35697 270.15C8.21277 270.191 8.13037 269.963 8.27457 269.942C16.2264 267.905 23.1482 262.75 27.3919 255.662C27.4743 255.516 27.6803 255.62 27.5979 255.745Z" fill="#B3D6F9"/>
<path d="M115.913 245.352C117.293 252.232 119.127 259.009 120.61 265.868C121.949 272.104 122.341 278.672 120.136 284.763C120.095 284.908 119.889 284.804 119.93 284.659C122.217 278.34 121.661 271.501 120.198 265.057C118.715 258.489 117.005 251.962 115.687 245.352C115.645 245.227 115.872 245.206 115.913 245.352Z" fill="#B3D6F9"/>
<path d="M156.846 313.822C156.743 313.884 156.661 313.926 156.558 313.988C153.138 315.838 149.636 317.584 146.052 319.185H145.393C145.578 319.102 145.784 319.019 145.969 318.935C149.513 317.376 152.974 315.672 156.373 313.843C156.496 313.78 156.62 313.718 156.764 313.635C156.888 313.531 156.97 313.739 156.846 313.822Z" fill="#B3D6F9"/>
<path d="M306.151 272.276H126.55C122.718 272.276 119.598 269.151 119.598 265.261V23.0779C119.598 19.2113 122.695 16.0625 126.55 16.0625H306.151C309.983 16.0625 313.104 19.1882 313.104 23.0779V265.261C313.081 269.127 309.983 272.276 306.151 272.276Z" fill="#FF8A80"/>
<path d="M300.229 69.4313V284.548H106.746V28.3574H265.213L300.229 69.4313Z" fill="white"/>
<path d="M300.551 284.895H106.402V28.0098H265.374L265.466 28.1255L300.551 69.3151V284.895ZM107.091 284.2H299.885V69.5698L265.076 28.7044H107.091V284.2Z" fill="#BEDEFF"/>
<path d="M300.231 69.4313H265.215V28.3574L300.231 69.4313Z" fill="#BEDEFF"/>
<path d="M274.277 212.564H227.42C223.566 212.564 220.422 209.392 220.422 205.502V163.271C220.422 159.381 223.566 156.209 227.42 156.209H274.277C278.132 156.209 281.275 159.381 281.275 163.271V205.502C281.275 209.415 278.155 212.564 274.277 212.564Z" fill="#FF6576"/>
<path d="M249.978 202.191L227.973 180.774L234.421 174.014L248.808 187.998L264.664 166.304L272.167 171.884L249.978 202.191Z" fill="#FB4B63"/>
<path d="M252.914 201.288L230.908 179.872L237.356 173.111L251.743 187.095L267.599 165.401L275.103 170.981L252.914 201.288Z" fill="white"/>
<path d="M167.095 48.2687C165.007 48.2687 162.965 47.2732 161.703 45.4209L142.382 16.8961C140.73 14.465 140.133 11.5477 140.684 8.65355C141.235 5.7594 142.864 3.25884 145.273 1.61496C147.361 0.202617 149.862 -0.306755 152.341 0.179463C154.819 0.665681 156.953 2.10118 158.353 4.20813L183.456 41.8553C183.984 42.6425 183.777 43.7076 182.997 44.2401C182.217 44.7726 181.161 44.5642 180.633 43.777L155.507 6.12985C154.612 4.78696 153.258 3.88398 151.675 3.55984C150.092 3.25884 148.509 3.58299 147.178 4.48597C145.526 5.62048 144.401 7.33382 144.034 9.30184C143.667 11.293 144.08 13.2842 145.204 14.9512L164.525 43.4529C165.489 44.8652 167.416 45.2357 168.816 44.2864C170.239 43.314 170.606 41.3691 169.665 39.9336L156.196 19.5356C155.668 18.7484 155.874 17.6833 156.677 17.1508C157.458 16.6183 158.513 16.8266 159.041 17.637L172.51 38.035C174.507 41.0449 173.704 45.1199 170.721 47.1342C169.619 47.8983 168.357 48.2687 167.095 48.2687Z" fill="#FF6576"/>
<path d="M180.037 28.3574H167.531L182.882 50.9087L188.389 45.4445L180.037 28.3574Z" fill="white"/>
<path d="M160.855 16.0625H168.818L175.816 28.3569H167.533L160.855 16.0625Z" fill="#51497A"/>
<path d="M384.788 307.169C384.444 310.318 381.438 310.017 380.015 311.336C379.533 311.8 380.061 313.443 379.648 312.911C377.72 310.433 370.997 304.275 363.677 297.352L363.356 297.028C352.824 287.026 341.144 275.449 340.639 270.772C339.698 261.974 344.769 216.871 345.94 214.718C347.087 212.565 359.317 209.208 359.317 209.208C359.317 209.208 374.462 234.12 366.27 240.789C363.058 243.382 360.488 247.549 358.514 251.624C356.977 254.843 355.807 258.038 355.026 260.399C354.269 262.738 353.879 264.266 353.879 264.266C353.879 264.266 357.413 266.211 360.763 269.336C361.199 269.73 361.635 270.17 362.048 270.61C363.907 272.555 365.536 274.87 366.27 277.371C368.427 284.895 384.788 307.169 384.788 307.169Z" fill="#FABBA5"/>
<path d="M376.756 295.245C376.756 295.245 376.917 305.664 375.288 308.35L372.305 305.456L376.114 294.157L376.756 295.245Z" fill="#ED938B"/>
<path d="M363.7 297.352L363.379 297.028L360.281 294.064C363.287 285.659 357.184 267.252 357.184 267.252L360.786 269.336C361.222 269.73 361.658 270.17 362.071 270.61L363.7 297.352Z" fill="#ED938B"/>
<path d="M357.941 262.02C362.874 284.825 364.045 318.814 364.045 318.814C364.045 318.814 368.565 320.435 372.351 318.444C372.351 318.444 376.504 295.823 377.56 289.201C378.615 282.58 376.298 275.958 375.449 272.971C374.761 270.54 381.369 247.201 379.809 226.41C379.074 217.218 346.124 207.378 357.941 262.02Z" fill="#FABBA5"/>
<path d="M378.431 271.166C378.431 271.166 367.073 273.203 358.628 270.471C345.526 266.234 339.973 268.225 339.973 268.225C339.216 263.965 341.212 245.998 343.094 231.18C343.094 231.18 343.094 231.157 343.094 231.134C343.989 224.142 344.838 217.867 345.366 214.07C345.687 211.755 345.87 210.342 345.87 210.273C345.893 210.273 369.482 210.134 371.433 212.009C371.455 212.032 372.282 212.935 372.282 212.935C375.861 216.432 379.142 220.877 379.785 226.387C381.391 240.372 380.244 262.368 378.431 271.166Z" fill="#FF6576"/>
<path d="M362.988 215.922C346.398 216.779 343.231 230.346 343.094 231.157C343.989 224.164 344.838 217.89 345.365 214.093L362.988 215.922Z" fill="#F64660"/>
<path d="M376.849 235.995C376.849 235.995 376.413 222.474 372.191 220.714C367.969 218.931 366.592 222.127 368.68 225.576C370.791 229.026 375.082 239.677 376.849 235.995Z" fill="#FF8091"/>
<path d="M368.037 326.41V329.929H372.007L372.925 326.085L368.037 326.41Z" fill="#29274F"/>
<path d="M364.617 316.477C364.617 316.477 364.044 321.223 361.061 322.983C358.651 324.395 356.885 325.692 356.885 325.692C356.609 326.317 353.947 328.84 354.59 328.84L363.975 329.489C363.975 329.489 366.316 326.502 368.427 326.826C370.538 327.15 373.612 324.464 372.786 322.566C371.96 320.644 372.35 318.445 372.35 318.445L364.617 316.477Z" fill="#FABBA5"/>
<path d="M356.886 325.715C356.886 325.715 351.264 328.91 352.319 329.952H363.816C364.297 329.952 364.733 329.72 365.009 329.326C365.582 328.516 366.89 327.104 369.139 327.15C373.797 327.266 373.614 326.131 372.811 322.589C372.811 322.589 367.212 325.46 363.793 326.27C357.184 327.775 356.886 325.715 356.886 325.715Z" fill="#51497A"/>
<path d="M388.002 315.619L390.664 317.912L393.257 314.855L390.939 311.66L388.002 315.619Z" fill="#29274F"/>
<path d="M378.043 311.105C378.043 311.105 381.508 315.342 380.911 318.768C380.429 321.524 380.246 323.746 380.246 323.746C380.544 324.372 380.728 328.053 381.141 327.544L387.703 320.736C387.703 320.736 386.969 317.009 388.598 315.596C390.205 314.184 390.182 310.086 388.208 309.484C386.235 308.882 384.812 307.146 384.812 307.146L378.043 311.105Z" fill="#FABBA5"/>
<path d="M380.244 323.746C380.244 323.746 379.028 330.137 380.474 329.998L387.931 321.153C388.229 320.783 388.344 320.297 388.229 319.834C388 318.861 387.77 316.939 389.262 315.249C392.36 311.753 391.396 311.128 388.206 309.461C388.206 309.461 386.761 315.62 385.132 318.769C382.011 324.835 380.244 323.746 380.244 323.746Z" fill="#51497A"/>
<path d="M332.287 169.43C332.287 169.43 330.704 165.193 329.396 164.313C323.499 160.377 323.751 160.632 323.338 159.312C322.375 156.163 323.66 152.713 324.096 152.644C324.486 152.598 324.371 154.38 324.256 154.913C324.027 155.932 325.381 157.576 325.381 157.576C325.381 157.576 325.335 155.469 325.587 154.543C325.771 153.825 326.757 151.486 326.964 151.509C327.675 151.579 327.125 153.246 326.941 154.751C326.803 155.816 327.675 158.154 327.675 158.154C327.675 158.154 327.675 156.302 327.905 155.399C328.157 154.38 329.488 152.343 329.786 152.412C330.291 152.528 329.763 153.871 329.58 155.307C329.419 156.441 330.222 158.432 330.222 158.432C330.222 158.432 330.589 157.182 331.048 156.511C331.507 155.839 332.632 154.774 332.769 155.029C333.022 155.515 332.723 156.071 332.058 157.228C331.691 157.877 332.127 159.636 333.182 160.4C333.389 160.539 335.959 161.581 336.624 164.105C337.29 166.629 332.287 169.43 332.287 169.43Z" fill="#FABBA5"/>
<path d="M356.886 171.606C356.886 171.606 354.959 168.596 349.084 170.819C347.272 171.49 342.981 176.816 340.778 179.664C340.135 180.474 337.497 184.572 336.074 185.869C335.569 186.332 335.018 186.818 334.491 187.281C335.179 182.396 335.5 178.159 335.936 175.241C336.487 171.583 337.313 168.249 336.326 165.864C336.143 165.401 334.491 165.818 333.022 165.772C331.76 165.725 330.681 165.193 330.383 165.401C327.836 167.3 326.276 176.33 324.073 183.229C321.342 191.75 322.857 197.191 324.624 200.015C325.61 201.59 338.713 203.998 350.438 195.825C362.164 187.651 356.886 171.606 356.886 171.606Z" fill="#75ACF2"/>
<path d="M334.421 186.818C334.26 187.976 334.628 189.11 334.444 190.291C334.26 191.472 333.733 192.583 332.975 193.51C332.93 193.579 333.021 193.672 333.067 193.602C333.778 192.745 334.26 191.75 334.49 190.639C334.605 190.106 334.65 189.55 334.628 188.995C334.605 188.277 334.421 187.582 334.513 186.841C334.582 186.749 334.444 186.726 334.421 186.818Z" fill="#4B83DB"/>
<path d="M357.414 161.211L354.477 174.524L372.948 205.017C372.948 205.017 379.282 200.618 386.946 203.952C389.08 204.878 391.718 204.299 393.715 203.211C396.79 196.172 393.692 191.171 393.692 191.171C396.055 195.2 395.986 199.298 395.413 202.377C398.052 201.011 398.901 200.178 398.901 200.178C401.333 192.352 397.386 175.496 382.655 170.958C367.923 166.42 369.851 155.862 369.851 155.862L357.414 161.211Z" fill="#6D2F3B"/>
<path d="M370.424 201.567C370.126 188.601 374.21 171.399 370.929 170.079C367.648 168.759 365.95 168.875 363.081 167.81C359.548 166.49 359.295 166.05 353.536 168.921C347.776 171.792 348.533 171.815 348.533 171.815C348.533 171.815 344.678 185.707 344.541 189.088C344.311 194.274 347.134 195.455 347.134 195.455C347.134 195.455 351.493 203.952 352.342 207.772C352.595 208.884 352.182 213.399 352.182 213.399L375.931 209.092C375.931 209.069 370.493 205.11 370.424 201.567Z" fill="#FABBA5"/>
<path d="M373.429 187.073C373.429 187.073 371.203 199.298 370.997 201.219C370.974 201.428 371.02 201.659 371.135 201.937C372.075 203.975 376.871 207.216 375.93 209.092C375.655 209.647 373.888 210.203 371.456 210.735C371.456 210.735 371.433 210.735 371.41 210.735C370.997 210.828 370.561 210.921 370.125 210.99C370.01 211.013 369.895 211.036 369.781 211.06C362.736 212.379 352.181 213.398 352.181 213.398C352.204 213.352 352.342 212.773 352.41 211.893C352.525 210.342 352.433 207.772 351.011 205.017C348.762 200.641 347.179 195.64 347.11 195.477C347.041 195.454 346.146 195.176 345.32 194.389C344.173 193.301 343.117 191.24 344.219 187.466C345.412 183.461 346.008 174.94 348.211 171.468C348.601 170.842 353.535 168.898 353.535 168.898C353.535 168.898 349.427 183.114 351.194 185.105C352.938 187.073 358.789 179.803 361.887 174.107C362.254 173.412 365.008 169.314 365.949 168.643C365.995 168.62 368.794 169.152 372.029 170.264C373.429 170.703 375.93 173.551 373.429 187.073Z" fill="#75ACF2"/>
<path d="M387.543 206.313C387.52 206.476 387.451 206.638 387.336 206.753C386.304 207.957 383.665 212.634 373.27 213.56C364.229 214.371 361.292 216.038 361.292 216.038L355.693 209.555C355.693 209.555 357.919 212.519 370.792 205.619C375.68 203.003 376.965 202.053 376.965 202.053C376.965 202.053 389.333 194.135 387.543 206.313Z" fill="#FABBA5"/>
<path d="M379.879 201.983C379.879 201.983 374.28 189.295 370.265 186.864C366.249 184.433 375.474 180.358 379.397 181.562C383.321 182.766 390.641 198.835 387.314 207.864L379.879 201.983Z" fill="#FABBA5"/>
<path d="M351.54 148.917C351.54 148.917 350.485 145.328 354.133 142.642C357.782 139.956 359.939 139.493 363.22 140.72C366.501 141.971 370.792 142.712 372.467 145.791C375.083 150.537 373.867 157.067 369.347 161.304C364.826 165.541 361.063 162.438 358.745 163.04C356.428 163.642 351.54 148.917 351.54 148.917Z" fill="#6D2F3B"/>
<path d="M363.219 170.889C363.219 170.889 359.387 174.408 354.155 172.51C354.155 172.51 354.545 169.824 354.43 167.208C354.384 166.143 354.361 163.11 354.086 161.998C354.178 161.859 354.315 161.744 354.43 161.605C356.518 159.544 361.865 157.784 361.934 157.761C361.911 157.808 361.153 159.104 360.97 161.142C360.924 161.558 360.924 162.021 360.924 162.508C360.947 163.04 361.016 163.573 361.13 164.152C361.888 167.879 363.219 170.889 363.219 170.889Z" fill="#FABBA5"/>
<path d="M360.948 162.484C359.158 165.239 354.454 165.772 354.385 165.795C354.339 164.73 354.362 163.086 354.087 161.974C354.064 161.905 354.041 161.836 354.041 161.789C354.179 161.72 354.316 161.65 354.454 161.604C356.588 160.724 359.846 161.025 360.994 161.141C360.948 161.558 360.925 161.998 360.948 162.484Z" fill="#E58F78"/>
<path d="M359.983 162.947C354.476 164.684 350.368 162.901 349.45 162.229C348.555 161.535 348.854 160.609 348.257 157.645C347.844 155.607 348.165 153.94 348.739 152.829C348.991 152.32 349.313 151.926 349.611 151.648C349.703 151.556 349.795 151.486 349.863 151.394C350.529 150.676 350.23 150.236 350.689 148.731C350.804 148.384 351.08 147.967 351.447 147.55C351.607 147.365 351.791 147.18 351.997 146.994C353.443 145.605 355.531 144.262 355.531 144.262C364.365 141.947 367.578 149.68 367.073 152.574C366.614 155.492 365.49 161.187 359.983 162.947Z" fill="#FABBA5"/>
<path d="M361.498 151.602C361.498 151.602 361.383 149.449 357.62 149.148C355.371 148.963 355.349 150.051 356.588 150.306C357.804 150.56 358.561 149.565 361.498 151.602Z" fill="#752D4B"/>
<path d="M352.412 148.87C351.976 148.616 351.769 147.898 351.494 147.574C351.655 147.389 351.838 147.203 352.045 147.018C352.183 147.064 352.343 147.18 352.504 147.319C353.605 148.384 353.123 149.31 352.412 148.87Z" fill="#752D4B"/>
<path d="M352.479 151.695C352.319 152.251 352.112 150.375 351.63 150.051C351.194 149.773 350.483 149.866 350.139 149.472C350.047 149.38 350.162 149.218 350.276 149.264C350.483 149.357 350.781 149.449 351.148 149.449C351.86 149.449 352.938 150.19 352.479 151.695Z" fill="#752D4B"/>
<path d="M351.746 151.185C351.517 151.209 351.287 151.209 351.104 151.07C350.92 150.931 350.828 150.699 350.76 150.468C350.691 150.19 350.76 149.889 351.012 149.75C351.15 149.657 351.31 149.588 351.31 149.588L351.838 149.935L352.045 150.19L352.067 150.514L352.205 150.884C352.182 150.884 352.067 151.162 351.746 151.185Z" fill="#752D4B"/>
<path d="M355.578 152.204C355.578 152.204 356.404 150.931 357.207 150.746C358.01 150.537 360.053 151.301 360.282 151.857C360.512 152.413 360.374 153.177 360.374 153.177C360.374 153.177 358.423 150.653 355.578 152.204Z" fill="#EF9F8A"/>
<path d="M357.918 152.829C357.735 153.292 357.23 153.547 356.748 153.362C356.289 153.176 356.037 152.667 356.22 152.181C356.289 152.019 356.381 151.903 356.496 151.787C356.611 151.695 356.748 151.625 356.886 151.602C357.207 151.718 357.528 151.857 357.804 151.972C357.918 152.158 357.987 152.389 357.964 152.598C357.964 152.69 357.941 152.76 357.918 152.829Z" fill="#752D4B"/>
<path d="M360.306 153.386C360.099 153.733 359.503 153.27 359.182 153.061C359.09 153.015 359.021 152.946 358.952 152.899C358.7 152.714 358.47 152.529 358.218 152.367C357.988 152.228 357.736 152.135 357.484 152.089C356.726 151.927 355.877 152.089 355.258 152.552C355.304 152.506 356.543 151.07 358.379 151.556C359.686 151.904 360.444 153.154 360.306 153.386Z" fill="#752D4B"/>
<g opacity="0.2">
<path d="M361.016 155.909C360.603 155.307 359.846 154.89 359.066 154.82C358.63 154.797 358.217 154.751 357.781 154.728C356.932 154.658 356.037 154.612 355.394 154.983C355.211 155.098 355.073 155.237 355.004 155.422C354.844 155.886 355.257 156.256 355.67 156.534C356.771 157.275 358.125 157.738 359.41 157.784C359.616 157.784 359.823 157.784 360.029 157.784C361.108 157.691 361.613 156.742 361.016 155.909Z" fill="#ED4C62"/>
</g>
<g opacity="0.2">
<path d="M350.806 153.223C350.691 153.524 350.462 153.571 350.255 153.571C349.704 153.571 349.2 153.339 348.855 152.922C348.833 152.876 348.787 152.853 348.764 152.807C349.016 152.297 349.337 151.904 349.636 151.626C349.727 151.533 349.819 151.464 349.888 151.371C349.911 151.394 349.934 151.417 349.98 151.441C350.095 151.579 350.232 151.695 350.347 151.834C350.599 152.089 350.852 152.39 350.875 152.807C350.875 152.969 350.875 153.108 350.806 153.223Z" fill="#ED4C62"/>
</g>
<path d="M353.055 149.495C353.583 150.074 353.583 150.907 353.261 151.579C352.871 152.412 352.045 152.922 351.288 153.385C350.944 153.593 350.439 153.894 350.554 154.38C350.668 154.936 351.426 155.399 351.839 155.677C351.93 155.746 352.022 155.608 351.931 155.538C351.563 155.307 351.127 155.006 350.875 154.658C350.37 153.917 351.242 153.616 351.701 153.315C352.229 152.991 352.734 152.621 353.101 152.111C353.697 151.324 353.858 150.143 353.147 149.379C353.124 149.31 352.986 149.426 353.055 149.495Z" fill="#E58F78"/>
<g opacity="0.2">
<path d="M349.705 160.076C350.37 160.007 351.036 160.146 351.609 160.494C351.793 160.609 351.609 160.911 351.426 160.795C350.921 160.494 350.37 160.355 349.774 160.401C349.567 160.447 349.475 160.1 349.705 160.076Z" fill="#FF6576"/>
</g>
<g opacity="0.2">
<path d="M351.287 154.265C351.746 154.519 352.136 154.844 352.48 155.237C352.618 155.399 352.388 155.631 352.228 155.469C351.906 155.098 351.539 154.797 351.103 154.566C350.92 154.45 351.103 154.172 351.287 154.265Z" fill="#FF6576"/>
</g>
<path d="M359.273 144.61C359.273 144.61 361.82 145.304 362.234 148.222C362.624 151.139 364.138 155.399 364.689 155.955C365.239 156.51 363.083 159.243 363.083 159.243C363.083 159.243 363.358 161.349 360.948 162.6C360.948 162.6 364.345 162.692 366.134 161.048C367.947 159.405 368.842 151.278 367.855 148.175C366.869 145.073 362.853 142.781 361.545 142.827C360.26 142.827 359.273 144.61 359.273 144.61Z" fill="#6D2F3B"/>
<path d="M362.531 155.215C362.531 155.215 365.078 153.34 366.156 155.03C367.235 156.72 364.917 158.225 364.045 158.804C363.105 159.429 362.737 159.29 361.751 158.595C360.764 157.901 362.531 155.215 362.531 155.215Z" fill="#FABBA5"/>
<path d="M361.91 158.364C362.14 159.406 363.31 159.197 363.975 158.757C364.503 158.433 365.031 157.97 365.444 157.53C366.041 156.882 366.66 155.84 365.949 155.007C365.444 154.405 364.618 154.428 363.952 154.729C363.861 154.775 363.769 154.613 363.861 154.567C364.572 154.219 365.421 154.219 365.995 154.798C366.683 155.516 366.408 156.488 365.903 157.206C365.352 157.97 364.388 158.873 363.471 159.174C362.759 159.429 361.91 159.174 361.727 158.364C361.704 158.294 361.887 158.248 361.91 158.364Z" fill="#E58F78"/>
<path d="M364.941 155.33C364.666 155.33 364.413 155.399 364.184 155.585C364.046 155.839 363.977 156.094 363.977 156.395C363.954 156.464 363.931 156.534 363.886 156.603C363.61 156.997 362.555 156.951 362.601 157.599C362.601 157.715 362.44 157.715 362.417 157.599C362.394 157.321 362.509 157.136 362.715 156.997C363.197 156.673 363.61 156.881 363.794 156.117C363.931 155.469 364.253 155.214 364.941 155.191C365.056 155.145 365.056 155.33 364.941 155.33Z" fill="#E58F78"/>
<path d="M359.272 144.61C359.272 144.61 356.564 143.776 353.65 145.698C353.375 145.883 353.099 146.045 352.87 146.253C351.149 147.967 355.669 139.4 361.544 142.78C367.441 146.161 359.272 144.61 359.272 144.61Z" fill="#6D2F3B"/>
<path d="M365.973 168.597C365.973 168.597 372.673 169.732 375.61 171.376C378.548 173.043 380.842 178.646 384.215 183.809C387.566 188.972 392.201 201.359 388.621 209.532C385.041 217.728 369.071 216.594 366.937 214.163C366.937 214.163 367.396 210.342 365.262 208.05L370.126 192.839L365.973 168.597Z" fill="#75ACF2"/>
<path d="M365.514 208.282C365.491 205.226 368.795 204.299 371.113 203.582C374.119 202.632 377.056 200.433 380.36 201.174C380.475 201.197 380.452 201.382 380.337 201.359C377.285 200.664 374.623 202.563 371.87 203.512C369.529 204.346 365.674 204.994 365.697 208.259C365.697 208.374 365.514 208.398 365.514 208.282Z" fill="#4B83DB"/>
<path d="M376.298 201.521C377.009 200.502 377.813 199.576 378.73 198.743C378.822 198.673 378.914 198.812 378.845 198.881C377.927 199.715 377.147 200.618 376.436 201.637C376.367 201.706 376.229 201.614 376.298 201.521Z" fill="#4B83DB"/>
<path d="M376.253 201.521C376.299 200.409 375.748 199.437 375.243 198.511C374.738 197.584 374.279 196.635 373.866 195.686C373.04 193.811 372.398 191.889 371.893 189.898C371.87 189.782 372.031 189.759 372.076 189.874C372.65 192.074 373.407 194.227 374.348 196.311C374.784 197.283 375.312 198.21 375.794 199.136C376.184 199.9 376.505 200.687 376.459 201.544C376.413 201.659 376.23 201.636 376.253 201.521Z" fill="#4B83DB"/>
<path d="M362.53 194.436C360.396 196.311 357.39 196.913 354.705 196.01C354.591 195.964 354.66 195.802 354.774 195.848C357.39 196.751 360.327 196.149 362.415 194.297C362.507 194.227 362.599 194.366 362.53 194.436Z" fill="#4B83DB"/>
<path d="M398.925 198.14C401.036 190.939 399.315 183.067 394.29 177.487C391.857 174.779 388.783 172.718 385.341 171.583C383.321 170.912 381.21 170.495 379.237 169.685C377.47 168.967 375.772 168.041 374.258 166.86C371.642 164.823 369.462 161.905 369.324 158.455C369.324 158.34 369.508 158.34 369.508 158.455C369.645 162.067 372.055 165.054 374.854 167.092C376.598 168.342 378.526 169.314 380.568 169.986C382.541 170.657 384.606 171.051 386.557 171.838C392.798 174.339 397.686 179.942 399.338 186.517C400.302 190.361 400.21 194.412 399.109 198.21C399.063 198.302 398.879 198.256 398.925 198.14Z" fill="#6D2F3B"/>
<path d="M368.98 160.47C367.672 163.757 370.563 167.161 372.651 169.36C375.153 172 378.113 174.153 380.866 176.515C385.891 180.821 390.137 186.355 390.802 193.185C391.146 196.89 390.389 200.664 388.416 203.812C388.347 203.905 388.209 203.812 388.255 203.72C392.11 197.584 391.031 189.805 387.291 183.901C385.387 180.891 382.863 178.413 380.132 176.144C377.355 173.806 374.418 171.629 371.986 168.921C370.013 166.744 367.557 163.526 368.774 160.4C368.842 160.331 369.003 160.377 368.98 160.47Z" fill="#964D5F"/>
<path d="M368.957 160.794C365.79 163.572 368.682 168.017 370.655 170.518C372.835 173.273 375.428 175.635 377.906 178.112C381.967 182.164 386.121 187.142 386.258 193.208C386.35 196.774 384.836 200.247 382.243 202.678C382.151 202.747 382.036 202.632 382.128 202.539C384.744 200.085 386.236 196.589 386.098 192.977C385.983 189.92 384.744 187.026 383.092 184.479C379.375 178.761 373.5 174.94 369.599 169.383C367.878 166.952 366.089 163.086 368.842 160.655C368.934 160.608 369.049 160.724 368.957 160.794Z" fill="#964D5F"/>
<path d="M359.962 143.962C365.4 145.698 364.643 153.547 369.852 155.562C369.967 155.608 369.921 155.77 369.806 155.724C364.574 153.709 365.331 145.837 359.916 144.124C359.801 144.078 359.847 143.916 359.962 143.962Z" fill="#964D5F"/>
<path d="M359.984 143.892C362.738 143.545 364.413 146.138 365.629 148.222C366.478 149.704 367.396 151.047 368.796 152.042C370.173 153.038 371.825 153.594 373.5 153.686C373.615 153.686 373.615 153.871 373.5 153.871C370.815 153.732 368.268 152.413 366.662 150.213C364.964 147.921 363.61 143.615 360.03 144.078C359.916 144.078 359.87 143.916 359.984 143.892Z" fill="#964D5F"/>
<g opacity="0.5">
<path d="M373.155 193.811C372.513 192.213 374.899 198.21 372.742 200.664C370.585 203.118 367.809 204.947 367.809 204.947C367.809 204.947 372.88 202.794 376.345 201.544C377.24 201.22 374.234 196.543 373.155 193.811Z" fill="#4B83DB"/>
</g>
<path d="M376.506 172.324C374.923 172.718 373.202 173.135 371.963 174.269C370.609 175.52 370.127 177.557 369.875 179.317C369.37 182.859 370.104 186.517 371.94 189.574C371.894 189.597 371.848 189.643 371.779 189.666C371.619 189.134 371.458 188.601 371.298 188.092C371.275 187.976 371.435 187.907 371.458 188.022C371.619 188.555 371.779 189.087 371.94 189.597C371.963 189.689 371.848 189.782 371.779 189.689C369.852 186.448 369.095 182.558 369.76 178.854C370.059 177.163 370.563 175.334 371.848 174.13C373.11 172.973 374.854 172.533 376.483 172.139C376.598 172.139 376.621 172.301 376.506 172.324Z" fill="#4B83DB"/>
<path d="M373.111 173.158C371.137 171.305 368.774 169.986 366.181 169.314C366.066 169.291 366.089 169.106 366.204 169.129C368.843 169.824 371.229 171.143 373.225 173.019C373.294 173.088 373.18 173.227 373.111 173.158Z" fill="#4B83DB"/>
<path d="M345.505 180.336C345.299 183.068 344.404 185.707 344.06 188.439C343.876 189.782 343.784 191.194 344.22 192.491C344.702 193.95 345.873 195.223 347.456 195.246C347.571 195.246 347.548 195.432 347.433 195.432C344.519 195.339 343.624 192.051 343.762 189.666C343.945 186.494 345.092 183.484 345.345 180.312C345.322 180.197 345.505 180.22 345.505 180.336Z" fill="#4B83DB"/>
<path d="M359.229 142.827C357.783 142.271 356.2 142.295 354.777 142.943C354.112 143.244 353.492 143.661 352.987 144.216C352.414 144.818 351.978 145.536 351.289 146.045C350.05 146.972 348.627 147.458 347.503 148.546C346.218 149.773 345.3 151.301 344.818 153.015C344.795 153.13 344.612 153.084 344.658 152.968C345.117 151.348 345.966 149.866 347.136 148.662C347.71 148.06 348.375 147.55 349.086 147.11C349.912 146.624 350.807 146.254 351.519 145.629C352.184 145.05 352.62 144.263 353.286 143.684C353.813 143.244 354.41 142.897 355.052 142.642C356.406 142.133 357.898 142.156 359.229 142.688C359.366 142.711 359.32 142.873 359.229 142.827Z" fill="#6D2F3B"/>
<path d="M358.654 143.753C360.099 144.471 361.132 145.814 361.407 147.412C361.545 148.338 361.453 149.287 361.774 150.167C362.05 150.931 362.554 151.602 362.899 152.343C363.174 152.899 363.358 153.501 363.266 154.126C363.151 154.959 362.554 155.608 362.073 156.256C360.902 157.83 360.971 160.007 359.686 161.512C359.617 161.604 359.48 161.466 359.571 161.373C360.742 160.007 360.673 158.039 361.637 156.557C362.141 155.77 362.922 155.098 363.082 154.126C363.22 153.316 362.853 152.598 362.486 151.926C362.21 151.417 361.889 150.931 361.682 150.398C361.43 149.75 361.384 149.055 361.338 148.361C361.224 146.439 360.352 144.795 358.585 143.939C358.447 143.869 358.539 143.707 358.654 143.753Z" fill="#6D2F3B"/>
<path d="M384.606 168.713C378.319 170.055 372.445 166.189 369.622 160.678C369.577 160.586 369.714 160.493 369.783 160.586C372.56 166.027 378.365 169.847 384.56 168.527C384.675 168.527 384.721 168.689 384.606 168.713Z" fill="#6D2F3B"/>
<path d="M364.183 141.623C362.875 140.257 360.718 139.655 358.86 139.956C356.817 140.28 355.877 142.04 355.097 143.799C355.051 143.915 354.89 143.823 354.936 143.707C355.762 141.808 356.795 140.025 358.997 139.748C360.856 139.516 362.967 140.118 364.275 141.484C364.39 141.6 364.252 141.716 364.183 141.623Z" fill="#6D2F3B"/>
<path d="M330.222 194.829C330.222 194.829 346.285 194.389 349.107 194.482C349.107 194.482 355.853 214.533 356.175 221.085C356.175 221.085 342.361 221.733 335.546 221.039C335.569 221.062 330.016 197.145 330.222 194.829Z" fill="#51497A"/>
<path d="M362.829 209.346C362.829 209.346 358.538 210.689 357.046 210.18C350.346 207.887 350.69 207.934 349.405 208.42C346.353 209.578 344.426 212.75 344.655 213.12C344.862 213.467 346.193 212.263 346.537 211.847C347.202 211.036 349.313 211.106 349.313 211.106C349.313 211.106 347.638 212.356 347.065 213.12C346.629 213.722 345.389 215.922 345.527 216.06C346.009 216.593 346.973 215.134 348.051 214.046C348.808 213.282 351.172 212.541 351.172 212.541C351.172 212.541 349.726 213.676 349.153 214.417C348.51 215.227 347.73 217.542 347.959 217.751C348.35 218.075 349.107 216.825 350.093 215.806C350.897 214.995 352.939 214.393 352.939 214.393C352.939 214.393 352.182 215.458 351.952 216.223C351.7 216.987 351.585 218.561 351.86 218.492C352.388 218.399 352.64 217.82 353.145 216.57C353.421 215.875 355.073 215.157 356.312 215.528C356.541 215.597 358.951 217.01 361.314 215.991C363.701 215.065 362.829 209.346 362.829 209.346Z" fill="#FABBA5"/>
<path d="M343.071 192.513C343.071 192.513 345.365 192.212 344.723 195.338L340.615 195.569L341.372 193.462L342.221 192.583L343.071 192.513Z" fill="#BADBF6"/>
<path d="M343.072 192.513C343.072 192.513 340.18 194.18 341.373 198.116C342.567 202.052 339.492 202.77 339.492 202.77L321.777 204.437C321.777 204.437 324.324 201.057 323.223 198.139C322.122 195.222 323.659 194.713 325.908 194.435C328.432 194.111 343.072 192.513 343.072 192.513Z" fill="#D8EBFF"/>
<path d="M353.765 158.085C353.168 157.9 352.595 157.414 352.273 156.974C351.929 156.488 351.218 156.719 351.218 156.719C351.126 156.511 350.965 156.395 350.782 156.349C350.346 156.256 349.634 156.765 349.589 156.789C349.589 156.789 349.29 158.687 350.988 159.034C352.159 159.312 353.099 158.363 353.765 158.085Z" fill="#FF6576"/>
<path d="M351.539 158.27L351.493 158.224C351.218 158.178 350.942 158.131 350.69 158.015C350.598 157.969 350.506 157.923 350.392 157.9C350.277 157.876 350.162 157.946 350.139 158.039C350.116 158.131 350.185 158.224 350.277 158.293C350.529 158.502 350.851 158.595 351.195 158.641C351.309 158.664 351.447 158.664 351.539 158.572C351.608 158.502 351.608 158.363 351.539 158.27Z" fill="#FF8A9A"/>
<path d="M349.542 156.811C350.689 158.038 352.754 158.293 354.338 158.061C354.407 158.061 354.384 157.946 354.315 157.946C352.777 158.177 350.735 157.922 349.634 156.742C349.565 156.672 349.473 156.742 349.542 156.811Z" fill="#F64660"/>
<path d="M71.6175 329.002V329.998H66.8906L66.3398 328.053L71.6175 329.002Z" fill="#29274F"/>
<path d="M73.5672 317.865C73.5672 317.865 75.334 323.19 78.0187 324.788C80.1757 326.061 84.306 326.246 85.4075 328.793C85.6599 329.349 85.2468 329.997 84.6502 329.997H73.5442C73.5442 329.997 69.5057 328.816 67.6011 329.094C65.6966 329.372 65.7884 324.533 66.3391 322.727C66.8898 320.921 66.4309 317.865 66.4309 317.865H73.5672Z" fill="#383463"/>
<path d="M30.7715 329.002V329.998H35.4984L36.0491 328.053L30.7715 329.002Z" fill="#29274F"/>
<path d="M28.822 317.866C28.822 317.866 27.0552 323.191 24.3704 324.789C22.2135 326.062 18.0832 326.247 16.9817 328.794C16.7293 329.35 17.1424 329.998 17.739 329.998H28.845C28.845 329.998 32.8835 328.817 34.7881 329.095C36.6926 329.373 36.6008 324.534 36.0501 322.728C35.4994 320.922 35.9583 317.866 35.9583 317.866H28.822Z" fill="#383463"/>
<path d="M71.2945 225.669C71.2945 225.669 74.8741 238.82 75.2412 248.151C75.5625 256.162 74.8053 273.411 74.92 286.771C75.0806 305.988 76.1132 319.324 75.6313 319.926C74.7594 320.991 73.9333 319.996 70.3996 320.829C66.5446 321.732 64.8466 319.857 64.8466 319.857C64.8466 319.857 63.791 312.564 61.9783 300.223C61.3358 295.801 60.6244 291.008 59.8902 286.169C57.5038 270.077 56.4023 255.329 55.5992 253.639C55.5992 253.639 52.1573 266.558 47.3385 285.405C41.7396 307.215 37.5634 320.181 37.1045 321.871C37.1045 321.871 35.3606 322.728 32.1252 321.315C30.8631 320.76 27.8342 320.899 26.8475 319.903C25.5625 318.583 31.5974 292.976 33.8232 265.586C35.8424 240.812 39.5827 230.601 41.4184 226.156L71.2945 225.669Z" fill="#51497A"/>
<path d="M57.5044 248.73C56.793 249.772 56.357 250.976 56.0128 252.203C55.6228 253.569 55.2786 254.935 54.9344 256.278C54.8655 256.509 54.5443 256.417 54.6131 256.185C54.9803 254.773 55.3474 253.36 55.7375 251.971C56.0817 250.767 56.4947 249.563 57.2061 248.545C57.3437 248.383 57.642 248.545 57.5044 248.73Z" fill="#383463"/>
<path d="M65.8809 245.836C64.573 246.438 63.4257 247.341 62.4849 248.475C62.439 248.383 62.3701 248.267 62.3243 248.174C63.8846 247.781 65.4679 247.503 67.0741 247.364C67.3036 247.341 67.2807 247.711 67.0741 247.734C65.5138 247.873 63.9534 248.151 62.416 248.522C62.2554 248.568 62.1407 248.36 62.2554 248.221C63.2192 247.063 64.3894 246.16 65.7203 245.535C65.9039 245.419 66.0874 245.743 65.8809 245.836Z" fill="#383463"/>
<path d="M38.9885 247.063C38.8967 247.456 38.8049 247.827 38.7131 248.22C38.6672 248.452 38.323 248.359 38.3919 248.128C38.4837 247.734 38.5755 247.364 38.6672 246.97C38.7131 246.739 39.0344 246.831 38.9885 247.063Z" fill="#383463"/>
<path d="M37.6787 251.091C37.5869 251.67 37.4951 252.249 37.3804 252.805C37.3345 253.036 37.0133 252.943 37.0592 252.712C37.1509 252.133 37.2427 251.554 37.3575 250.999C37.3804 250.767 37.7017 250.883 37.6787 251.091Z" fill="#383463"/>
<path d="M36.6018 257.158C36.51 257.551 36.4182 257.922 36.3264 258.316C36.2805 258.547 35.9363 258.454 36.0052 258.223C36.0969 257.829 36.1887 257.459 36.2805 257.065C36.3264 256.834 36.6477 256.926 36.6018 257.158Z" fill="#383463"/>
<path d="M35.751 262.9C35.6592 263.571 35.5445 264.242 35.4527 264.914C35.4068 265.145 35.0855 265.053 35.1314 264.821C35.2232 264.15 35.3379 263.478 35.4297 262.807C35.4527 262.575 35.7739 262.668 35.751 262.9Z" fill="#383463"/>
<path d="M34.9262 271.49C34.9262 272.254 34.9262 273.018 34.9262 273.805C34.9262 274.036 34.582 274.036 34.582 273.805C34.582 273.041 34.582 272.277 34.582 271.49C34.582 271.258 34.9262 271.258 34.9262 271.49Z" fill="#383463"/>
<path d="M34.8567 279.685C34.6272 279.963 34.5584 280.31 34.6502 280.658C34.6961 280.889 34.3748 280.982 34.3289 280.75C34.2142 280.264 34.3289 279.801 34.6272 279.431C34.7649 279.245 35.0173 279.5 34.8567 279.685Z" fill="#383463"/>
<path d="M31.8743 287.21C33.1822 288.947 34.9032 290.29 36.8766 291.077C37.0831 291.146 36.9913 291.517 36.7848 291.424C34.7655 290.614 32.9757 289.248 31.6219 287.465C31.4842 287.303 31.7366 287.025 31.8743 287.21Z" fill="#383463"/>
<path d="M32.0335 288.252C32.6301 289.318 33.2267 290.359 33.8233 291.424C33.938 291.633 33.6397 291.795 33.525 291.61C32.9284 290.545 32.3318 289.503 31.7352 288.438C31.6434 288.229 31.9188 288.044 32.0335 288.252Z" fill="#383463"/>
<path d="M61.2683 289.04C62.2779 290.059 63.2875 291.078 64.2972 292.096C64.4578 292.259 64.2054 292.513 64.0677 292.351C63.0581 291.332 62.0484 290.314 61.0388 289.295C60.8552 289.133 61.1076 288.878 61.2683 289.04Z" fill="#383463"/>
<path d="M62.9437 292.281C63.9534 293.694 64.7794 295.222 65.399 296.866C65.4908 297.074 65.1466 297.167 65.0777 296.958C64.4811 295.338 63.6551 293.833 62.6684 292.444C62.5307 292.281 62.8061 292.096 62.9437 292.281Z" fill="#383463"/>
<path d="M31.9204 296.287C31.9204 296.496 31.9204 296.727 31.9204 296.936C31.9204 297.168 31.5762 297.168 31.5762 296.936C31.5762 296.727 31.5762 296.496 31.5762 296.287C31.5762 296.055 31.9204 296.055 31.9204 296.287Z" fill="#383463"/>
<path d="M31.3012 301.241C31.3012 301.889 31.3012 302.538 31.3012 303.186C31.3012 303.417 30.957 303.417 30.957 303.186C30.957 302.538 30.957 301.889 30.957 301.241C30.957 301.009 31.3012 301.009 31.3012 301.241Z" fill="#383463"/>
<path d="M30.6576 306.521C30.497 306.891 30.4281 307.285 30.474 307.678C30.497 307.91 30.1757 308.003 30.1528 307.771C30.0839 307.262 30.1528 306.799 30.3593 306.335C30.474 306.127 30.7494 306.312 30.6576 306.521Z" fill="#383463"/>
<path d="M30.0368 315.596C29.8533 315.874 29.8074 316.198 29.8762 316.545C29.9221 316.777 29.6009 316.869 29.555 316.638C29.4632 316.221 29.532 315.781 29.7615 315.411C29.8533 315.202 30.1516 315.388 30.0368 315.596Z" fill="#383463"/>
<path d="M46.353 237.57C45.94 238.843 45.527 240.094 45.1139 241.367C44.9074 242.015 44.678 242.687 44.4714 243.335C44.3338 243.775 44.1731 244.146 43.7601 244.377C42.8193 244.886 41.649 245.072 40.6165 245.187C39.4691 245.303 38.2989 245.234 37.1516 245.002C36.945 244.956 37.0368 244.609 37.2434 244.655C38.2759 244.863 39.3315 244.933 40.4099 244.863C41.4425 244.771 42.6128 244.585 43.5536 244.099C44.0813 243.845 44.1731 243.104 44.3567 242.571C44.5403 242.015 44.7239 241.46 44.9074 240.904C45.2746 239.77 45.6417 238.635 46.0318 237.477C46.1006 237.246 46.4219 237.338 46.353 237.57Z" fill="#383463"/>
<path d="M70.7454 239.191C71.1126 240.626 71.5027 242.039 71.8698 243.474C71.9616 243.821 72.0304 244.169 72.1451 244.493C72.2828 244.933 72.5811 245.025 72.9712 245.187C73.6137 245.465 74.2333 245.72 74.8758 245.998C75.0823 246.09 74.9905 246.438 74.784 246.345C74.0726 246.044 73.3384 245.743 72.627 245.419C72.0304 245.164 71.8927 244.794 71.7321 244.169C71.2961 242.548 70.8831 240.904 70.4471 239.283C70.3783 239.052 70.6995 238.959 70.7454 239.191Z" fill="#383463"/>
<path d="M33.8701 185.498C34.0078 186.818 34.742 190.985 35.6369 195.94C35.7746 196.75 35.9353 197.584 36.0959 198.441C37.6103 206.683 39.3084 215.968 39.4001 217.426C39.6755 221.825 37.4268 232.916 37.335 235.764C37.312 236.481 39.3772 236.065 41.6718 235.856C44.1959 235.625 49.0835 235.764 55.8067 237.361C63.4708 239.19 68.932 238.287 72.7411 237.153C74.1867 236.713 76.3666 235.092 75.8389 233.68C75.6323 233.101 75.334 232.337 74.9898 231.411C74.7374 230.763 74.485 230.045 74.2097 229.304C72.8558 225.553 71.2725 220.737 71.1349 217.889C71.0201 215.806 75.334 185.452 75.334 185.452L72.0527 176.399C56.8623 172.578 40.2033 176.376 40.2033 176.376C40.2033 176.376 32.9981 177.556 33.8701 185.498Z" fill="#FFCA87"/>
<path d="M91.7414 175.056L89.0566 186.146L96.3995 187.327C96.3995 187.327 95.9635 182.951 97.3173 181.84C98.6941 180.751 91.7414 175.056 91.7414 175.056Z" fill="#FABBA5"/>
<path d="M91.0293 179.618C91.0293 179.618 92.4061 175.682 94.7007 174.894C96.9953 174.13 98.2574 174.501 99.1752 175.427C100.093 176.353 100.391 179.317 99.4735 181.192C98.5557 183.044 96.697 184.549 94.563 184.086C92.6126 183.669 91.0293 179.618 91.0293 179.618Z" fill="#FABBA5"/>
<path d="M65.8113 183.252L79.7167 183.923C79.7167 183.923 81.0476 191.448 83.6406 196.542C88.8953 206.845 90.0885 213.698 83.2734 215.551C78.8907 216.732 75.9765 214.625 70.2399 204.136C62.4382 189.874 65.8113 183.252 65.8113 183.252Z" fill="#FFCA87"/>
<path d="M54.8672 169.662C54.8672 169.662 55.0967 170.148 55.5326 170.958C55.7621 171.398 56.0604 171.931 56.3817 172.556C57.1848 174.038 58.2632 175.959 59.5023 177.997C63.1279 183.993 68.1531 191.148 71.7786 191.75C72.4899 191.866 81.875 193.301 79.718 183.901C78.2265 177.418 73.9126 172.463 68.3367 171.491C66.7534 171.213 65.0553 170.958 63.4032 170.727C60.3284 170.287 57.4372 169.939 55.9457 169.777C55.2573 169.708 54.8672 169.662 54.8672 169.662Z" fill="#FFCA87"/>
<path d="M15.8809 204.855C15.8809 204.855 32.9988 208.721 30.8877 206.568C29.3962 205.04 40.7546 191.889 43.0493 191.518C46.6977 190.94 50.4839 183.623 53.0539 177.488C53.8111 175.682 54.4536 173.968 54.9813 172.556C55.1879 171.954 55.3944 171.421 55.555 170.935C55.7156 170.472 55.8533 170.079 55.9451 169.754C56.1057 169.291 56.1745 169.037 56.1745 169.037C56.1745 169.037 53.1686 169.778 49.2907 170.588C47.7992 170.889 46.17 171.213 44.5637 171.491C38.9878 172.463 32.7464 174.964 30.0617 181.053C26.6197 188.879 17.4642 196.45 15.8809 204.855Z" fill="#FFCA87"/>
<path d="M50.4833 170.356C51.4011 170.171 52.1124 169.407 52.2731 168.411C52.6173 166.443 53.0303 163.827 53.3056 161.373C53.3745 160.725 52.732 158.224 52.709 158.178C52.7779 158.201 62.8972 161.165 61.681 164.313C61.6351 164.452 61.5663 164.591 61.5204 164.753C61.2221 165.749 61.1303 167.022 61.1303 168.296C61.1303 169.06 61.1762 169.778 61.2451 170.449C61.9334 170.542 62.6677 170.634 63.402 170.75C63.5397 171.329 63.6315 172.093 63.5856 172.926C63.4708 174.732 62.5759 176.839 59.5241 178.02C59.0652 178.205 58.5603 178.344 58.0096 178.483C55.9445 178.946 54.3153 178.483 53.0762 177.511C51.6076 176.376 50.6209 174.57 50.0014 172.834C49.726 172.07 49.4966 171.306 49.3359 170.611C49.7031 170.518 50.0932 170.449 50.4833 170.356Z" fill="#FABBA5"/>
<path d="M53.1221 161.072C53.1909 161.535 52.9844 163.271 52.9844 163.804C55.279 168.504 61.0156 168.272 61.1074 168.296C61.1074 167.022 61.1992 165.772 61.4975 164.753C59.2487 163.619 54.43 160.863 53.1221 161.072Z" fill="#ED938B"/>
<path d="M65.0314 171.073C65.8804 175.079 63.3564 179.015 59.8456 180.404C56.2889 181.817 51.3095 181.099 49.0838 177.533C47.9135 175.658 47.5005 173.366 47.3398 171.166C47.3398 171.05 47.5005 171.05 47.5005 171.166C47.6381 173.065 47.9594 174.986 48.8084 176.676C49.7492 178.575 51.2637 179.802 53.1682 180.381C56.8167 181.516 61.1994 180.636 63.517 177.255C64.7331 175.496 65.2838 173.25 64.8249 171.12C64.8249 171.004 65.0085 170.958 65.0314 171.073Z" fill="#FFA468"/>
<path d="M51.6757 213.977C49.6105 213.722 46.6275 217.89 44.8377 218.561L41.7858 217.612L39.6289 223.354L43.7822 224.465C44.4017 224.697 45.0213 224.905 45.3655 224.952C48.8763 225.368 49.84 222.984 51.0332 222.868C51.3774 222.845 53.5343 223.099 53.672 222.544C53.7638 222.22 51.6986 221.548 50.689 221.131C50.5743 221.085 50.5743 220.9 50.689 220.854C52.1117 220.437 55.0259 220.9 55.2324 220.066C55.2783 219.881 53.6491 219.349 52.6394 218.978C52.0887 218.77 51.0791 218.839 50.253 218.909C50.1842 218.909 50.1612 218.816 50.2301 218.793C50.9185 218.469 51.8134 218.237 52.3641 218.168C53.3049 218.075 55.7602 218.121 56.265 217.195C56.4715 216.802 53.3737 216.64 52.1346 216.408C51.9281 216.362 51.6757 216.385 51.4004 216.431C51.3545 216.431 51.3315 216.362 51.3774 216.339C51.8134 216.13 52.1805 215.968 52.3411 215.945C53.9015 215.69 55.9437 215.644 56.2879 214.579C56.4026 214.324 52.1346 214.046 51.6757 213.977Z" fill="#FABBA5"/>
<path d="M40.6399 225.669C40.6399 225.669 31.0024 222.057 23.8202 217.287C17.2117 212.888 16.0414 206.776 15.8808 204.854C15.8349 204.206 16.2021 203.604 16.8216 203.372C19.0703 202.585 24.8987 200.987 28.5931 204.298C33.2511 208.466 34.5591 211.013 38.2534 214C40.4792 215.806 44.1048 216.778 44.3342 217.75C44.5407 218.723 42.8886 219.996 42.9574 221.2C43.0263 222.427 41.4659 225.947 40.6399 225.669Z" fill="#FFCA87"/>
<path d="M97.0191 186.309C97.0191 186.309 95.7112 196.681 92.1775 204.6C87.5194 215.111 84.0315 215.551 81.9434 215.829C81.3009 215.922 80.3831 214.81 80.0618 214.255C78.8457 212.194 76.138 206.73 78.6162 202.423C81.7369 196.982 83.9627 195.199 86.1196 190.939C87.4276 188.369 87.657 184.595 88.5519 184.202C89.4698 183.808 91.0072 185.197 92.1775 184.896C93.3936 184.595 97.1109 185.429 97.0191 186.309Z" fill="#FFCA87"/>
<path d="M30.8894 206.568C30.8894 206.568 27.9063 204.507 24.8086 205.086C24.8086 205.086 28.2276 203.79 31.0959 204.994C31.0729 204.994 30.4993 205.943 30.8894 206.568Z" fill="#FFA468"/>
<path d="M36.0273 198.024C36.0273 198.024 37.886 194.69 39.6988 194.204C41.5115 193.718 38.2072 195.732 37.863 198.024C37.5189 200.316 36.7616 202.076 36.7387 201.891C36.6928 201.682 36.0273 198.024 36.0273 198.024Z" fill="#FFA468"/>
<path d="M83.2038 195.639C83.2038 195.639 78.6604 200.224 78.5916 204.6C78.5916 204.6 76.2511 199.182 82.676 194.389L83.2038 195.639Z" fill="#FFA468"/>
<path d="M110.052 205.017C110.029 205.179 110.029 205.318 110.075 205.48C110.075 205.527 110.144 205.504 110.144 205.457C110.098 205.318 110.098 205.179 110.121 205.04C110.121 204.994 110.052 204.971 110.052 205.017Z" fill="#DC826F"/>
<path d="M97.0883 173.991C98.947 173.459 99.7042 173.644 99.9566 174.57C100.209 175.496 99.8419 175.774 97.9603 176.307C96.1016 176.839 94.0365 177.233 93.7611 176.307C93.5316 175.357 95.2297 174.501 97.0883 173.991Z" fill="#FFCCBC"/>
<path d="M97.4558 176.214C99.7275 175.566 100.645 175.705 100.898 176.631C101.15 177.557 100.668 177.858 98.3966 178.507C96.1249 179.155 93.6008 179.687 93.3255 178.761C93.073 177.835 95.1612 176.863 97.4558 176.214Z" fill="#FFCCBC"/>
<path d="M97.7311 178.206C99.888 177.604 100.76 177.743 101.012 178.669C101.265 179.595 100.829 179.896 98.6489 180.498C96.469 181.1 94.0826 181.609 93.8302 180.683C93.5548 179.734 95.5512 178.808 97.7311 178.206Z" fill="#FFCCBC"/>
<path d="M98.2817 180.057C99.842 179.617 100.462 179.78 100.691 180.567C100.898 181.354 100.599 181.585 99.0389 182.025C97.4786 182.465 95.7576 182.789 95.5281 182.002C95.3216 181.215 96.7213 180.497 98.2817 180.057Z" fill="#FFCCBC"/>
<path d="M95.5049 176.909C96.767 176.608 98.052 176.33 99.314 176.029C99.4287 176.006 99.3828 175.82 99.2681 175.843C98.0061 176.145 96.7211 176.423 95.459 176.724C95.3443 176.747 95.3902 176.932 95.5049 176.909Z" fill="#EEA490"/>
<path d="M94.9552 179.34C96.768 179.016 98.5578 178.576 100.302 177.974C100.416 177.928 100.371 177.742 100.256 177.789C98.5119 178.367 96.7221 178.831 94.9093 179.155C94.7716 179.155 94.8175 179.363 94.9552 179.34Z" fill="#EEA490"/>
<path d="M95.8955 181.216C97.3641 180.938 98.8097 180.567 100.209 180.058C100.324 180.012 100.278 179.826 100.164 179.873C98.7638 180.382 97.3182 180.776 95.8497 181.03C95.7349 181.053 95.7808 181.239 95.8955 181.216Z" fill="#EEA490"/>
<path d="M65.5136 145.143C66.5003 143.823 66.7068 141.994 65.8807 140.535C65.0546 139.076 63.3566 138.289 61.7274 138.521C59.1115 138.914 56.4268 141.878 53.6962 140.188C53.6044 140.141 53.6962 139.979 53.788 140.049C55.6237 141.183 57.6889 140.026 59.3869 139.192C60.7407 138.544 62.1634 138.035 63.6549 138.521C66.4544 139.447 67.464 142.874 65.6971 145.235C65.5824 145.328 65.4447 145.235 65.5136 145.143Z" fill="#6D2F3B"/>
<path d="M55.7619 146C55.7619 146 54.4998 145.374 53.3066 145.93C53.3066 145.93 54.2474 145.884 55.0964 146.44C55.9455 146.996 55.7619 146 55.7619 146Z" fill="#2D2B4E"/>
<path d="M50.4141 158.154C50.5747 158.201 51.3549 158.409 52.4333 158.734C52.3874 158.154 50.6665 158.177 50.4141 158.154Z" fill="#FABBA5"/>
<path d="M52.5949 163.873C53.0538 165.17 57.7348 166.119 59.6164 166.281C60.8555 166.374 62.7371 166.628 63.7697 165.864C64.6417 165.216 67.0281 159.868 66.3627 157.159C66.2479 156.626 66.0414 154.426 66.225 152.922C66.5462 150.421 64.7105 146.369 64.7105 146.369C57.4824 141.484 51.4246 148.777 50.9886 151.532C50.5297 154.288 50.7821 158.617 52.5949 163.873Z" fill="#FABBA5"/>
<path d="M55.4394 152.158C55.0723 152.227 55.0264 151.926 55.3476 151.741C56.059 151.255 56.9539 150.769 59.1797 151.347C61.2448 151.88 61.1072 153.061 59.9369 152.899C58.8814 152.76 57.8029 151.718 55.4394 152.158Z" fill="#752D4B"/>
<path d="M66.1325 152.251C66.3161 152.274 66.339 151.649 66.1784 151.487C65.7883 151.093 65.1458 150.815 64.1132 151.44C62.9889 152.112 63.1036 152.853 63.7461 152.621C64.3197 152.39 64.8705 152.042 66.1325 152.251Z" fill="#752D4B"/>
<path d="M56.5176 154.149C56.5176 154.635 56.9306 155.005 57.3895 155.005C57.8714 155.005 58.2385 154.589 58.2385 154.126C58.2385 153.964 58.1927 153.825 58.1238 153.686C58.055 153.57 57.206 153.524 56.8847 153.547C56.7241 153.663 56.5864 153.732 56.5405 153.94C56.5176 154.01 56.5176 154.079 56.5176 154.149Z" fill="#752D4B"/>
<path d="M55.6003 154.312C55.4626 154.683 56.3116 153.408 58.308 153.733C58.7898 153.825 59.2946 154.103 59.6847 154.405C59.8224 154.52 59.8454 154.335 59.7077 154.219C59.2258 153.756 58.7439 153.431 57.9638 153.385C56.6558 153.269 55.6462 154.15 55.6003 154.312Z" fill="#752D4B"/>
<path d="M62.5526 153.293C61.956 153.594 61.6807 154.265 61.7036 154.937C61.7266 155.678 62.1166 156.326 62.5526 156.882C62.8509 157.275 63.5623 157.854 63.3098 158.41C63.1951 158.664 62.9198 158.78 62.6903 158.896C62.3691 159.058 62.0478 159.151 61.7036 159.243C61.6118 159.266 61.5659 159.104 61.6577 159.081C62.0478 158.988 62.4149 158.873 62.7821 158.687C63.0804 158.525 63.2869 158.317 63.1492 157.947C63.0804 157.761 62.9427 157.599 62.805 157.437C62.392 156.951 62.0019 156.442 61.7495 155.84C61.3824 154.913 61.52 153.64 62.4838 153.154C62.5526 153.108 62.6444 153.246 62.5526 153.293Z" fill="#CF8171"/>
<path d="M62.7588 163.526C62.2081 163.341 61.6573 163.341 61.1066 163.526C60.9001 163.596 60.8083 163.271 61.0148 163.202C61.6114 162.993 62.231 162.993 62.8276 163.202C63.0341 163.271 62.9653 163.596 62.7588 163.526Z" fill="#EF9F8A"/>
<path d="M46.8346 155.84C47.9131 159.359 51.7451 161.118 51.7451 161.118C51.3321 158.919 51.0567 154.335 51.5845 154.335C52.1122 154.335 53.6037 155.932 53.4431 155.122C53.2825 154.311 52.4564 153.131 53.4661 151.371C54.4757 149.588 53.5349 147.458 53.5349 147.458C53.5349 147.458 53.5349 147.458 53.5578 147.458C53.5578 147.458 53.5579 147.458 53.5808 147.458C53.7644 147.528 53.9938 147.597 54.2233 147.666C54.8428 147.805 55.623 147.898 56.4491 147.921C57.1834 147.944 57.9406 147.921 58.6978 147.852C59.5009 147.782 60.3041 147.69 61.0154 147.551C61.6808 147.435 62.3004 147.296 62.7593 147.134C63.0576 147.041 63.31 146.972 63.5395 146.926C63.7231 146.902 63.8837 146.879 64.0214 146.879C65.0539 146.856 65.1916 147.481 65.1916 147.481C66.6831 145.328 66.3619 143.916 65.9488 142.596C65.2146 140.234 63.1494 138.405 60.0746 139.308C57.0686 140.188 57.6194 140.281 54.6593 140.095C47.8213 139.655 48.0278 144.356 48.0278 144.356C44.7235 146.37 45.7561 152.297 46.8346 155.84Z" fill="#6D2F3B"/>
<path d="M53.167 155.769C53.167 155.769 51.4689 153.269 49.9545 154.45C48.44 155.63 50.0692 157.714 50.6888 158.525C51.3313 159.381 51.6984 159.381 52.8228 159.08C53.9471 158.779 53.167 155.769 53.167 155.769Z" fill="#FABBA5"/>
<path d="M52.8926 158.849C52.5484 159.497 51.6765 159.474 51.1487 159.08C50.8045 158.849 50.575 158.501 50.3456 158.154C50.0702 157.737 49.8178 157.32 49.6342 156.857C49.313 156.093 49.1524 155.051 49.8637 154.449C50.575 153.871 51.5617 154.102 52.1583 154.727C52.2272 154.797 52.1124 154.936 52.0436 154.843C51.4929 154.264 50.5521 154.033 49.9096 154.635C49.2671 155.237 49.5654 156.279 49.8867 156.973C50.162 157.575 50.5292 158.223 51.011 158.71C51.47 159.173 52.3878 159.474 52.7549 158.756C52.7779 158.663 52.9385 158.756 52.8926 158.849Z" fill="#EF9F8A"/>
<path d="M51.0108 154.936C51.2632 155.029 51.5386 155.168 51.6762 155.423C51.8598 155.701 51.791 155.932 51.7221 156.233C51.5615 156.812 52.1352 156.905 52.4335 157.252C52.5941 157.46 52.64 157.692 52.5252 157.923C52.4793 158.016 52.3187 157.946 52.3646 157.831C52.6629 157.298 51.6074 156.997 51.5156 156.511C51.4697 156.303 51.5844 156.164 51.6303 155.978C51.7451 155.515 51.355 155.214 50.9649 155.075C50.8502 155.052 50.8961 154.89 51.0108 154.936Z" fill="#EF9F8A"/>
<path d="M58.8589 160.03C58.8818 160.285 59.1801 160.725 59.6161 161.118C60.1209 161.558 60.8323 161.929 61.5666 161.882C62.0484 161.859 62.4615 161.697 62.8057 161.465C63.3564 161.118 63.7006 160.586 63.7464 160.192C63.7694 160.123 63.7464 160.076 63.7464 160.007C63.7464 159.984 63.7465 159.984 63.7235 159.96C63.7006 159.914 63.5858 159.891 63.517 159.868C63.1957 159.822 62.6221 159.984 61.6813 160.053C61.0617 160.099 60.0062 159.868 59.3637 159.845C59.2719 159.845 59.2031 159.845 59.1113 159.845C58.9507 159.845 58.8589 159.868 58.8359 159.937C58.8589 159.984 58.8589 160.007 58.8589 160.03Z" fill="#E33B58"/>
<path d="M59.1328 159.868C61.2668 161.398 63.0566 160.494 63.745 160.007V159.984C63.7221 159.938 63.6073 159.915 63.5385 159.891C63.2172 159.845 62.6436 160.007 61.7028 160.077C61.0832 160.123 60.0277 159.891 59.3852 159.868C59.2934 159.868 59.2017 159.868 59.1328 159.868Z" fill="white"/>
<path d="M59.6172 161.119C60.122 161.559 60.8333 161.93 61.5676 161.883C62.0495 161.86 62.4625 161.698 62.8067 161.466C62.3478 161.235 61.3382 160.794 60.535 160.864C60.0761 160.91 59.7778 161.003 59.6172 161.119Z" fill="#FF6576"/>
<path d="M60.4415 139.354C62.0477 138.984 63.7687 139.169 65.0537 140.28C66.2239 141.299 66.6599 142.943 66.0404 144.378C65.9945 144.471 65.8568 144.401 65.9027 144.286C66.5222 142.804 65.9715 141.137 64.7095 140.188C63.4933 139.261 61.933 139.146 60.4874 139.493C60.3726 139.539 60.3267 139.377 60.4415 139.354Z" fill="#6D2F3B"/>
<path d="M47.8906 142.133C47.7299 143.152 47.9364 144.147 48.4872 145.027C48.556 145.12 48.3954 145.212 48.3495 145.12C47.7758 144.217 47.5464 143.175 47.7299 142.11C47.7529 141.994 47.9135 142.04 47.8906 142.133Z" fill="#6D2F3B"/>
<path d="M48.4408 144.286C47.6376 144.541 46.8804 144.911 46.192 145.42C46.1002 145.49 46.0314 145.328 46.1002 145.281C46.8116 144.772 47.5688 144.402 48.3949 144.147C48.5096 144.077 48.5555 144.24 48.4408 144.286Z" fill="#6D2F3B"/>
<path d="M60.2806 147.527C61.841 147.157 62.0016 144.98 61.7263 143.684C61.3821 142.063 59.8447 141.716 58.422 141.669C58.3073 141.669 58.3073 141.507 58.422 141.507C60.0282 141.554 61.6345 142.063 61.9328 143.869C62.1393 145.212 61.9098 147.319 60.3265 147.689C60.2118 147.712 60.1659 147.55 60.2806 147.527Z" fill="#7A3A49"/>
<path d="M58.3525 143.614C59.1556 144.008 59.8899 144.471 60.28 145.328C60.6012 146.045 60.6242 146.833 60.3488 147.573C60.3029 147.666 60.1423 147.643 60.1882 147.527C60.4635 146.763 60.4176 145.953 60.0505 145.235C59.6604 144.517 58.972 144.101 58.2607 143.753C58.1689 143.707 58.2607 143.568 58.3525 143.614Z" fill="#7A3A49"/>
<path d="M53.4427 147.365C52.2036 146.763 51.0793 145.999 50.0696 145.073C49.9778 145.004 50.1155 144.888 50.1844 144.957C51.194 145.86 52.3184 146.624 53.5345 147.226C53.6034 147.273 53.5345 147.412 53.4427 147.365Z" fill="#7A3A49"/>
<path d="M63.4483 154.403C63.6778 154.125 64.1367 153.639 64.6874 153.593C64.8021 153.593 64.9169 153.593 65.0316 153.639C65.2381 153.709 65.5135 153.963 65.7889 154.148C65.8806 154.218 64.5956 152.366 63.5401 154.056C63.4942 154.102 63.4713 154.172 63.4254 154.241C63.3795 154.31 63.3565 154.403 63.3106 154.473C63.2189 154.704 63.2877 154.588 63.4483 154.403Z" fill="#752D4B"/>
<path d="M63.4258 154.241C63.4258 154.288 63.4258 154.334 63.4258 154.404C63.4487 154.519 63.4946 154.681 63.6323 154.774C63.7929 154.89 64.1142 154.959 64.2978 154.89C64.4813 154.82 64.6649 154.728 64.7796 154.542C64.9173 154.334 64.9402 153.964 64.7796 153.778C64.7337 153.709 64.6878 153.663 64.6419 153.616C64.619 153.57 64.5961 153.547 64.5961 153.547L63.9994 153.663L63.6552 153.894L63.5176 154.079L63.4946 154.103C63.5176 154.126 63.4717 154.172 63.4258 154.241Z" fill="#752D4B"/>
<path d="M105.417 141.484L97.5698 142.225L89.8828 142.92L92.6593 124.698L92.9117 123.054L94.7474 111.084L99.2908 124.096L105.417 141.484Z" fill="white"/>
<path d="M97.5698 142.225L89.8828 142.943L92.6593 124.722L92.9117 123.078H95.803C95.803 123.078 95.7571 123.564 95.6882 124.397C95.4588 127.546 95.1605 135.789 97.5698 142.225Z" fill="#CFE6FF"/>
<path d="M122.833 328.562L107.299 329.997L89.8594 142.919L105.417 141.483L122.833 328.562Z" fill="#FF6576"/>
<path d="M118.795 328.933L111.338 329.627L93.8984 142.549L101.379 141.854L118.795 328.933Z" fill="#FB4B63"/>
<path d="M99.2897 124.096L92.6582 124.698L94.2874 113.978L95.7101 113.862L99.2897 124.096Z" fill="#51497A"/>
<path d="M90.0184 182.766C90.0184 182.766 88.8941 178.552 89.4677 177.348C90.0414 176.144 91.7394 173.875 93.0244 173.667C94.8142 173.389 97.5907 172.764 97.3842 173.574C97.2006 174.292 95.7321 175.982 94.3324 175.913C93.7816 175.889 93.8734 177.441 93.5522 177.857C92.0148 179.941 91.7394 182.419 91.7394 182.419L90.0184 182.766Z" fill="#FABBA5"/>
<g opacity="0.6">
<path d="M63.3555 233.68C69.5739 234.444 74.9892 231.411 74.9892 231.411C74.7368 230.762 74.4844 230.045 74.2091 229.304C72.8552 231.851 63.3555 233.68 63.3555 233.68Z" fill="#FFA468"/>
</g>
<path d="M62.002 230.184C62.002 230.184 54.6592 231.689 50.7812 228.123C50.7812 228.123 54.5674 230.137 57.5045 229.906C60.4646 229.697 62.415 229.628 62.002 230.184Z" fill="#FFA468"/>
<g opacity="0.6">
<path d="M60.7176 227.522C60.7176 227.522 57.2298 229.119 55.5547 228.749C55.5547 228.749 58.9966 228.008 60.0063 226.827C61.0389 225.646 61.4748 227.197 60.7176 227.522Z" fill="#FFA468"/>
</g>
<path d="M38.919 214.579C39.7451 215.366 40.7089 215.922 41.7414 216.385C42.1545 216.57 42.5675 216.732 42.9805 216.894C43.5542 217.126 44.059 217.38 44.0131 218.144C43.9902 218.376 43.6919 218.746 43.5771 218.955C43.0953 219.927 42.8199 220.923 42.6593 221.988C42.5446 222.659 42.4757 223.377 42.1315 223.979C41.6267 224.928 40.4335 225.646 39.4927 224.766C39.355 224.65 39.1485 224.836 39.2862 224.975C40.0205 225.646 41.0531 225.577 41.7873 224.928C43.0264 223.817 42.797 221.872 43.2788 220.413C43.5313 219.603 44.2196 218.793 44.3803 218.006C44.472 217.635 44.4032 217.404 44.1279 217.126C43.6001 216.616 42.4987 216.408 41.8562 216.107C40.8465 215.644 39.9057 215.111 39.0797 214.347C38.9879 214.255 38.7814 214.463 38.919 214.579Z" fill="#FFA468"/>
<path d="M36.6229 197.422C38.4357 195.547 40.0419 193.463 42.7955 193.139C42.9791 193.116 42.9791 192.838 42.7955 192.861C39.9272 193.185 38.298 195.246 36.4164 197.214C36.3017 197.353 36.5082 197.561 36.6229 197.422Z" fill="#FFA468"/>
<path d="M73.7272 190.013C73.6354 196.427 73.0159 202.817 71.8685 209.138C71.8456 209.323 72.1209 209.393 72.1439 209.207C73.2912 202.863 73.9108 196.45 74.0025 190.013C74.0255 189.828 73.7272 189.828 73.7272 190.013Z" fill="#FFA468"/>
<path d="M83.1585 195.593C79.4871 199.066 77.6055 203.905 78.5233 208.976C78.5463 209.161 78.8216 209.092 78.7987 208.906C77.9038 203.952 79.7854 199.205 83.365 195.825C83.5027 195.663 83.2961 195.454 83.1585 195.593Z" fill="#FFA468"/>
<path d="M30.843 206.244C28.7089 205.04 26.3455 204.6 23.9361 205.017C23.7525 205.04 23.8214 205.318 24.005 205.295C26.3455 204.901 28.6401 205.318 30.7053 206.499C30.8659 206.568 31.0036 206.336 30.843 206.244Z" fill="#FFA468"/>
<path d="M73.7956 193.996C74.4152 192.954 74.9659 191.889 75.4248 190.754C75.4936 190.592 75.2412 190.43 75.1724 190.615C74.7135 191.727 74.1628 192.815 73.5432 193.857C73.4514 193.996 73.7038 194.158 73.7956 193.996Z" fill="#FFA468"/>
<path d="M247.361 76.8174H161.565C160.578 76.8174 159.752 76.007 159.752 74.9883C159.752 73.9927 160.555 73.1592 161.565 73.1592H247.361C248.348 73.1592 249.174 73.9695 249.174 74.9883C249.151 75.9839 248.348 76.8174 247.361 76.8174Z" fill="#75ACF2"/>
<path d="M253.97 85.7539H154.934C153.947 85.7539 153.121 84.9436 153.121 83.9248C153.121 82.9292 153.924 82.0957 154.934 82.0957H253.97C254.957 82.0957 255.783 82.9061 255.783 83.9248C255.783 84.9204 254.957 85.7539 253.97 85.7539Z" fill="#75ACF2"/>
<path d="M212.301 116.502H129.74C128.754 116.502 127.928 115.692 127.928 114.673C127.928 113.677 128.731 112.844 129.74 112.844H212.324C213.311 112.844 214.137 113.654 214.137 114.673C214.114 115.692 213.311 116.502 212.301 116.502Z" fill="#CFE6FF"/>
<path d="M279.487 116.502H222.19C221.203 116.502 220.377 115.692 220.377 114.673C220.377 113.677 221.18 112.844 222.19 112.844H279.487C280.473 112.844 281.299 113.654 281.299 114.673C281.276 115.692 280.473 116.502 279.487 116.502Z" fill="#CFE6FF"/>
<path d="M187.841 103.605H129.74C128.754 103.605 127.928 102.795 127.928 101.776C127.928 100.781 128.731 99.9473 129.74 99.9473H187.841C188.827 99.9473 189.653 100.758 189.653 101.776C189.653 102.795 188.827 103.605 187.841 103.605Z" fill="#CFE6FF"/>
<path d="M243.072 103.605H198.143C197.156 103.605 196.33 102.795 196.33 101.776C196.33 100.781 197.133 99.9473 198.143 99.9473H243.072C244.058 99.9473 244.884 100.758 244.884 101.776C244.884 102.795 244.058 103.605 243.072 103.605Z" fill="#CFE6FF"/>
<path d="M279.487 103.605H251.86C250.873 103.605 250.047 102.795 250.047 101.776C250.047 100.781 250.85 99.9473 251.86 99.9473H279.487C280.474 99.9473 281.3 100.758 281.3 101.776C281.277 102.795 280.474 103.605 279.487 103.605Z" fill="#CFE6FF"/>
<path d="M187.841 129.398H129.74C128.754 129.398 127.928 128.588 127.928 127.569C127.928 126.574 128.731 125.74 129.74 125.74H187.841C188.827 125.74 189.653 126.551 189.653 127.569C189.653 128.565 188.827 129.398 187.841 129.398Z" fill="#CFE6FF"/>
<path d="M243.072 129.398H198.143C197.156 129.398 196.33 128.588 196.33 127.569C196.33 126.574 197.133 125.74 198.143 125.74H243.072C244.058 125.74 244.884 126.551 244.884 127.569C244.884 128.565 244.058 129.398 243.072 129.398Z" fill="#CFE6FF"/>
<path d="M279.487 129.398H251.86C250.873 129.398 250.047 128.588 250.047 127.569C250.047 126.574 250.85 125.74 251.86 125.74H279.487C280.474 125.74 281.3 126.551 281.3 127.569C281.277 128.565 280.474 129.398 279.487 129.398Z" fill="#CFE6FF"/>
<path d="M195.413 155.538H129.695C128.708 155.538 127.928 154.728 127.928 153.756V153.686C127.928 152.691 128.731 151.903 129.695 151.903H195.413C196.399 151.903 197.18 152.714 197.18 153.686V153.756C197.203 154.751 196.399 155.538 195.413 155.538Z" fill="#CFE6FF"/>
<path d="M187.841 142.665H129.74C128.754 142.665 127.928 141.855 127.928 140.836C127.928 139.84 128.731 139.007 129.74 139.007H187.841C188.827 139.007 189.653 139.817 189.653 140.836C189.653 141.832 188.827 142.665 187.841 142.665Z" fill="#CFE6FF"/>
<path d="M243.072 142.665H198.143C197.156 142.665 196.33 141.855 196.33 140.836C196.33 139.84 197.133 139.007 198.143 139.007H243.072C244.058 139.007 244.884 139.817 244.884 140.836C244.884 141.832 244.058 142.665 243.072 142.665Z" fill="#CFE6FF"/>
<path d="M279.487 142.665H251.86C250.873 142.665 250.047 141.855 250.047 140.836C250.047 139.84 250.85 139.007 251.86 139.007H279.487C280.474 139.007 281.3 139.817 281.3 140.836C281.277 141.832 280.474 142.665 279.487 142.665Z" fill="#CFE6FF"/>
<path d="M129.923 182.165H176.55C177.33 182.165 177.95 181.539 177.95 180.752C177.95 179.965 177.33 179.34 176.55 179.34H129.923C129.143 179.34 128.523 179.965 128.523 180.752C128.523 181.516 129.166 182.165 129.923 182.165Z" fill="#CFE6FF"/>
<path d="M129.923 202.192H176.55C177.33 202.192 177.95 201.567 177.95 200.78C177.95 199.992 177.33 199.367 176.55 199.367H129.923C129.143 199.367 128.523 199.992 128.523 200.78C128.523 201.544 129.166 202.192 129.923 202.192Z" fill="#CFE6FF"/>
<path d="M129.923 172.162H152.479C153.26 172.162 153.879 171.537 153.879 170.75C153.879 169.963 153.26 169.337 152.479 169.337H129.923C129.143 169.337 128.523 169.963 128.523 170.75C128.523 171.537 129.166 172.162 129.923 172.162Z" fill="#CFE6FF"/>
<path d="M129.923 192.143H152.479C153.26 192.143 153.879 191.518 153.879 190.731C153.879 189.943 153.26 189.318 152.479 189.318H129.923C129.143 189.318 128.523 189.943 128.523 190.731C128.523 191.495 129.166 192.143 129.923 192.143Z" fill="#CFE6FF"/>
<path d="M129.923 212.009H152.479C153.26 212.009 153.879 211.384 153.879 210.596C153.879 209.809 153.26 209.184 152.479 209.184H129.923C129.143 209.184 128.523 209.809 128.523 210.596C128.523 211.384 129.166 212.009 129.923 212.009Z" fill="#CFE6FF"/>
</svg>
