<svg width="38" height="30" viewBox="0 0 38 30" fill="none" xmlns="http://www.w3.org/2000/svg">
<path d="M8.8761 0.00273288C12.8761 -0.103267 17.2201 2.87273 17.9221 9.20273L17.9761 9.82873L17.9781 9.84073C18.3601 16.4787 13.7301 25.5547 3.6161 29.9187C3.39107 30.0158 3.13823 30.0269 2.90558 29.9498C2.67294 29.8727 2.47669 29.7129 2.3541 29.5007L0.134102 25.6627C0.0679118 25.5482 0.0251195 25.4216 0.00820436 25.2903C-0.00871075 25.1591 0.000587966 25.0258 0.0355615 24.8982C0.0705349 24.7706 0.130488 24.6512 0.211946 24.5469C0.293404 24.4426 0.394747 24.3556 0.510102 24.2907C3.9301 22.3667 6.5961 19.3487 8.2001 15.6867C5.8201 15.2667 4.1101 14.2807 2.9641 12.9667C1.6301 11.4347 1.1541 9.56673 1.1541 7.93273C1.1541 3.50473 4.5601 -0.0772671 8.8741 0.00273288M28.8741 0.00273288C32.8741 -0.103267 37.2181 2.87273 37.9201 9.20273L37.9741 9.82873L37.9761 9.84073C38.3581 16.4787 33.7281 25.5547 23.6141 29.9187C23.3891 30.0158 23.1362 30.0269 22.9036 29.9498C22.6709 29.8727 22.4747 29.7129 22.3521 29.5007L20.1321 25.6627C20.0659 25.5482 20.0231 25.4216 20.0062 25.2903C19.9893 25.1591 19.9986 25.0258 20.0336 24.8982C20.0685 24.7706 20.1285 24.6512 20.2099 24.5469C20.2914 24.4426 20.3927 24.3556 20.5081 24.2907C23.9281 22.3667 26.5941 19.3487 28.1981 15.6867C25.8181 15.2667 24.1081 14.2807 22.9621 12.9667C21.6281 11.4347 21.1521 9.56673 21.1521 7.93273C21.1521 3.50473 24.5621 -0.0772671 28.8741 0.00273288Z" fill="#E7440B"/>
</svg>
