<svg width="264" height="264" viewBox="0 0 264 264" fill="none" xmlns="http://www.w3.org/2000/svg">
<path d="M132.131 248.107C201.119 248.107 257.045 215.818 257.045 175.988C257.045 136.157 201.119 103.868 132.131 103.868C63.1428 103.868 7.2168 136.157 7.2168 175.988C7.2168 215.818 63.1428 248.107 132.131 248.107Z" fill="#F5F5F5"/>
<path d="M222.663 156.562L195.703 140.976C195.258 140.749 194.77 140.62 194.271 140.597C193.772 140.574 193.274 140.658 192.81 140.844L162.65 154.772C161.832 155.147 161.806 155.828 162.582 156.272L196.194 175.676C196.622 175.894 197.099 175.996 197.578 175.971C198.057 175.946 198.522 175.795 198.924 175.533L222.753 158.32C222.916 158.234 223.051 158.102 223.142 157.942C223.233 157.781 223.277 157.597 223.267 157.413C223.258 157.228 223.196 157.05 223.089 156.899C222.982 156.749 222.834 156.632 222.663 156.562Z" fill="#E0E0E0"/>
<path d="M40.9309 156.562L67.8905 140.976C68.3356 140.749 68.824 140.62 69.323 140.597C69.822 140.574 70.3201 140.658 70.784 140.844L100.943 154.772C101.762 155.147 101.788 155.828 101.012 156.272L67.4048 175.676C66.9764 175.894 66.4982 175.996 66.0182 175.971C65.5381 175.946 65.0731 175.795 64.6697 175.533L40.8411 158.32C40.6796 158.232 40.5463 158.101 40.4564 157.94C40.3666 157.779 40.3239 157.597 40.3333 157.413C40.3427 157.229 40.4037 157.052 40.5095 156.902C40.6152 156.751 40.7612 156.633 40.9309 156.562Z" fill="#E0E0E0"/>
<path d="M42.9529 190.819L128.304 239.965C128.722 240.179 129.184 240.29 129.653 240.29C130.122 240.29 130.585 240.179 131.002 239.965L218.397 189.473C219.147 189.045 219.147 188.348 218.397 187.889L133.056 138.769C132.637 138.558 132.174 138.448 131.704 138.448C131.235 138.448 130.772 138.558 130.353 138.769L42.9529 189.262C42.2032 189.689 42.2032 190.391 42.9529 190.819Z" fill="#E0E0E0"/>
<path d="M188.358 56.8284C186.674 56.9499 182.371 56.4641 179.805 59.6427C177.085 63.0007 167.708 76.5387 167.708 76.5387L158.341 62.6417L147.961 57.1347C148.357 62.0028 160.739 82.9275 162.613 85.4777C164.487 88.028 166.615 90.2297 170.681 86.8611C174.746 83.4924 184.097 70.6145 184.097 70.6145C184.097 70.6145 190.043 56.707 188.358 56.8284Z" fill="#FFA8A7"/>
<path d="M189.404 56.5752C189.404 56.5752 184.282 55.9099 181.389 57.8107C178.496 59.7115 170.48 71.7658 170.48 71.7658C170.48 71.7658 171.172 77.6318 178.052 79.3373L187.809 66.4805L189.404 56.5752Z" fill="#455A64"/>
<path d="M151.927 59.1782C155.248 57.2616 160.639 57.2616 163.965 59.1782C165.623 60.1392 166.452 61.3905 166.452 62.6472V64.2312C166.452 65.4931 165.628 66.7497 163.965 67.7107C160.639 69.6326 155.248 69.6326 151.927 67.7107C150.263 66.755 149.44 65.4984 149.44 64.247V62.626C149.424 61.3958 150.263 60.1392 151.927 59.1782Z" fill="#FFBDA7"/>
<path d="M163.965 66.132C160.638 68.0486 155.248 68.0486 151.926 66.132C148.605 64.2153 148.6 61.1002 151.926 59.1782C155.253 57.2563 160.638 57.2616 163.965 59.1782C167.291 61.0949 167.291 64.2101 163.965 66.132Z" fill="#F0997A"/>
<path d="M151.927 57.1557C155.248 55.2391 160.639 55.2391 163.965 57.1557C165.623 58.1167 166.452 59.3681 166.452 60.6247V62.2351C166.452 63.497 165.628 64.7537 163.965 65.7146C160.639 67.6365 155.248 67.6365 151.927 65.7146C150.263 64.7589 149.44 63.5023 149.44 62.2509V60.63C149.424 59.3733 150.263 58.1167 151.927 57.1557Z" fill="#B16668"/>
<path d="M163.965 64.1095C160.638 66.0314 155.248 66.0314 151.926 64.1095C148.605 62.1876 148.6 59.0777 151.926 57.1558C155.253 55.2338 160.638 55.2391 163.965 57.1558C167.291 59.0724 167.291 62.1876 163.965 64.1095Z" fill="#9A4A4D"/>
<path d="M151.911 58.8242H163.981C165.322 60.7884 165.322 63.9141 165.322 64.5266C165.322 65.1391 165.254 65.5298 164.266 65.3081C160.124 64.3013 155.8 64.3013 151.658 65.3081C150.654 65.5298 150.602 65.1391 150.602 64.5266C150.602 63.9141 150.565 60.7884 151.911 58.8242Z" fill="#F0F0F0"/>
<path d="M165.027 63.2069C164.766 63.6526 164.342 63.9785 163.844 64.1151C163.363 64.2365 162.856 64.1943 162.365 64.2682C161.357 64.4213 160.676 65.1077 159.768 65.472C159.384 65.6272 158.971 65.6922 158.559 65.6621C158.099 65.6194 157.649 65.5017 157.228 65.3136C156.547 65.0443 155.887 64.7011 155.185 64.4899C154.635 64.3094 154.051 64.2588 153.479 64.3421C153.008 64.4436 152.516 64.3937 152.075 64.1995C151.235 63.8035 150.95 62.7159 150.19 62.1879C149.588 61.7655 148.706 61.6915 148.352 61.0527C148.243 60.8126 148.207 60.5457 148.25 60.2854C148.292 60.0252 148.41 59.7832 148.59 59.5901C148.953 59.2088 149.41 58.9301 149.915 58.7823C150.844 58.4714 151.806 58.2746 152.782 58.1962C154.973 57.9744 157.17 57.8424 159.372 57.7843C161.573 57.7263 163.648 57.6576 165.755 58.3123C166.24 58.4445 166.696 58.6685 167.096 58.9723C167.294 59.1294 167.452 59.3307 167.557 59.56C167.663 59.7893 167.713 60.0401 167.703 60.2923C167.646 60.5245 167.541 60.7422 167.395 60.9313C167.248 61.1204 167.064 61.2769 166.853 61.3906C166.6 61.5648 166.325 61.681 166.056 61.8711C165.642 62.257 165.294 62.7083 165.027 63.2069Z" fill="#E7440B"/>
<path d="M149.154 58.0798C149.148 58.0574 149.148 58.0336 149.154 58.0112C149.93 55.0385 153.563 52.7998 157.919 52.7998C162.275 52.7998 165.918 55.0385 166.694 58.0112C166.701 58.0336 166.701 58.0574 166.694 58.0798C166.797 58.4058 166.843 58.7468 166.832 59.0883C166.795 60.3819 165.923 61.6649 164.218 62.6417C160.728 64.6534 155.078 64.6534 151.588 62.6417C149.888 61.6649 149.012 60.3819 148.975 59.0883C148.977 58.7444 149.037 58.4033 149.154 58.0798Z" fill="#FFBDA7"/>
<path d="M151.035 55.1285L156.373 54.1992C156.373 54.1992 159.921 55.4295 159.958 55.4928C159.995 55.5562 161.864 56.7125 161.864 56.7125C162.186 56.9871 161.742 57.6946 161.098 57.7685C160.719 57.7942 160.338 57.7942 159.958 57.7685C159.958 57.7685 158.833 58.9143 156.304 59.1255C153.775 59.3367 152.017 58.249 151.056 57.9322C150.258 57.6682 149.762 57.4781 149.303 57.6154C149.656 56.651 150.253 55.7943 151.035 55.1285Z" fill="#F0997A"/>
<path d="M150.955 61.0845C153.178 62.7793 158.875 63.339 162.439 61.5385C166.003 59.7381 166.135 56.6968 165.026 55.2817C165.833 56.0054 166.419 56.9426 166.716 57.9851C166.722 58.0075 166.722 58.0313 166.716 58.0537C166.818 58.3797 166.864 58.7207 166.853 59.0622C166.816 60.3558 165.945 61.6389 164.239 62.6157C160.749 64.6273 155.1 64.6273 151.609 62.6157C149.909 61.6389 149.033 60.3558 148.996 59.0622C148.984 58.7207 149.031 58.3797 149.133 58.0537C149.133 58.0537 149.017 59.6061 150.955 61.0845Z" fill="#F0997A"/>
<path d="M149.038 58.6077C147.982 58.9245 147.882 56.6119 147.929 56.3426C148.022 55.7536 148.282 55.2037 148.679 54.7586C149.878 53.3964 151.103 53.2908 152.544 52.3351C153.014 51.9633 153.552 51.6871 154.128 51.522C154.72 51.5281 155.303 51.6614 155.839 51.9127C157.951 52.9159 161.647 55.9044 161.435 55.7301C161.624 55.8802 161.8 56.0444 161.963 56.2212C162.175 56.5063 161.879 56.8548 161.673 56.9921C161.398 57.1668 161.09 57.2816 160.768 57.3289C160.446 57.3762 160.117 57.355 159.804 57.2666C158.859 57.8776 157.789 58.2675 156.673 58.4071C155.359 58.6478 154.005 58.5422 152.745 58.1009C150.247 57.0713 149.45 56.6647 149.038 58.6077Z" fill="#FFA8A7"/>
<path d="M215.424 117.849V156.947C215.433 157.12 215.483 157.288 215.569 157.437C215.655 157.587 215.776 157.714 215.92 157.808L217.256 158.574C217.409 158.652 217.578 158.692 217.75 158.692C217.921 158.692 218.09 158.652 218.243 158.574L219.579 157.808C219.724 157.714 219.844 157.587 219.93 157.437C220.016 157.288 220.066 157.12 220.076 156.947V117.849C220.076 117.774 220.061 117.699 220.032 117.63C220.003 117.56 219.96 117.497 219.907 117.444C219.853 117.391 219.79 117.349 219.72 117.321C219.65 117.292 219.575 117.278 219.5 117.279H215.999C215.924 117.278 215.849 117.292 215.78 117.321C215.71 117.349 215.646 117.391 215.593 117.444C215.539 117.497 215.497 117.56 215.468 117.63C215.439 117.699 215.424 117.774 215.424 117.849Z" fill="#E7440B"/>
<path opacity="0.6" d="M215.424 117.849V156.947C215.433 157.12 215.483 157.288 215.569 157.437C215.655 157.587 215.776 157.714 215.92 157.808L217.256 158.574C217.409 158.652 217.578 158.692 217.75 158.692C217.921 158.692 218.09 158.652 218.243 158.574L219.579 157.808C219.724 157.714 219.844 157.587 219.93 157.437C220.016 157.288 220.066 157.12 220.076 156.947V117.849C220.076 117.774 220.061 117.699 220.032 117.63C220.003 117.56 219.96 117.497 219.907 117.444C219.853 117.391 219.79 117.349 219.72 117.321C219.65 117.292 219.575 117.278 219.5 117.279H215.999C215.924 117.278 215.849 117.292 215.78 117.321C215.71 117.349 215.646 117.391 215.593 117.444C215.539 117.497 215.497 117.56 215.468 117.63C215.439 117.699 215.424 117.774 215.424 117.849Z" fill="black"/>
<path d="M219.489 117.279H218.312C218.237 117.278 218.162 117.292 218.092 117.321C218.022 117.349 217.959 117.391 217.905 117.444C217.852 117.497 217.809 117.56 217.78 117.63C217.751 117.699 217.736 117.774 217.736 117.849V158.289C217.736 158.605 217.958 158.732 218.227 158.574L219.563 157.808C219.708 157.714 219.828 157.587 219.914 157.437C220 157.288 220.05 157.12 220.06 156.947V117.849C220.06 117.698 219.999 117.553 219.893 117.446C219.786 117.339 219.641 117.279 219.489 117.279Z" fill="#E7440B"/>
<path opacity="0.4" d="M219.489 117.279H218.312C218.237 117.278 218.162 117.292 218.092 117.321C218.022 117.349 217.959 117.391 217.905 117.444C217.852 117.497 217.809 117.56 217.78 117.63C217.751 117.699 217.736 117.774 217.736 117.849V158.289C217.736 158.605 217.958 158.732 218.227 158.574L219.563 157.808C219.708 157.714 219.828 157.587 219.914 157.437C220 157.288 220.05 157.12 220.06 156.947V117.849C220.06 117.698 219.999 117.553 219.893 117.446C219.786 117.339 219.641 117.279 219.489 117.279Z" fill="black"/>
<path d="M192.979 130.754V169.852C192.985 170.024 193.034 170.192 193.12 170.342C193.207 170.491 193.329 170.616 193.475 170.708L194.805 171.478C194.959 171.556 195.129 171.597 195.302 171.597C195.474 171.597 195.644 171.556 195.798 171.478L197.129 170.708C197.275 170.616 197.397 170.491 197.483 170.342C197.57 170.192 197.618 170.024 197.625 169.852V130.754C197.626 130.678 197.611 130.604 197.583 130.534C197.555 130.464 197.513 130.401 197.46 130.347C197.407 130.294 197.344 130.251 197.274 130.222C197.205 130.193 197.13 130.178 197.055 130.178H193.549C193.397 130.18 193.252 130.241 193.145 130.349C193.038 130.456 192.979 130.602 192.979 130.754Z" fill="#E7440B"/>
<path opacity="0.6" d="M192.979 130.754V169.852C192.985 170.024 193.034 170.192 193.12 170.342C193.207 170.491 193.329 170.616 193.475 170.708L194.805 171.478C194.959 171.556 195.129 171.597 195.302 171.597C195.474 171.597 195.644 171.556 195.798 171.478L197.129 170.708C197.275 170.616 197.397 170.491 197.483 170.342C197.57 170.192 197.618 170.024 197.625 169.852V130.754C197.626 130.678 197.611 130.604 197.583 130.534C197.555 130.464 197.513 130.401 197.46 130.347C197.407 130.294 197.344 130.251 197.274 130.222C197.205 130.193 197.13 130.178 197.055 130.178H193.549C193.397 130.18 193.252 130.241 193.145 130.349C193.038 130.456 192.979 130.602 192.979 130.754Z" fill="black"/>
<path d="M197.055 130.178H195.888C195.812 130.178 195.738 130.193 195.668 130.222C195.598 130.251 195.535 130.293 195.481 130.347C195.428 130.4 195.385 130.464 195.356 130.534C195.327 130.603 195.313 130.678 195.312 130.754V171.193C195.312 171.51 195.534 171.637 195.809 171.478L197.139 170.708C197.286 170.616 197.407 170.491 197.494 170.342C197.58 170.193 197.629 170.024 197.636 169.852V130.754C197.636 130.678 197.622 130.602 197.593 130.532C197.564 130.461 197.521 130.397 197.467 130.343C197.413 130.29 197.348 130.247 197.278 130.219C197.207 130.191 197.131 130.177 197.055 130.178Z" fill="#E7440B"/>
<path opacity="0.4" d="M197.055 130.178H195.888C195.812 130.178 195.738 130.193 195.668 130.222C195.598 130.251 195.535 130.293 195.481 130.347C195.428 130.4 195.385 130.464 195.356 130.534C195.327 130.603 195.313 130.678 195.312 130.754V171.193C195.312 171.51 195.534 171.637 195.809 171.478L197.139 170.708C197.286 170.616 197.407 170.491 197.494 170.342C197.58 170.193 197.629 170.024 197.636 169.852V130.754C197.636 130.678 197.622 130.602 197.593 130.532C197.564 130.461 197.521 130.397 197.467 130.343C197.413 130.29 197.348 130.247 197.278 130.219C197.207 130.191 197.131 130.177 197.055 130.178Z" fill="black"/>
<path d="M194.468 102.052C194.532 102.603 194.377 103.157 194.036 103.594C193.695 104.032 193.196 104.318 192.646 104.391H192.387C191.877 104.387 191.385 104.199 191.003 103.862C190.62 103.524 190.373 103.059 190.307 102.553C189.098 92.9013 190.835 71.3114 194.948 59.1463C195.37 57.8949 196.58 57.6204 197.72 58.2804C198.591 58.8084 199.225 59.5476 198.892 60.498C194.937 71.9397 193.306 92.7535 194.468 102.052Z" fill="#455A64"/>
<path d="M218.787 107.606C218.929 107.607 219.07 107.584 219.204 107.538C219.371 107.483 219.525 107.397 219.658 107.282C219.791 107.168 219.9 107.029 219.979 106.872C220.058 106.716 220.105 106.545 220.118 106.37C220.131 106.195 220.109 106.02 220.054 105.853C216.96 96.4497 201.759 88.0862 191.943 88.0862C191.753 88.0566 191.558 88.0685 191.373 88.1213C191.187 88.174 191.016 88.2662 190.869 88.3916C190.723 88.5171 190.605 88.6727 190.525 88.8478C190.444 89.0229 190.402 89.2134 190.402 89.4062C190.402 89.5989 190.444 89.7894 190.525 89.9645C190.605 90.1396 190.723 90.2953 190.869 90.4207C191.016 90.5461 191.187 90.6383 191.373 90.691C191.558 90.7438 191.753 90.7558 191.943 90.7262C200.824 90.7262 214.822 98.4561 217.52 106.661C217.603 106.933 217.771 107.17 217.999 107.34C218.227 107.51 218.503 107.603 218.787 107.606Z" fill="#E7440B"/>
<path d="M220.224 95.4147C220.366 95.4147 220.507 95.3915 220.641 95.3461C220.977 95.235 221.255 94.9954 221.414 94.6796C221.574 94.3639 221.601 93.9978 221.491 93.6617C218.276 83.8937 202.615 75.9896 192.842 76.9928C192.522 77.0637 192.239 77.2499 192.047 77.5158C191.855 77.7818 191.768 78.1091 191.802 78.4352C191.836 78.7613 191.989 79.0636 192.231 79.2845C192.473 79.5053 192.789 79.6293 193.116 79.6328C201.776 78.751 216.137 85.9213 218.957 94.4801C219.04 94.7509 219.208 94.9878 219.437 95.156C219.665 95.3242 219.941 95.4149 220.224 95.4147Z" fill="#E7440B"/>
<path d="M223.191 85.7524C223.372 85.7511 223.552 85.7134 223.719 85.6416C224.043 85.4992 224.297 85.2341 224.426 84.9044C224.554 84.5748 224.547 84.2075 224.405 83.8833C219.806 73.4078 203.443 64.8067 194.594 66.0369C194.262 66.1062 193.969 66.2989 193.774 66.5761C193.579 66.8533 193.497 67.1942 193.544 67.5298C193.591 67.8654 193.764 68.1706 194.028 68.3836C194.291 68.5966 194.626 68.7014 194.964 68.6769C202.783 67.5892 217.847 75.5937 221.96 84.9499C222.065 85.1888 222.237 85.392 222.456 85.5346C222.674 85.6771 222.93 85.7528 223.191 85.7524Z" fill="#E7440B"/>
<g opacity="0.6">
<path d="M218.787 107.606C218.929 107.607 219.07 107.584 219.204 107.538C219.371 107.483 219.525 107.397 219.658 107.282C219.791 107.168 219.9 107.029 219.979 106.872C220.058 106.716 220.105 106.545 220.118 106.37C220.131 106.195 220.109 106.02 220.054 105.853C216.96 96.4497 201.759 88.0862 191.943 88.0862C191.753 88.0566 191.558 88.0685 191.373 88.1213C191.187 88.174 191.016 88.2662 190.869 88.3916C190.723 88.5171 190.605 88.6727 190.525 88.8478C190.444 89.0229 190.402 89.2134 190.402 89.4062C190.402 89.5989 190.444 89.7894 190.525 89.9645C190.605 90.1396 190.723 90.2953 190.869 90.4207C191.016 90.5461 191.187 90.6383 191.373 90.691C191.558 90.7438 191.753 90.7558 191.943 90.7262C200.824 90.7262 214.822 98.4561 217.52 106.661C217.603 106.933 217.771 107.17 217.999 107.34C218.227 107.51 218.503 107.603 218.787 107.606Z" fill="black"/>
</g>
<g opacity="0.6">
<path d="M220.224 95.4147C220.366 95.4147 220.507 95.3915 220.641 95.3461C220.977 95.235 221.255 94.9954 221.414 94.6796C221.574 94.3639 221.601 93.9978 221.491 93.6617C218.276 83.8937 202.615 75.9896 192.842 76.9928C192.522 77.0637 192.239 77.2499 192.047 77.5158C191.855 77.7818 191.768 78.1091 191.802 78.4352C191.836 78.7613 191.989 79.0636 192.231 79.2845C192.473 79.5053 192.789 79.6293 193.116 79.6328C201.776 78.751 216.137 85.9213 218.957 94.4801C219.04 94.7509 219.208 94.9878 219.437 95.156C219.665 95.3242 219.941 95.4149 220.224 95.4147Z" fill="black"/>
</g>
<g opacity="0.6">
<path d="M223.191 85.7524C223.372 85.7511 223.552 85.7134 223.719 85.6416C224.043 85.4992 224.297 85.2341 224.426 84.9044C224.554 84.5748 224.547 84.2075 224.405 83.8833C219.806 73.4078 203.443 64.8067 194.594 66.0369C194.262 66.1062 193.969 66.2989 193.774 66.5761C193.579 66.8533 193.497 67.1942 193.544 67.5298C193.591 67.8654 193.764 68.1706 194.028 68.3836C194.291 68.5966 194.626 68.7014 194.964 68.6769C202.783 67.5892 217.847 75.5937 221.96 84.9499C222.065 85.1888 222.237 85.392 222.456 85.5346C222.674 85.6771 222.93 85.7528 223.191 85.7524Z" fill="black"/>
</g>
<path d="M226.585 74.5429C227.023 74.8046 227.352 75.2162 227.51 75.7016C227.668 76.1869 227.645 76.7131 227.445 77.1829C222.625 88.4451 220.085 102.21 220.085 117.279V119.328L219.927 119.492C219.845 119.576 219.746 119.643 219.637 119.687C219.528 119.732 219.411 119.753 219.293 119.75C218.991 119.733 218.694 119.662 218.417 119.539C218.278 119.483 218.135 119.437 217.989 119.402C217.429 119.402 216.892 119.179 216.496 118.783C216.099 118.387 215.877 117.85 215.877 117.29C215.877 101.661 218.517 87.331 223.586 75.5355C223.704 75.2638 223.877 75.0199 224.095 74.8196C224.314 74.6194 224.572 74.4672 224.852 74.3731C225.133 74.279 225.431 74.245 225.726 74.2734C226.02 74.3017 226.306 74.3917 226.564 74.5376L226.585 74.5429Z" fill="#E7440B"/>
<path opacity="0.4" d="M226.585 74.5429C227.023 74.8046 227.352 75.2162 227.51 75.7016C227.668 76.1869 227.645 76.7131 227.445 77.1829C222.625 88.4451 220.085 102.21 220.085 117.279V119.328L219.927 119.492C219.845 119.576 219.746 119.643 219.637 119.687C219.528 119.732 219.411 119.753 219.293 119.75C218.991 119.733 218.694 119.662 218.417 119.539C218.278 119.483 218.135 119.437 217.989 119.402C217.429 119.402 216.892 119.179 216.496 118.783C216.099 118.387 215.877 117.85 215.877 117.29C215.877 101.661 218.517 87.331 223.586 75.5355C223.704 75.2638 223.877 75.0199 224.095 74.8196C224.314 74.6194 224.572 74.4672 224.852 74.3731C225.133 74.279 225.431 74.245 225.726 74.2734C226.02 74.3017 226.306 74.3917 226.564 74.5376L226.585 74.5429Z" fill="black"/>
<path d="M220.065 118.8V119.328C220.039 119.796 219.915 120.254 219.702 120.671C219.488 121.089 219.189 121.457 218.824 121.751L196.537 137.861C196.161 138.106 195.726 138.248 195.277 138.271C194.828 138.294 194.381 138.198 193.982 137.993L162.545 119.856C162.16 119.604 161.84 119.266 161.611 118.868C161.382 118.47 161.249 118.023 161.225 117.564V117.036C161.248 116.586 161.388 116.149 161.63 115.769C161.872 115.389 162.209 115.078 162.608 114.866L190.819 101.841C191.253 101.668 191.719 101.589 192.186 101.61C192.653 101.631 193.111 101.751 193.528 101.962L218.74 116.535C219.122 116.782 219.441 117.116 219.672 117.51C219.902 117.903 220.037 118.345 220.065 118.8Z" fill="#E7440B"/>
<path opacity="0.4" d="M220.065 118.8V119.328C220.039 119.796 219.915 120.254 219.702 120.671C219.488 121.089 219.189 121.457 218.824 121.751L196.537 137.861C196.161 138.106 195.726 138.248 195.277 138.271C194.828 138.294 194.381 138.198 193.982 137.993L162.545 119.856C162.16 119.604 161.84 119.266 161.611 118.868C161.382 118.47 161.249 118.023 161.225 117.564V117.036C161.248 116.586 161.388 116.149 161.63 115.769C161.872 115.389 162.209 115.078 162.608 114.866L190.819 101.841C191.253 101.668 191.719 101.589 192.186 101.61C192.653 101.631 193.111 101.751 193.528 101.962L218.74 116.535C219.122 116.782 219.441 117.116 219.672 117.51C219.902 117.903 220.037 118.345 220.065 118.8Z" fill="black"/>
<path d="M218.74 116.529L193.528 101.957C193.111 101.746 192.653 101.626 192.186 101.605C191.719 101.584 191.253 101.662 190.819 101.835L162.624 114.861C161.863 115.215 161.832 115.843 162.56 116.265L193.998 134.413C194.397 134.618 194.844 134.715 195.292 134.692C195.741 134.67 196.176 134.53 196.553 134.286L218.84 118.187C218.994 118.105 219.122 117.98 219.207 117.827C219.293 117.675 219.332 117.501 219.322 117.326C219.311 117.152 219.251 116.984 219.148 116.842C219.044 116.701 218.903 116.593 218.74 116.529Z" fill="#E7440B"/>
<path d="M184.441 162.418H178.258V173.173H184.441V162.418Z" fill="#FFA8A7"/>
<path d="M160.099 165.523L153.652 165.866L153.805 164.567L153.858 163.601L154.455 154.149L161.483 154.392L160.485 163.828L160.416 164.551L160.099 165.523Z" fill="#FFA8A7"/>
<path d="M178.274 171.473V170.945C177.476 170.945 174.646 176.932 171.938 179.393C169.784 181.362 165.998 184.05 166.088 185.914C166.204 188.316 169.636 189.383 172.592 188.691C174.905 188.163 178.205 186.748 179.789 185.037C181.373 183.327 181.901 181.083 182.714 179.963C183.527 178.844 185.449 177.592 185.882 176.299C186.125 175.586 185.835 174.028 185.486 172.714C185.175 171.505 184.831 170.179 184.43 170.29V171.035C183.939 171.563 182.566 172.133 181.019 172.191C180.016 172.233 178.263 172.239 178.274 171.473Z" fill="#263238"/>
<path d="M153.864 163.601C153.537 163.601 153.231 164.012 152.444 164.725C151.488 165.581 149.466 166.388 148.004 166.959C145.554 167.914 139.276 168.928 137.127 169.667C135.786 170.132 135.928 172.159 137.655 173.453C138.938 174.414 143.199 175.623 147.159 175.111C149.308 174.836 152.639 173.67 154.229 173.564C155.966 173.453 159.15 173.411 160.507 172.645C161.864 171.88 161.531 169.952 161.314 168.305C161.082 166.499 161.103 163.764 160.512 163.828L160.443 164.556C159.583 165.612 155.411 165.559 153.833 164.556L153.864 163.601Z" fill="#263238"/>
<path d="M209.721 104.671C211.099 114.38 209.24 116.244 200.011 125.548C195.053 130.548 184.292 139.122 184.292 139.122C184.292 139.122 186.071 142.998 186.14 149.952C186.198 156.077 184.699 167.798 184.699 167.798C184.699 167.798 180.96 169.884 178.099 168.062C178.099 168.062 171.451 135.854 171.99 133.615C172.365 132.031 184.134 116.841 184.134 116.841L187.439 114.729L166.076 127.892C166.076 127.892 166.725 133.784 166.287 137.549C165.379 145.363 163.278 150.39 161.118 160.253C161.118 160.253 156.018 161.082 153.753 159.318C153.753 159.318 153.615 125.558 153.615 122.58C153.615 118.05 173.283 104.528 177.006 101.381C179.118 99.5859 181.499 97.6851 181.499 97.6851L209.721 104.671Z" fill="#455A64"/>
<path d="M204.246 103.313C204.109 109.079 202.662 114.359 197.625 119.623C190.001 127.623 177.709 133.784 178.258 137.306C178.807 140.828 181.722 150.126 182.371 159.699C182.556 162.365 182.635 165.475 182.656 168.569C183.365 168.392 184.051 168.133 184.7 167.798C184.7 167.798 186.199 156.077 186.141 149.952C186.072 142.998 184.293 139.122 184.293 139.122C184.293 139.122 195.054 130.548 200.012 125.548C209.241 116.244 211.1 114.38 209.722 104.67L204.246 103.313Z" fill="#37474F"/>
<path d="M187.441 114.745C184.454 112.684 182.082 109.852 180.577 106.55C180.577 106.55 180.878 110.843 182.477 113.346C183.676 115.22 166.057 127.908 166.057 127.908L187.441 114.745Z" fill="#263238"/>
<path d="M200.761 56.7124C201.052 56.7863 207.815 57.9637 207.815 57.9637C210.688 58.6184 209.214 58.9088 210.851 59.4632L210.323 79.9338L210.202 106.397C205.751 111.244 183.353 109.037 180.607 98.7359V67.7634C180.607 62.8108 183.358 56.8655 190.951 56.4272L200.761 56.7124Z" fill="#E7440B"/>
<path opacity="0.1" d="M210.202 106.397L210.323 79.934L210.725 64.3316L204.732 62.0981C203.222 66.9346 205.186 76.7026 206.231 81.1484C207.277 85.5941 206.495 95.9324 204.183 98.678C201.87 101.424 188.454 108.404 180.607 98.7361C183.353 109.037 205.751 111.244 210.202 106.397Z" fill="black"/>
<path d="M193.696 100.7C198.976 99.0264 212.994 90.4781 212.994 90.4781L206.511 70.3455C206.511 70.3455 205.55 61.4117 207.815 57.9639C212.678 58.3387 214.341 60.852 215.143 64.453C215.946 68.0539 223.438 91.381 222.868 93.7253C222.34 95.9429 203.812 105.405 196.632 106.55C196.632 106.55 189.551 102.015 193.696 100.7Z" fill="#FFA8A7"/>
<path d="M206.104 57.6628C206.104 57.6628 204.082 60.4401 204.948 65.5511C205.563 69.0359 206.417 72.4742 207.504 75.8418C208.644 79.5801 210.846 86.291 210.846 86.291C210.846 86.291 217.002 87.4895 221.374 81.3383C221.374 81.3383 218.734 71.565 216.585 65.9207C213.977 59.0514 211.4 57.5519 206.104 57.6628Z" fill="#455A64"/>
<path d="M195.887 92.7803H182.951L183.933 108.024C183.997 108.552 184.514 109.127 185.517 109.55C188.026 110.453 190.77 110.453 193.279 109.55C194.303 109.127 194.863 108.578 194.9 108.024L195.887 92.7803Z" fill="#FAFAFA"/>
<path d="M182.936 92.7961L183.136 95.8902C183.467 96.1199 183.821 96.3145 184.192 96.471C186.991 97.6273 191.584 97.6273 194.499 96.471C194.625 96.4182 194.731 96.3654 194.842 96.3126C195.124 96.1812 195.395 96.0294 195.655 95.8585L195.85 92.7803L182.936 92.7961Z" fill="#E0E0E0"/>
<path d="M196.104 93.2975V91.1539H194.721C194.536 91.0588 194.33 90.9638 194.108 90.874C191.468 89.818 187.207 89.818 184.636 90.874C184.419 90.9638 184.229 91.0588 184.05 91.1539H182.688V93.2975C182.688 93.9945 183.332 94.6915 184.62 95.2248C187.191 96.2808 191.431 96.2808 194.092 95.2248C195.439 94.6915 196.104 93.9839 196.104 93.2975Z" fill="#37474F"/>
<path d="M194.108 89.2319C191.468 88.1759 187.207 88.1759 184.636 89.2319C182.064 90.2879 182.059 92.0251 184.636 93.0863C187.212 94.1476 191.447 94.1423 194.108 93.0863C196.769 92.0303 196.769 90.2879 194.108 89.2319Z" fill="#455A64"/>
<path d="M194.392 90.552L193.864 89.1211H184.946L184.418 90.552C184.218 91.1064 184.682 91.6925 185.823 92.136C188.141 92.8648 190.627 92.8648 192.946 92.136C194.118 91.6925 194.598 91.1064 194.392 90.552Z" fill="#37474F"/>
<path d="M192.551 88.1231C190.489 87.4746 188.277 87.4746 186.215 88.1231C184.494 88.7726 184.494 89.818 186.215 90.4674C188.278 91.1116 190.488 91.1116 192.551 90.4674C194.33 89.818 194.33 88.7726 192.551 88.1231Z" fill="#455A64"/>
<path d="M193.248 89.2953C193.248 89.2953 193.2 89.4062 193.052 89.5171C192.827 89.6749 192.579 89.7994 192.318 89.8867C191.357 90.1995 190.351 90.3512 189.34 90.3355C188.345 90.3553 187.354 90.2053 186.41 89.892C186.156 89.8047 185.917 89.6782 185.702 89.5171C185.56 89.4009 185.518 89.3164 185.518 89.2953C185.518 89.2742 185.671 88.9785 186.41 88.6987C187.354 88.3854 188.345 88.2354 189.34 88.2551C190.351 88.2368 191.358 88.3885 192.318 88.704C193.079 88.968 193.248 89.2319 193.248 89.2953Z" fill="#37474F"/>
<path d="M193.072 89.5171C192.847 89.675 192.6 89.7995 192.338 89.8867C191.377 90.1996 190.371 90.3512 189.361 90.3355C188.366 90.3553 187.375 90.2053 186.43 89.892C186.176 89.8048 185.937 89.6783 185.723 89.5171C185.938 89.3581 186.177 89.2335 186.43 89.1475C187.374 88.8322 188.365 88.6805 189.361 88.6987C190.371 88.683 191.377 88.8347 192.338 89.1475C192.6 89.2348 192.847 89.3593 193.072 89.5171Z" fill="#263238"/>
<path d="M191.287 89.5592C191.389 89.4905 191.504 89.443 191.625 89.4194C191.745 89.3958 191.869 89.3967 191.99 89.4219C192.122 89.4959 192.016 89.6754 191.757 89.8285C191.656 89.898 191.541 89.9456 191.42 89.9683C191.299 89.9911 191.175 89.9884 191.055 89.9605C190.923 89.8866 191.029 89.7071 191.287 89.5592Z" fill="black"/>
<path d="M199.746 97.986C198.59 98.5721 195.575 97.458 195.575 97.458L195.422 99.7865C195.422 99.7865 194.894 100.842 191.52 101.534C188.146 102.226 186.7 101.159 185.116 101.624C183.532 102.089 184.53 105.753 185.723 107.215C186.916 108.678 193.696 110.806 200.998 105.389L199.746 97.986Z" fill="#FFA8A7"/>
<path d="M188.041 43.8028C192.721 43.8028 196.515 39.7108 196.515 34.6631C196.515 29.6154 192.721 25.5234 188.041 25.5234C183.361 25.5234 179.566 29.6154 179.566 34.6631C179.566 39.7108 183.361 43.8028 188.041 43.8028Z" fill="#263238"/>
<path d="M205.84 40.318C206.674 35.6452 206.843 33.5332 205.703 32.398C205.341 32.0313 204.901 31.7517 204.415 31.5807C203.929 31.4096 203.411 31.3514 202.899 31.4107L202.139 39.8587L200.993 45.8884L200.877 51.1684C201.366 51.1481 201.84 50.9882 202.241 50.7075C202.642 50.4268 202.955 50.0371 203.142 49.5844C203.797 48.2856 205.133 43.1323 205.64 41.1364H205.698C205.75 40.8672 205.798 40.6084 205.84 40.3497V40.318Z" fill="#263238"/>
<path d="M201.166 41.543C201.694 41.8704 202.502 40.8091 203.183 40.0963C203.864 39.3835 206.087 38.412 207.196 40.7457C208.305 43.0795 206.219 46.2739 204.472 46.823C201.451 47.7734 201.003 45.8357 201.003 45.8357L200.77 56.7125C200.77 56.7125 198.796 61.5437 193.447 62.2723C188.098 63.0009 189.223 58.5763 190.96 56.4273V53.1168C190.96 53.1168 188.23 53.5286 186.9 53.3227C184.682 52.9795 183.283 51.2107 182.612 48.8294C181.53 44.975 181.028 41.5747 181.678 34.4309C182.428 26.0885 192.708 25.8825 197.93 29.1509C203.152 32.4192 201.166 41.543 201.166 41.543Z" fill="#FFA8A7"/>
<path d="M201.168 42.4722C201.442 42.4722 202.498 40.7246 203.185 40.0962C204.14 39.2303 202.91 31.3842 202.91 31.3842C202.91 31.3842 203.871 28.4063 201.991 26.4369C199.964 24.3249 196.3 24.7578 193.66 24.742C191.769 24.7895 189.878 24.648 188.015 24.3196C186.806 24.0445 185.626 23.6574 184.488 23.1633C183.533 22.762 182.455 22.3132 181.5 22.7145C180.907 23.0116 180.44 23.5119 180.185 24.1242C178.95 26.722 180.106 29.853 182.371 31.4423C183.833 32.4081 185.531 32.9558 187.281 33.0263C190.977 33.2586 196.183 32.662 197.551 32.4983C198.575 32.3558 198.792 33.3484 199.346 36.0623C199.821 38.4172 200.223 42.4511 201.168 42.4722Z" fill="#263238"/>
<path d="M202.894 31.997L206.231 30.2018C206.124 29.9773 205.973 29.7767 205.787 29.6122C205.601 29.4477 205.383 29.3227 205.147 29.2447C204.911 29.1667 204.662 29.1374 204.414 29.1585C204.167 29.1796 203.926 29.2507 203.707 29.3675C203.259 29.6167 202.924 30.0292 202.772 30.5191C202.621 31.0089 202.664 31.5383 202.894 31.997Z" fill="#263238"/>
<path d="M190.955 53.1167C190.955 53.1167 195.1 52.0607 196.826 51.1525C197.843 50.6225 198.677 49.7982 199.218 48.7871C198.958 49.7983 198.497 50.7466 197.861 51.5749C196.594 53.1959 190.955 54.4314 190.955 54.4314V53.1167Z" fill="#F28F8F"/>
<path d="M190.814 40.5453C190.826 40.7384 190.895 40.9237 191.011 41.0784C191.127 41.2331 191.286 41.3504 191.468 41.4159C191.65 41.4815 191.848 41.4923 192.036 41.4471C192.224 41.402 192.395 41.3028 192.527 41.1618C192.66 41.0207 192.749 40.8441 192.782 40.6534C192.815 40.4628 192.792 40.2665 192.716 40.0888C192.639 39.9111 192.512 39.7597 192.351 39.6531C192.189 39.5466 192 39.4897 191.806 39.4893C191.671 39.4912 191.538 39.5204 191.414 39.5749C191.29 39.6295 191.179 39.7084 191.086 39.8069C190.994 39.9054 190.922 40.0216 190.875 40.1484C190.828 40.2752 190.807 40.4102 190.814 40.5453Z" fill="#263238"/>
<path d="M191.752 36.4321L194.107 37.0129C194.178 36.6927 194.122 36.3575 193.952 36.0771C193.782 35.7967 193.51 35.5929 193.193 35.5081C193.038 35.471 192.877 35.4656 192.719 35.4923C192.561 35.5189 192.411 35.5772 192.276 35.6634C192.141 35.7497 192.026 35.8623 191.936 35.9943C191.846 36.1264 191.783 36.2753 191.752 36.4321Z" fill="#263238"/>
<path d="M190.08 47.1079L187.814 47.958C187.864 48.1098 187.943 48.2501 188.048 48.3705C188.152 48.491 188.28 48.5891 188.424 48.6591C188.567 48.7291 188.723 48.7695 188.882 48.7778C189.042 48.7862 189.201 48.7623 189.351 48.7077C189.656 48.5871 189.902 48.353 190.038 48.0547C190.174 47.7564 190.189 47.417 190.08 47.1079Z" fill="#F28F8F"/>
<path d="M182.433 36.754L184.73 35.904C184.68 35.7548 184.602 35.6169 184.498 35.4986C184.395 35.3802 184.269 35.2838 184.128 35.2149C183.987 35.146 183.833 35.1061 183.676 35.0975C183.519 35.0889 183.362 35.1117 183.214 35.1648C182.906 35.2796 182.653 35.5082 182.507 35.8038C182.362 36.0994 182.335 36.4394 182.433 36.754Z" fill="#263238"/>
<path d="M183.214 40.0648C183.226 40.2579 183.295 40.4433 183.411 40.598C183.528 40.7526 183.687 40.87 183.869 40.9355C184.051 41.001 184.248 41.0118 184.436 40.9667C184.624 40.9215 184.795 40.8223 184.928 40.6813C185.06 40.5403 185.149 40.3636 185.182 40.173C185.216 39.9823 185.193 39.7861 185.116 39.6084C185.039 39.4306 184.913 39.2792 184.751 39.1727C184.589 39.0661 184.4 39.0092 184.207 39.0088C184.071 39.0108 183.938 39.0399 183.814 39.0945C183.691 39.149 183.579 39.2279 183.487 39.3264C183.394 39.425 183.322 39.5411 183.275 39.6679C183.228 39.7948 183.208 39.9297 183.214 40.0648Z" fill="#263238"/>
<path d="M188.041 39.8057L187.719 45.7721L184.604 44.7108L188.041 39.8057Z" fill="#F28F8F"/>
<path d="M72.426 58.93C74.1103 59.0514 77.1252 58.93 78.7198 61.343C81.0905 64.9545 89.4329 78.4449 89.4329 78.4449L98.7996 64.5479L109.175 59.0409C108.768 63.8879 96.3972 84.8337 94.5123 87.3839C92.6273 89.9342 90.51 92.1359 86.4392 88.7673C82.3683 85.3986 73.0227 72.5207 73.0227 72.5207C73.0227 72.5207 70.7523 58.8086 72.426 58.93Z" fill="#FFA8A7"/>
<path d="M105.215 61.0683C101.888 59.1517 96.4975 59.1517 93.1711 61.0683C91.5131 62.0293 90.6895 63.2807 90.6895 64.5373C90.6895 64.8119 90.6895 65.8837 90.6895 66.1213C90.6895 67.3832 91.5079 68.6399 93.1711 69.6008C96.4975 71.5227 101.888 71.5227 105.215 69.6008C106.873 68.6451 107.702 67.3885 107.702 66.1371V64.5162C107.712 63.2859 106.878 62.0293 105.215 61.0683Z" fill="#FFBDA7"/>
<path d="M99.1963 69.4637C103.9 69.4637 107.713 67.2629 107.713 64.548C107.713 61.8331 103.9 59.6323 99.1963 59.6323C94.4927 59.6323 90.6797 61.8331 90.6797 64.548C90.6797 67.2629 94.4927 69.4637 99.1963 69.4637Z" fill="#F0997A"/>
<path d="M105.215 59.0464C101.888 57.1297 96.4975 57.1297 93.1711 59.0464C91.5131 60.0073 90.6895 61.2587 90.6895 62.5153C90.6895 62.7899 90.6895 63.8617 90.6895 64.0993C90.6895 65.3612 91.5079 66.6232 93.1711 67.5841C96.4975 69.5008 101.888 69.5008 105.215 67.5841C106.873 66.6232 107.702 65.3665 107.702 64.1152V62.4942C107.712 61.2481 106.878 60.0073 105.215 59.0464Z" fill="#B16668"/>
<path d="M93.1706 66.0002C96.497 67.9221 101.888 67.9221 105.214 66.0002C108.541 64.0782 108.541 60.9683 105.214 59.0464C101.888 57.1245 96.497 57.1298 93.1706 59.0464C89.8442 60.963 89.8494 64.0782 93.1706 66.0002Z" fill="#9A4A4D"/>
<path d="M105.231 60.7197H93.1609C91.8145 62.6839 91.8145 65.8096 91.8145 66.4221C91.8145 67.0346 91.8884 67.4253 92.8705 67.2088C94.941 66.7441 97.0531 66.4894 99.1748 66.4485C101.296 66.4898 103.408 66.7445 105.479 67.2088C106.477 67.4253 106.535 67.0346 106.535 66.4221C106.535 65.8096 106.572 62.6786 105.231 60.7197Z" fill="#F0F0F0"/>
<path d="M92.1159 65.1022C92.3775 65.5446 92.8021 65.8669 93.2986 65.9998C93.7791 66.1213 94.2859 66.079 94.7717 66.1529C95.7855 66.3061 96.4666 66.9925 97.3695 67.3568C97.7532 67.5102 98.1661 67.5769 98.5786 67.5521C99.0399 67.5061 99.4908 67.3867 99.9144 67.1984C100.596 66.9291 101.25 66.5859 101.953 66.3747C102.502 66.1942 103.086 66.1436 103.658 66.2269C104.131 66.3306 104.625 66.2806 105.068 66.0843C105.907 65.6883 106.192 64.6006 106.953 64.0726C107.549 63.6502 108.436 63.5763 108.79 62.9374C108.898 62.6971 108.933 62.4305 108.891 62.1705C108.848 61.9106 108.731 61.6687 108.553 61.4749C108.186 61.0951 107.728 60.8168 107.222 60.667C106.293 60.3574 105.331 60.1624 104.355 60.0862C102.169 59.8592 99.9672 59.7272 97.7707 59.6691C95.5743 59.611 93.4887 59.5424 91.3872 60.1971C90.9005 60.3278 90.4446 60.5539 90.0461 60.8624C89.8477 61.0175 89.6891 61.2176 89.5835 61.4463C89.4779 61.6749 89.4283 61.9255 89.4389 62.1771C89.495 62.4091 89.5992 62.6267 89.7447 62.8159C89.8903 63.0051 90.0739 63.1616 90.2837 63.2753C90.5424 63.4496 90.8117 63.5657 91.0863 63.7558C91.4989 64.147 91.8465 64.6015 92.1159 65.1022Z" fill="#E7440B"/>
<path d="M107.981 59.9436C107.986 59.9209 107.986 59.8976 107.981 59.8749C107.205 56.9023 103.572 54.6636 99.2111 54.6636C94.8499 54.6636 91.2172 56.9023 90.4358 59.8749C90.4315 59.8976 90.4315 59.9209 90.4358 59.9436C90.3337 60.2696 90.2873 60.6106 90.2985 60.9521C90.3355 62.2457 91.2067 63.5287 92.9121 64.5055C96.3969 66.5172 102.052 66.5172 105.542 64.5055C107.237 63.5287 108.113 62.2457 108.15 60.9521C108.157 60.6084 108.099 60.2664 107.981 59.9436Z" fill="#FFBDA7"/>
<path d="M106.129 57.024L100.791 56.0947C100.791 56.0947 97.2375 57.325 97.2005 57.3883C97.1636 57.4517 95.2945 58.608 95.2945 58.608C94.9724 58.8878 95.4212 59.5901 96.0601 59.664C96.4397 59.693 96.8209 59.693 97.2005 59.664C97.2005 59.664 98.3305 60.8098 100.854 61.021C103.378 61.2322 105.142 60.1445 106.108 59.8277C106.905 59.5637 107.396 59.3736 107.856 59.5109C107.506 58.5458 106.911 57.6886 106.129 57.024Z" fill="#F0997A"/>
<path d="M106.186 62.9746C103.958 64.6695 98.2662 65.2292 94.7022 63.434C91.1382 61.6388 90.9798 58.5869 92.115 57.1719C91.3066 57.8952 90.719 58.8324 90.4202 59.8752C90.4159 59.8979 90.4159 59.9212 90.4202 59.9439C90.3181 60.2699 90.2717 60.6109 90.2829 60.9524C90.3198 62.246 91.191 63.529 92.8965 64.5058C96.3813 66.5175 102.036 66.5175 105.526 64.5058C107.221 63.529 108.098 62.246 108.135 60.9524C108.151 60.6106 108.105 60.2688 107.997 59.9439C107.997 59.9439 108.124 61.4962 106.186 62.9746Z" fill="#F0997A"/>
<path d="M108.103 60.4984C109.159 60.8152 109.254 58.5025 109.212 58.2332C109.118 57.6434 108.856 57.0933 108.457 56.6492C107.264 55.287 106.039 55.1814 104.592 54.2257C104.114 53.8509 103.567 53.5745 102.982 53.4126C102.392 53.4194 101.81 53.5526 101.276 53.8033C99.1641 54.8065 95.4681 57.795 95.6741 57.6208C95.4886 57.774 95.3123 57.938 95.1461 58.1118C94.9296 58.3969 95.2253 58.7454 95.4312 58.8827C95.7069 59.0572 96.0163 59.1719 96.3392 59.2192C96.6621 59.2665 96.9913 59.2454 97.3056 59.1572C98.2473 59.77 99.3163 60.16 100.431 60.2977C101.747 60.5383 103.102 60.4328 104.365 59.9915C106.889 58.9619 107.712 58.5553 108.103 60.4984Z" fill="#FFA8A7"/>
<path d="M48.2337 118.716V157.788C48.2245 157.96 48.1747 158.128 48.0885 158.277C48.0022 158.427 47.882 158.554 47.7374 158.648L46.4016 159.456C46.248 159.535 46.0779 159.576 45.9053 159.576C45.7327 159.576 45.5625 159.535 45.4089 159.456L44.0731 158.69C43.9301 158.595 43.8113 158.467 43.7261 158.318C43.6409 158.169 43.5916 158.001 43.5821 157.83V118.758C43.5814 118.682 43.5956 118.608 43.6239 118.538C43.6523 118.468 43.6942 118.405 43.7472 118.351C43.8002 118.298 43.8633 118.255 43.9328 118.226C44.0024 118.197 44.077 118.182 44.1523 118.182H47.6529C47.7998 118.179 47.9422 118.233 48.0504 118.332C48.1586 118.432 48.2242 118.569 48.2337 118.716Z" fill="#E7440B"/>
<path opacity="0.6" d="M48.2337 118.716V157.788C48.2245 157.96 48.1747 158.128 48.0885 158.277C48.0022 158.427 47.882 158.554 47.7374 158.648L46.4016 159.456C46.248 159.535 46.0779 159.576 45.9053 159.576C45.7327 159.576 45.5625 159.535 45.4089 159.456L44.0731 158.69C43.9301 158.595 43.8113 158.467 43.7261 158.318C43.6409 158.169 43.5916 158.001 43.5821 157.83V118.758C43.5814 118.682 43.5956 118.608 43.6239 118.538C43.6523 118.468 43.6942 118.405 43.7472 118.351C43.8002 118.298 43.8633 118.255 43.9328 118.226C44.0024 118.197 44.077 118.182 44.1523 118.182H47.6529C47.7998 118.179 47.9422 118.233 48.0504 118.332C48.1586 118.432 48.2242 118.569 48.2337 118.716Z" fill="black"/>
<path d="M44.1561 118.14H45.3335C45.4113 118.136 45.489 118.148 45.5619 118.176C45.6348 118.203 45.7014 118.245 45.7577 118.299C45.8139 118.353 45.8587 118.417 45.8892 118.489C45.9198 118.56 45.9355 118.637 45.9354 118.715V159.155C45.9354 159.472 45.7137 159.598 45.4391 159.44L44.1033 158.674C43.9603 158.579 43.8415 158.451 43.7563 158.302C43.6711 158.153 43.6217 157.985 43.6122 157.814V118.742C43.608 118.666 43.6187 118.591 43.6438 118.52C43.6689 118.449 43.7079 118.383 43.7585 118.327C43.809 118.271 43.8702 118.226 43.9385 118.194C44.0067 118.161 44.0807 118.143 44.1561 118.14Z" fill="#E7440B"/>
<path opacity="0.4" d="M44.1561 118.14H45.3335C45.4113 118.136 45.489 118.148 45.5619 118.176C45.6348 118.203 45.7014 118.245 45.7577 118.299C45.8139 118.353 45.8587 118.417 45.8892 118.489C45.9198 118.56 45.9355 118.637 45.9354 118.715V159.155C45.9354 159.472 45.7137 159.598 45.4391 159.44L44.1033 158.674C43.9603 158.579 43.8415 158.451 43.7563 158.302C43.6711 158.153 43.6217 157.985 43.6122 157.814V118.742C43.608 118.666 43.6187 118.591 43.6438 118.52C43.6689 118.449 43.7079 118.383 43.7585 118.327C43.809 118.271 43.8702 118.226 43.9385 118.194C44.0067 118.161 44.0807 118.143 44.1561 118.14Z" fill="black"/>
<path d="M70.6671 131.62V170.692C70.6579 170.864 70.6081 171.031 70.5218 171.179C70.4355 171.328 70.3152 171.454 70.1708 171.547L68.8402 172.318C68.6864 172.396 68.5164 172.437 68.3439 172.437C68.1715 172.437 68.0014 172.396 67.8476 172.318L66.5276 171.6C66.3832 171.507 66.2629 171.381 66.1766 171.232C66.0903 171.083 66.0405 170.916 66.0313 170.745V131.673C66.0306 131.597 66.0448 131.523 66.0732 131.453C66.1015 131.383 66.1434 131.32 66.1964 131.266C66.2494 131.213 66.3125 131.17 66.3821 131.141C66.4516 131.112 66.5262 131.097 66.6015 131.097H70.1074C70.249 131.099 70.3846 131.154 70.4881 131.251C70.5915 131.347 70.6553 131.479 70.6671 131.62Z" fill="#E7440B"/>
<path opacity="0.6" d="M70.6671 131.62V170.692C70.6579 170.864 70.6081 171.031 70.5218 171.179C70.4355 171.328 70.3152 171.454 70.1708 171.547L68.8402 172.318C68.6864 172.396 68.5164 172.437 68.3439 172.437C68.1715 172.437 68.0014 172.396 67.8476 172.318L66.5276 171.6C66.3832 171.507 66.2629 171.381 66.1766 171.232C66.0903 171.083 66.0405 170.916 66.0313 170.745V131.673C66.0306 131.597 66.0448 131.523 66.0732 131.453C66.1015 131.383 66.1434 131.32 66.1964 131.266C66.2494 131.213 66.3125 131.17 66.3821 131.141C66.4516 131.112 66.5262 131.097 66.6015 131.097H70.1074C70.249 131.099 70.3846 131.154 70.4881 131.251C70.5915 131.347 70.6553 131.479 70.6671 131.62Z" fill="black"/>
<path d="M66.592 131.044H67.7747C67.85 131.044 67.9246 131.059 67.9941 131.088C68.0636 131.117 68.1267 131.16 68.1798 131.213C68.2328 131.267 68.2747 131.33 68.303 131.4C68.3314 131.47 68.3456 131.545 68.3449 131.62V172.059C68.3449 172.376 68.1231 172.503 67.8486 172.345L66.5286 171.6C66.3842 171.507 66.2639 171.381 66.1776 171.232C66.0913 171.083 66.0415 170.916 66.0323 170.745V131.673C66.0242 131.594 66.0326 131.514 66.057 131.439C66.0813 131.364 66.1211 131.294 66.1737 131.235C66.2264 131.176 66.2907 131.129 66.3628 131.096C66.4348 131.063 66.5128 131.045 66.592 131.044Z" fill="#E7440B"/>
<path opacity="0.4" d="M66.592 131.044H67.7747C67.85 131.044 67.9246 131.059 67.9941 131.088C68.0636 131.117 68.1267 131.16 68.1798 131.213C68.2328 131.267 68.2747 131.33 68.303 131.4C68.3314 131.47 68.3456 131.545 68.3449 131.62V172.059C68.3449 172.376 68.1231 172.503 67.8486 172.345L66.5286 171.6C66.3842 171.507 66.2639 171.381 66.1776 171.232C66.0913 171.083 66.0415 170.916 66.0323 170.745V131.673C66.0242 131.594 66.0326 131.514 66.057 131.439C66.0813 131.364 66.1211 131.294 66.1737 131.235C66.2264 131.176 66.2907 131.129 66.3628 131.096C66.4348 131.063 66.5128 131.045 66.592 131.044Z" fill="black"/>
<path d="M69.169 102.918C69.1046 103.468 69.2595 104.023 69.6004 104.46C69.9412 104.898 70.4406 105.184 70.9906 105.257H71.2493C71.7604 105.254 72.2534 105.067 72.637 104.729C73.0205 104.391 73.2684 103.926 73.3349 103.419C74.5387 93.7673 72.8069 72.1773 68.6885 60.0069C68.2661 58.7609 67.057 58.4863 65.9165 59.1463C65.0453 59.6743 64.417 60.4135 64.7443 61.3639C68.7149 72.8057 70.3411 93.6194 69.169 102.918Z" fill="#455A64"/>
<path d="M44.8805 108.472C44.7386 108.472 44.5976 108.449 44.4634 108.403C44.1276 108.292 43.8495 108.053 43.6902 107.737C43.5308 107.421 43.5032 107.055 43.6133 106.719C46.7074 97.3154 61.9085 88.9519 71.724 88.9519C71.9062 88.9404 72.0887 88.9664 72.2604 89.0282C72.4321 89.09 72.5893 89.1863 72.7224 89.3112C72.8554 89.4362 72.9615 89.587 73.0339 89.7545C73.1064 89.922 73.1438 90.1026 73.1438 90.2851C73.1438 90.4676 73.1064 90.6481 73.0339 90.8156C72.9615 90.9831 72.8554 91.1339 72.7224 91.2589C72.5893 91.3838 72.4321 91.4801 72.2604 91.5419C72.0887 91.6038 71.9062 91.6297 71.724 91.6183C62.8483 91.6183 48.8511 99.3482 46.1477 107.553C46.0593 107.82 45.8894 108.052 45.662 108.217C45.4347 108.382 45.1613 108.471 44.8805 108.472Z" fill="#E7440B"/>
<path d="M43.4271 96.2806C43.2852 96.2815 43.1442 96.2583 43.01 96.212C42.8415 96.1577 42.6854 96.0704 42.5509 95.9552C42.4164 95.84 42.3061 95.6991 42.2265 95.5409C42.1469 95.3827 42.0996 95.2103 42.0872 95.0336C42.0749 94.8569 42.0978 94.6796 42.1547 94.5118C45.3702 84.7438 61.0307 76.8397 70.8039 77.8429C70.9922 77.8409 71.1788 77.8787 71.3514 77.9538C71.5241 78.029 71.6789 78.1398 71.8057 78.279C71.9325 78.4181 72.0284 78.5826 72.0872 78.7614C72.146 78.9403 72.1664 79.1295 72.1469 79.3168C72.1274 79.5041 72.0686 79.6851 71.9742 79.8481C71.8799 80.011 71.7521 80.1522 71.5994 80.2623C71.4467 80.3724 71.2724 80.449 71.088 80.487C70.9036 80.525 70.7132 80.5236 70.5294 80.4829C61.8702 79.6011 47.5086 86.7714 44.6943 95.3302C44.6129 95.6035 44.4457 95.8434 44.2176 96.0145C43.9894 96.1857 43.7123 96.2789 43.4271 96.2806Z" fill="#E7440B"/>
<path d="M40.4553 86.6182C40.2736 86.6168 40.0941 86.5791 39.9273 86.5073C39.6033 86.3649 39.3491 86.0998 39.2204 85.7701C39.0917 85.4405 39.099 85.0733 39.2409 84.749C43.8397 74.2735 60.2025 65.6724 69.0517 66.9026C69.2251 66.9269 69.392 66.9851 69.5428 67.0738C69.6937 67.1626 69.8256 67.2802 69.931 67.4199C70.0364 67.5597 70.1133 67.7188 70.1572 67.8882C70.2011 68.0577 70.2112 68.2341 70.1869 68.4074C70.1627 68.5808 70.1045 68.7477 70.0157 68.8985C69.927 69.0494 69.8094 69.1813 69.6696 69.2867C69.5299 69.3921 69.3708 69.469 69.2013 69.5129C69.0319 69.5568 68.8555 69.5669 68.6821 69.5426C60.8625 68.4602 45.7986 76.4594 41.6855 85.8209C41.581 86.0597 41.4088 86.2625 41.1901 86.4042C40.9714 86.546 40.7159 86.6204 40.4553 86.6182Z" fill="#E7440B"/>
<g opacity="0.6">
<path d="M44.8805 108.472C44.7386 108.472 44.5976 108.449 44.4634 108.403C44.1276 108.292 43.8495 108.053 43.6902 107.737C43.5308 107.421 43.5032 107.055 43.6133 106.719C46.7074 97.3154 61.9085 88.9519 71.724 88.9519C71.9062 88.9404 72.0887 88.9664 72.2604 89.0282C72.4321 89.09 72.5893 89.1863 72.7224 89.3112C72.8554 89.4362 72.9615 89.587 73.0339 89.7545C73.1064 89.922 73.1438 90.1026 73.1438 90.2851C73.1438 90.4676 73.1064 90.6481 73.0339 90.8156C72.9615 90.9831 72.8554 91.1339 72.7224 91.2589C72.5893 91.3838 72.4321 91.4801 72.2604 91.5419C72.0887 91.6038 71.9062 91.6297 71.724 91.6183C62.8483 91.6183 48.8511 99.3482 46.1477 107.553C46.0593 107.82 45.8894 108.052 45.662 108.217C45.4347 108.382 45.1613 108.471 44.8805 108.472Z" fill="black"/>
</g>
<g opacity="0.6">
<path d="M43.4271 96.2806C43.2852 96.2815 43.1442 96.2583 43.01 96.212C42.8415 96.1577 42.6854 96.0704 42.5509 95.9552C42.4164 95.84 42.3061 95.6991 42.2265 95.5409C42.1469 95.3827 42.0996 95.2103 42.0872 95.0336C42.0749 94.8569 42.0978 94.6796 42.1547 94.5118C45.3702 84.7438 61.0307 76.8397 70.8039 77.8429C70.9922 77.8409 71.1788 77.8787 71.3514 77.9538C71.5241 78.029 71.6789 78.1398 71.8057 78.279C71.9325 78.4181 72.0284 78.5826 72.0872 78.7614C72.146 78.9403 72.1664 79.1295 72.1469 79.3168C72.1274 79.5041 72.0686 79.6851 71.9742 79.8481C71.8799 80.011 71.7521 80.1522 71.5994 80.2623C71.4467 80.3724 71.2724 80.449 71.088 80.487C70.9036 80.525 70.7132 80.5236 70.5294 80.4829C61.8702 79.6011 47.5086 86.7714 44.6943 95.3302C44.6129 95.6035 44.4457 95.8434 44.2176 96.0145C43.9894 96.1857 43.7123 96.2789 43.4271 96.2806Z" fill="black"/>
</g>
<g opacity="0.6">
<path d="M40.4553 86.6182C40.2736 86.6168 40.0941 86.5791 39.9273 86.5073C39.6033 86.3649 39.3491 86.0998 39.2204 85.7701C39.0917 85.4405 39.099 85.0733 39.2409 84.749C43.8397 74.2735 60.2025 65.6724 69.0517 66.9026C69.2251 66.9269 69.392 66.9851 69.5428 67.0738C69.6937 67.1626 69.8256 67.2802 69.931 67.4199C70.0364 67.5597 70.1133 67.7188 70.1572 67.8882C70.2011 68.0577 70.2112 68.2341 70.1869 68.4074C70.1627 68.5808 70.1045 68.7477 70.0157 68.8985C69.927 69.0494 69.8094 69.1813 69.6696 69.2867C69.5299 69.3921 69.3708 69.469 69.2013 69.5129C69.0319 69.5568 68.8555 69.5669 68.6821 69.5426C60.8625 68.4602 45.7986 76.4594 41.6855 85.8209C41.581 86.0597 41.4088 86.2625 41.1901 86.4042C40.9714 86.546 40.7159 86.6204 40.4553 86.6182Z" fill="black"/>
</g>
<path d="M37.0604 75.4087C36.6221 75.6704 36.2935 76.082 36.1353 76.5674C35.977 77.0527 36 77.5789 36.1998 78.0487C41.0204 89.3109 43.5601 103.076 43.5601 118.145V120.162L43.7238 120.331C43.8043 120.416 43.9019 120.483 44.0102 120.528C44.1185 120.572 44.235 120.593 44.3521 120.59C44.6546 120.573 44.9515 120.501 45.2286 120.378C45.3675 120.322 45.5104 120.276 45.6563 120.241C46.2164 120.241 46.7536 120.019 47.1497 119.623C47.5457 119.227 47.7683 118.689 47.7683 118.129C47.7683 102.5 45.1283 88.1704 40.0542 76.3749C39.9363 76.1039 39.7628 75.8607 39.545 75.6609C39.3272 75.4611 39.0698 75.3093 38.7897 75.2153C38.5095 75.1212 38.2127 75.087 37.9184 75.1149C37.6242 75.1427 37.3391 75.232 37.0815 75.377L37.0604 75.4087Z" fill="#E7440B"/>
<path opacity="0.4" d="M37.0604 75.4087C36.6221 75.6704 36.2935 76.082 36.1353 76.5674C35.977 77.0527 36 77.5789 36.1998 78.0487C41.0204 89.3109 43.5601 103.076 43.5601 118.145V120.162L43.7238 120.331C43.8043 120.416 43.9019 120.483 44.0102 120.528C44.1185 120.572 44.235 120.593 44.3521 120.59C44.6546 120.573 44.9515 120.501 45.2286 120.378C45.3675 120.322 45.5104 120.276 45.6563 120.241C46.2164 120.241 46.7536 120.019 47.1497 119.623C47.5457 119.227 47.7683 118.689 47.7683 118.129C47.7683 102.5 45.1283 88.1704 40.0542 76.3749C39.9363 76.1039 39.7628 75.8607 39.545 75.6609C39.3272 75.4611 39.0698 75.3093 38.7897 75.2153C38.5095 75.1212 38.2127 75.087 37.9184 75.1149C37.6242 75.1427 37.3391 75.232 37.0815 75.377L37.0604 75.4087Z" fill="black"/>
<path d="M43.5859 119.681V120.209C43.6102 120.677 43.7328 121.134 43.9457 121.55C44.1586 121.967 44.457 122.334 44.8215 122.628L67.1083 138.742C67.4851 138.987 67.9197 139.128 68.3684 139.151C68.817 139.174 69.2639 139.079 69.6639 138.874L101.101 120.722C101.486 120.472 101.806 120.134 102.035 119.737C102.265 119.34 102.397 118.894 102.421 118.435V117.907C102.398 117.458 102.258 117.022 102.016 116.642C101.773 116.263 101.436 115.953 101.038 115.743L72.8266 102.717C72.3931 102.544 71.9279 102.466 71.4618 102.487C70.9957 102.508 70.5394 102.628 70.1232 102.838L44.9059 117.411C44.5242 117.66 44.206 117.996 43.9768 118.39C43.7476 118.784 43.6138 119.226 43.5859 119.681Z" fill="#E7440B"/>
<path opacity="0.4" d="M43.5859 119.681V120.209C43.6102 120.677 43.7328 121.134 43.9457 121.55C44.1586 121.967 44.457 122.334 44.8215 122.628L67.1083 138.742C67.4851 138.987 67.9197 139.128 68.3684 139.151C68.817 139.174 69.2639 139.079 69.6639 138.874L101.101 120.722C101.486 120.472 101.806 120.134 102.035 119.737C102.265 119.34 102.397 118.894 102.421 118.435V117.907C102.398 117.458 102.258 117.022 102.016 116.642C101.773 116.263 101.436 115.953 101.038 115.743L72.8266 102.717C72.3931 102.544 71.9279 102.466 71.4618 102.487C70.9957 102.508 70.5394 102.628 70.1232 102.838L44.9059 117.411C44.5242 117.66 44.206 117.996 43.9768 118.39C43.7476 118.784 43.6138 119.226 43.5859 119.681Z" fill="black"/>
<path d="M44.9069 117.395L70.1242 102.823C70.5404 102.612 70.9967 102.492 71.4628 102.471C71.9289 102.45 72.3941 102.529 72.8275 102.701L101.039 115.727C101.804 116.081 101.831 116.709 101.102 117.131L69.6648 135.279C69.2653 135.484 68.8187 135.581 68.37 135.558C67.9214 135.536 67.4865 135.396 67.1093 135.152L44.8224 119.053C44.6675 118.972 44.5391 118.849 44.4524 118.697C44.3657 118.545 44.3243 118.372 44.3332 118.197C44.3421 118.023 44.4009 117.855 44.5026 117.712C44.6042 117.57 44.7446 117.46 44.9069 117.395Z" fill="#E7440B"/>
<path d="M90.5891 172.477C90.0611 172.682 89.8868 173.844 89.7548 174.689C89.6228 175.534 88.7939 176.51 89.7548 178.058C90.7158 179.605 92.7328 180.17 94.0211 182.282C95.3094 184.394 96.9092 188.264 101.413 189.452C105.917 190.64 109.481 189.304 110.389 187.984C111.297 186.664 110.606 185.344 107.749 183.533C104.734 181.611 103.879 181.046 103.879 181.046L90.5891 172.477Z" fill="#263238"/>
<path d="M95.9526 163.326C95.9526 163.326 97.8693 169.535 99.0731 172.397C100.346 175.412 102.083 178.209 104.221 180.687C104.707 181.252 105.805 182.297 106.212 182.757C106.306 182.846 106.379 182.954 106.426 183.075C106.473 183.196 106.493 183.326 106.484 183.455C106.475 183.584 106.437 183.71 106.374 183.823C106.31 183.936 106.222 184.033 106.117 184.108C105.124 185.059 100.905 185.275 98.5504 183.501C96.1955 181.727 94.1521 178.274 92.7424 176.848C92.0401 176.135 91.3801 175.449 90.8944 174.947C90.6656 174.71 90.5021 174.418 90.4198 174.098C90.3375 173.779 90.3391 173.444 90.4245 173.126C90.472 172.941 90.5301 172.73 90.5881 172.476C90.9155 171.114 89.1309 165.523 89.1309 165.523L95.9526 163.326Z" fill="#FFA8A7"/>
<path d="M50.4084 100.093C48.8613 105.6 48.0482 112.305 49.7589 116.012C51.8339 120.463 57.605 124.988 62.8956 128.124C68.1861 131.261 76.3173 135.078 77.9066 135.78C79.4959 136.483 79.6595 137.454 79.4272 140.485C79.1949 143.515 80.2562 148.473 83.5826 154.704C85.8182 158.894 87.7897 163.22 89.4856 167.656C90.5786 168.374 94.9452 168.881 97.0308 166.711C97.0308 166.711 90.5891 133.816 89.248 129.856C87.9069 125.896 73.0384 113.05 73.0384 113.05C73.0384 113.05 78.0492 104.285 79.2372 99.7231L50.4084 100.093Z" fill="#455A64"/>
<path d="M84.0525 147.116C82.7167 142.364 83.3133 137.306 82.1675 135.347C81.0218 133.388 68.3498 126.218 62.2514 121.683C56.6229 117.496 54.8594 108.673 56.5543 100.035L50.4084 100.114C48.8613 105.6 48.0482 112.305 49.7589 116.012C51.8339 120.463 57.605 124.988 62.8956 128.124C68.1861 131.261 76.3173 135.078 77.9066 135.78C79.4959 136.483 79.6595 137.454 79.4272 140.485C79.1949 143.515 80.2562 148.473 83.5826 154.704C85.8182 158.894 87.7897 163.22 89.4856 167.656C90.6128 168.18 91.861 168.388 93.0972 168.258C90.1404 161.985 84.9184 150.174 84.0525 147.116Z" fill="#37474F"/>
<path d="M105.231 162.698C104.703 162.909 104.529 164.065 104.402 164.91C104.276 165.755 103.436 166.732 104.402 168.279C105.369 169.826 107.38 170.391 108.674 172.503C109.967 174.615 111.557 178.49 116.066 179.678C120.575 180.866 124.139 179.525 125.042 178.21C125.945 176.896 125.258 175.57 122.402 173.759C119.387 171.837 118.532 171.272 118.532 171.272L105.231 162.698Z" fill="#263238"/>
<path d="M110.595 153.547C110.595 153.547 112.511 159.757 113.715 162.624C114.989 165.639 116.728 168.436 118.868 170.913C119.354 171.473 120.452 172.524 120.859 172.978C120.953 173.068 121.026 173.177 121.072 173.299C121.119 173.42 121.138 173.55 121.129 173.68C121.119 173.81 121.081 173.936 121.017 174.049C120.953 174.162 120.865 174.26 120.759 174.335C119.766 175.285 115.547 175.502 113.192 173.728C110.838 171.953 108.794 168.5 107.384 167.069C106.677 166.357 106.017 165.676 105.531 165.169C105.302 164.932 105.139 164.641 105.056 164.323C104.974 164.004 104.976 163.67 105.061 163.352C105.109 163.168 105.167 162.951 105.225 162.698C105.552 161.335 103.768 155.749 103.768 155.749L110.595 153.547Z" fill="#FFA8A7"/>
<path d="M64.4417 90.0928C62.0921 95.1669 63.0741 100.748 64.6001 105.405C66.126 110.062 72.2455 115.199 77.5361 118.335C82.8266 121.472 89.6801 125.891 91.2641 126.599C92.8481 127.306 92.9695 128.283 93.3761 131.298C93.7826 134.519 94.9125 138.69 98.2653 144.904C101.808 151.467 103.815 155.739 103.815 155.739C105.036 156.126 106.339 156.171 107.585 155.87C108.83 155.57 109.969 154.935 110.879 154.034C110.879 154.034 105.224 124.027 103.883 120.062C102.542 116.097 80.0546 100.442 80.0546 100.442L64.4417 90.0928Z" fill="#455A64"/>
<path opacity="0.6" d="M86.9241 124.08C86.2166 123.32 85.4879 122.601 84.7646 121.91C82.4625 119.724 76.5647 114.423 74.5161 112.58C75.1407 111.183 75.6356 109.732 75.9945 108.245C75.9945 108.245 74.8223 110.357 73.7927 111.941L73.1433 112.886L73.043 113.029L73.0852 113.071C73.5393 113.462 77.5151 116.915 81.4223 120.69C83.3495 121.883 85.2715 123.082 86.9241 124.08Z" fill="black"/>
<path d="M77.4636 80.668C77.5903 81.8613 77.1363 85.0715 77.1363 85.0715C78.6041 91.5765 79.5123 100.072 79.5123 100.072C76.0433 106.371 54.7227 111.64 49.0625 103.831C50.5779 98.2134 54.0204 88.6567 54.0204 88.6567L51.3329 77.6901C51.3329 77.6901 56.3172 70.7522 52.0563 61.2482L58.9203 60.1922L68.4718 58.793L72.4265 58.9567C72.4265 58.9567 77.3791 64.6221 79.0054 68.6666C80.0139 71.1535 81.8407 75.5042 77.4636 80.668Z" fill="#F0F0F0"/>
<path d="M79.5123 100.077C79.5123 100.077 76.0011 103.366 72.8278 102.717C69.6545 102.067 61.5286 92.3206 60.499 89.4113C59.4694 86.502 57.4841 73.8987 56.6446 71.7603L53.4132 72.5047C53.0548 74.3543 52.3489 76.119 51.3329 77.7055L54.0204 88.6721C54.0204 88.6721 50.5779 98.2289 49.0625 103.847C54.7227 111.64 76.0327 106.371 79.5123 100.077Z" fill="#E0E0E0"/>
<path d="M79.2638 40.7985C79.3166 32.3505 73.5456 25.1855 64.8758 25.1169C62.7197 25.097 60.5824 25.5196 58.5962 26.3588C56.61 27.198 54.8171 28.4358 53.3285 29.9956C53.344 29.7639 53.3171 29.5313 53.2493 29.3092C53.1662 29.0544 53.0327 28.8188 52.8569 28.6165C52.681 28.4143 52.4663 28.2494 52.2254 28.1317C51.9846 28.014 51.7226 27.9459 51.455 27.9314C51.1873 27.9169 50.9195 27.9563 50.6673 28.0473L51.5755 30.9566C51.326 30.6281 50.984 30.3818 50.5934 30.249C50.3405 30.1611 50.0726 30.1247 49.8054 30.1422C49.5382 30.1596 49.2773 30.2305 49.038 30.3507C48.7987 30.4708 48.586 30.6377 48.4124 30.8416C48.2388 31.0454 48.1078 31.282 48.0273 31.5374L51.3009 32.6567C49.9137 34.9553 49.1731 37.5858 49.1573 40.2705C49.0939 49.5105 56.7446 57.045 66.2064 57.0556H79.2849L79.2638 40.7985Z" fill="#37474F"/>
<path d="M74.3908 35.0537C76.0276 35.9619 77.4268 37.1657 77.4637 45.6454C77.4637 52.8473 75.2039 54.69 74.0476 55.2339C72.8912 55.7777 70.6261 55.5296 68.4191 55.2339L68.4719 58.7768C68.4719 58.7768 71.6399 60.7251 70.473 62.2246C69.2639 63.8086 67.0885 64.0303 64.2848 63.3387C62.2353 62.8057 60.3767 61.7081 58.9204 60.1707L58.7092 50.1915C58.7092 50.1915 57.4525 51.4798 55.2085 49.6212C53.3552 48.09 52.6741 45.4395 54.0416 43.9716C54.3993 43.6245 54.8337 43.3666 55.3098 43.2189C55.7858 43.0712 56.29 43.038 56.7813 43.1218C57.2726 43.2057 57.7372 43.4043 58.1374 43.7015C58.5375 43.9987 58.8618 44.3861 59.084 44.8323C63.7991 44.8323 64.6808 39.4203 64.9818 36.1467C67.5848 33.4486 71.6557 39.9377 74.3908 35.0537Z" fill="#FFA8A7"/>
<path d="M59.8016 47.1977L58.6348 43.3538C58.883 43.2643 59.1468 43.2262 59.4102 43.2416C59.6736 43.2571 59.9311 43.326 60.1671 43.444C60.4031 43.562 60.6127 43.7267 60.7831 43.9281C60.9535 44.1295 61.0813 44.3635 61.1586 44.6158C61.3078 45.1381 61.2501 45.6978 60.9974 46.1786C60.7447 46.6594 60.3165 47.0244 59.8016 47.1977Z" fill="#37474F"/>
<path d="M68.4498 43.4912C68.4555 43.6679 68.4092 43.8425 68.3165 43.9931C68.2239 44.1438 68.089 44.2639 67.9287 44.3386C67.7684 44.4133 67.5896 44.4393 67.4147 44.4133C67.2398 44.3873 67.0763 44.3105 66.9446 44.1924C66.813 44.0743 66.7189 43.9201 66.674 43.7491C66.6292 43.578 66.6356 43.3975 66.6924 43.23C66.7493 43.0625 66.8541 42.9154 66.9938 42.807C67.1335 42.6985 67.302 42.6335 67.4783 42.62C67.7226 42.607 67.962 42.6914 68.1441 42.8547C68.3263 43.018 68.4362 43.2469 68.4498 43.4912Z" fill="#263238"/>
<path d="M69.7802 50.1602L71.8922 50.7726C71.8586 50.9146 71.7965 51.0483 71.7098 51.1657C71.6232 51.2831 71.5137 51.3817 71.3879 51.4557C71.2621 51.5297 71.1227 51.5774 70.978 51.5962C70.8333 51.6149 70.6863 51.6042 70.5458 51.5646C70.2633 51.4721 70.0268 51.2752 69.8845 51.0142C69.7422 50.7532 69.7049 50.4477 69.7802 50.1602Z" fill="#F28F8F"/>
<path d="M76.1855 41.2104L74.3164 39.9907C74.3882 39.8633 74.4858 39.7521 74.6028 39.6643C74.7198 39.5765 74.8539 39.514 74.9963 39.4808C75.1388 39.4475 75.2866 39.4442 75.4305 39.4711C75.5743 39.498 75.7109 39.5545 75.8318 39.637C76.0799 39.805 76.2546 40.0613 76.3203 40.3536C76.386 40.6459 76.3378 40.9524 76.1855 41.2104Z" fill="#263238"/>
<path d="M66.5697 41.2104L68.4388 39.9907C68.367 39.8633 68.2695 39.7521 68.1524 39.6643C68.0354 39.5765 67.9014 39.514 67.7589 39.4808C67.6164 39.4475 67.4686 39.4442 67.3248 39.4711C67.181 39.498 67.0443 39.5545 66.9235 39.637C66.6754 39.805 66.5007 40.0613 66.4349 40.3536C66.3692 40.6459 66.4174 40.9524 66.5697 41.2104Z" fill="#263238"/>
<path d="M75.6575 43.1796C75.6642 43.3576 75.6184 43.5337 75.5259 43.6859C75.4333 43.8381 75.298 43.9597 75.1369 44.0356C74.9757 44.1115 74.7958 44.1383 74.6196 44.1127C74.4433 44.0871 74.2784 44.0103 74.1455 43.8917C74.0125 43.7731 73.9174 43.6181 73.8719 43.4459C73.8264 43.2737 73.8326 43.0919 73.8896 42.9231C73.9467 42.7544 74.0521 42.6061 74.1927 42.4968C74.3334 42.3875 74.5031 42.322 74.6807 42.3084C74.9255 42.2954 75.1655 42.3797 75.3485 42.5429C75.5314 42.7061 75.6425 42.9349 75.6575 43.1796Z" fill="#263238"/>
<path d="M71.2422 42.7944L71.3478 48.6922L74.1884 47.726L71.2422 42.7944Z" fill="#F28F8F"/>
<path d="M68.418 55.2236C66.0948 54.9807 61.2953 53.7452 60.498 51.8813C60.8216 52.826 61.4281 53.6482 62.2352 54.2362C63.6924 55.4189 68.455 56.665 68.455 56.665L68.418 55.2236Z" fill="#F28F8F"/>
<path d="M76.0325 34.5048C76.0325 34.5048 74.8128 41.5483 65.0078 41.7595V33.792L76.0325 34.5048Z" fill="#37474F"/>
<path d="M88.5189 116.255C83.9041 114.021 81.1005 113.203 77.7529 110.394C74.4054 107.585 58.5337 92.2361 58.5337 92.2361L56.6435 71.7444C56.6435 71.7444 56.8389 64.9702 52.0552 61.2319C48.1638 61.818 45.8617 65.4243 46.0043 69.1097C46.1469 72.7951 48.3169 94.4537 49.4627 96.5235C50.5557 98.5299 69.7907 112.738 72.4677 114.776C74.5269 116.524 73.4392 117.554 76.5597 119.259C78.2281 120.167 83.7035 121.075 86.164 122.094C89.2581 123.372 92.2941 121.371 93.8411 120.706C95.5677 119.972 93.1336 118.488 88.5189 116.255Z" fill="#FFA8A7"/>
<path d="M137.148 228.255C137.154 228.413 137.204 228.566 137.293 228.697C137.381 228.828 137.505 228.931 137.65 228.994C138.035 229.188 138.46 229.289 138.891 229.289C139.322 229.289 139.747 229.188 140.132 228.994C140.277 228.93 140.403 228.829 140.496 228.7C140.589 228.57 140.646 228.419 140.66 228.26L140.707 174.061L137.201 174.109L137.148 228.255Z" fill="#455A64"/>
<path d="M139.08 229.274C139.449 229.256 139.81 229.157 140.136 228.983C140.282 228.92 140.408 228.818 140.501 228.689C140.593 228.56 140.65 228.408 140.664 228.249L140.712 174.05H139.128L139.08 229.274Z" fill="#37474F"/>
<path d="M137.698 174.8C138.082 174.997 138.508 175.099 138.939 175.099C139.371 175.099 139.796 174.997 140.18 174.8C140.872 174.404 140.882 173.744 140.18 173.369C139.796 173.173 139.371 173.07 138.939 173.07C138.508 173.07 138.082 173.173 137.698 173.369C137.028 173.771 137.017 174.409 137.698 174.8Z" fill="#263238"/>
<path d="M204.785 189.452C204.789 189.61 204.839 189.764 204.928 189.895C205.017 190.026 205.141 190.129 205.287 190.191C205.672 190.385 206.097 190.487 206.528 190.487C206.959 190.487 207.384 190.385 207.768 190.191C207.914 190.129 208.04 190.028 208.133 189.9C208.226 189.772 208.282 189.621 208.296 189.463L208.344 135.258L204.833 135.306L204.785 189.452Z" fill="#455A64"/>
<path d="M206.717 190.471C207.086 190.454 207.447 190.355 207.773 190.181C207.918 190.118 208.044 190.018 208.137 189.889C208.23 189.761 208.287 189.61 208.301 189.452L208.348 135.248H206.764L206.717 190.471Z" fill="#37474F"/>
<path d="M205.335 136.003C205.719 136.198 206.145 136.3 206.576 136.3C207.007 136.3 207.432 136.198 207.817 136.003C208.508 135.607 208.519 134.947 207.817 134.572C207.432 134.378 207.007 134.277 206.576 134.277C206.145 134.277 205.72 134.378 205.335 134.572C204.664 134.968 204.654 135.607 205.335 136.003Z" fill="#263238"/>
<path d="M57.2832 189.452C57.2897 189.613 57.3431 189.769 57.4369 189.901C57.5307 190.032 57.6608 190.133 57.8112 190.191C58.196 190.385 58.621 190.487 59.052 190.487C59.483 190.487 59.908 190.385 60.2928 190.191C60.4372 190.127 60.562 190.026 60.6547 189.898C60.7474 189.77 60.8047 189.62 60.8208 189.463L60.8683 135.258L57.3571 135.306L57.2832 189.452Z" fill="#455A64"/>
<path d="M59.2109 190.471C59.58 190.453 59.9406 190.354 60.2669 190.181C60.4113 190.116 60.5361 190.015 60.6288 189.887C60.7215 189.759 60.7788 189.609 60.7949 189.452L60.8425 135.248H59.2585L59.2109 190.471Z" fill="#37474F"/>
<path d="M57.8318 136.003C58.2163 136.198 58.6414 136.3 59.0726 136.3C59.5038 136.3 59.9289 136.198 60.3134 136.003C61.0051 135.607 61.0103 134.947 60.3134 134.572C59.9276 134.378 59.5018 134.277 59.0699 134.277C58.6381 134.277 58.2123 134.378 57.8265 134.572C57.1559 134.968 57.1507 135.607 57.8318 136.003Z" fill="#263238"/>
<path d="M41.6016 135.723V135.195C41.6261 134.726 41.7614 134.269 41.9963 133.863C42.2313 133.456 42.5592 133.111 42.9532 132.856L130.343 82.3685C130.762 82.1576 131.225 82.0479 131.694 82.0479C132.164 82.0479 132.626 82.1576 133.046 82.3685L218.376 131.515C218.77 131.77 219.098 132.115 219.333 132.522C219.568 132.928 219.703 133.385 219.728 133.854V134.382C219.703 134.851 219.568 135.307 219.333 135.714C219.098 136.12 218.77 136.465 218.376 136.721L130.981 187.208C130.563 187.419 130.101 187.529 129.632 187.529C129.164 187.529 128.702 187.419 128.283 187.208L42.9532 138.062C42.5595 137.806 42.2318 137.461 41.9969 137.054C41.762 136.648 41.6265 136.192 41.6016 135.723Z" fill="#E7440B"/>
<g opacity="0.65">
<path d="M41.6016 135.723V135.195C41.6261 134.726 41.7614 134.269 41.9963 133.863C42.2313 133.456 42.5592 133.111 42.9532 132.856L130.343 82.3685C130.762 82.1576 131.225 82.0479 131.694 82.0479C132.164 82.0479 132.626 82.1576 133.046 82.3685L218.376 131.515C218.77 131.77 219.098 132.115 219.333 132.522C219.568 132.928 219.703 133.385 219.728 133.854V134.382C219.703 134.851 219.568 135.307 219.333 135.714C219.098 136.12 218.77 136.465 218.376 136.721L130.981 187.208C130.563 187.419 130.101 187.529 129.632 187.529C129.164 187.529 128.702 187.419 128.283 187.208L42.9532 138.062C42.5595 137.806 42.2318 137.461 41.9969 137.054C41.762 136.648 41.6265 136.192 41.6016 135.723Z" fill="white"/>
</g>
<path d="M129.635 183.871V187.53C129.165 187.535 128.701 187.424 128.283 187.208L42.9532 138.067C42.5601 137.811 42.2328 137.465 41.998 137.059C41.7632 136.653 41.6274 136.197 41.6016 135.728V135.2C41.624 134.782 41.7337 134.373 41.9238 134.001C42.1139 133.628 42.38 133.299 42.7051 133.035C42.214 133.452 42.2985 134.033 42.9532 134.419L128.304 183.549C128.713 183.77 129.171 183.881 129.635 183.871Z" fill="#E7440B"/>
<g opacity="0.5">
<path d="M129.635 183.871V187.53C129.165 187.535 128.701 187.424 128.283 187.208L42.9532 138.067C42.5601 137.811 42.2328 137.465 41.998 137.059C41.7632 136.653 41.6274 136.197 41.6016 135.728V135.2C41.624 134.782 41.7337 134.373 41.9238 134.001C42.1139 133.628 42.38 133.299 42.7051 133.035C42.214 133.452 42.2985 134.033 42.9532 134.419L128.304 183.549C128.713 183.77 129.171 183.881 129.635 183.871Z" fill="white"/>
</g>
<path d="M42.9529 134.403L128.304 183.549C128.723 183.76 129.185 183.87 129.653 183.87C130.122 183.87 130.584 183.76 131.002 183.549L218.376 133.056C219.125 132.629 219.125 131.927 218.376 131.499L133.056 82.3685C132.637 82.1576 132.174 82.0479 131.704 82.0479C131.235 82.0479 130.772 82.1576 130.353 82.3685L42.9529 132.845C42.2032 133.273 42.2032 133.975 42.9529 134.403Z" fill="#E7440B"/>
<g opacity="0.8">
<path d="M42.9529 134.403L128.304 183.549C128.723 183.76 129.185 183.87 129.653 183.87C130.122 183.87 130.584 183.76 131.002 183.549L218.376 133.056C219.125 132.629 219.125 131.927 218.376 131.499L133.056 82.3685C132.637 82.1576 132.174 82.0479 131.704 82.0479C131.235 82.0479 130.772 82.1576 130.353 82.3685L42.9529 132.845C42.2032 133.273 42.2032 133.975 42.9529 134.403Z" fill="white"/>
</g>
<path opacity="0.1" d="M111.731 134.319L99.3286 127.159L98.5313 125.918V124.746L95.7751 123.584L95.5059 122.423L97.3275 122.122L98.5102 122.206L98.3254 121.203L99.9569 120.601L122.92 125.918L124.641 126.916C124.684 126.94 124.719 126.976 124.744 127.018C124.769 127.061 124.782 127.11 124.782 127.159C124.782 127.208 124.769 127.257 124.744 127.299C124.719 127.342 124.684 127.377 124.641 127.402L112.661 134.319C112.519 134.399 112.359 134.441 112.196 134.441C112.033 134.441 111.873 134.399 111.731 134.319Z" fill="black"/>
<path d="M114.103 119.936L107.149 113.975L105.966 114.893L107.149 116.477L105.137 115.163L104.081 116.039L103.115 116.567L101.652 115.717L100.596 116.467L100.749 117.143L102.65 118.199C102.336 118.391 102.003 118.552 101.658 118.679C101.139 118.388 100.645 118.056 100.179 117.686L99.5456 119.022L100.422 121.588L99.1548 121.852L99.3555 123.225L101.219 124.603L98.875 125.263L99.3555 126.467C99.3555 126.467 105.876 128.764 105.971 128.764C106.167 128.759 114.103 119.936 114.103 119.936Z" fill="#B16668"/>
<path d="M96.2441 122.744L104.455 127.908L105.336 126.757L97.184 121.287L96.1016 121.583L96.2441 122.744Z" fill="#FFBDA7"/>
<path d="M96.1016 121.583L105.03 127.159L104.455 127.908L96.2441 122.745L96.1016 121.583Z" fill="#F0997A"/>
<path d="M97.5446 119.724L104.387 125.585L105.475 124.936L97.3281 117.781L97.5446 119.724Z" fill="#F0997A"/>
<path d="M97.3281 117.781L98.7273 117.438L106.162 124.218L105.475 124.936L97.3281 117.781Z" fill="#FFBDA7"/>
<path d="M100.961 118.753L108.944 123.22V122.206L100.961 117.565V118.753Z" fill="#F0997A"/>
<path d="M100.961 117.565L102.27 117.126L109.578 121.583L108.944 122.206L100.961 117.565Z" fill="#FFBDA7"/>
<path d="M111.996 122.702L102.096 116.303V115.136L112.196 122.206L111.996 122.702Z" fill="#F0997A"/>
<path d="M102.096 115.136L103.432 114.771L112.788 121.683L112.196 122.206L102.096 115.136Z" fill="#FFBDA7"/>
<path d="M116.156 120.389L107.148 114.771L107.444 116.012L115.575 121.287L116.156 120.389Z" fill="#F0997A"/>
<path d="M107.148 114.771H108.944L116.325 119.809L116.156 120.389L107.148 114.771Z" fill="#FFBDA7"/>
<path d="M96.2441 111.757L96.6243 112.617C96.6243 112.617 98.4353 114.001 100.426 113.763C102.416 113.526 104.608 111.757 104.608 111.757H96.2441Z" fill="#F0997A"/>
<path d="M96.2441 111.757C97.2694 112.32 98.404 112.655 99.5705 112.739C101.624 112.924 104.608 111.757 104.608 111.757H96.2441Z" fill="#FFBDA7"/>
<path d="M103.094 123.864L112.196 130.87L122.92 124.682L113.817 117.67C112.675 116.876 111.338 116.407 109.949 116.314C108.56 116.221 107.173 116.507 105.934 117.142L103.442 118.578C101.172 119.904 101.013 122.264 103.094 123.864Z" fill="#E7440B"/>
<path d="M110.961 125.543C109.871 125.571 108.802 125.249 107.909 124.624C107.584 124.403 107.321 124.104 107.143 123.754C106.965 123.404 106.878 123.015 106.89 122.623C106.943 122.174 107.108 121.746 107.369 121.378C107.63 121.009 107.979 120.711 108.384 120.511C110.105 119.518 112.693 119.629 114.155 120.754C114.48 120.975 114.744 121.274 114.923 121.623C115.102 121.973 115.19 122.362 115.179 122.755C115.125 123.204 114.959 123.632 114.697 124.001C114.435 124.37 114.086 124.668 113.68 124.867C112.847 125.323 111.91 125.556 110.961 125.543ZM111.114 120.379C110.253 120.368 109.404 120.579 108.648 120.992C108.323 121.148 108.04 121.381 107.825 121.67C107.609 121.96 107.468 122.298 107.413 122.655C107.408 122.961 107.481 123.263 107.624 123.533C107.767 123.803 107.976 124.033 108.231 124.202C109.54 125.21 111.864 125.305 113.416 124.408C113.742 124.253 114.026 124.02 114.241 123.73C114.456 123.44 114.597 123.102 114.651 122.745C114.655 122.44 114.582 122.139 114.439 121.869C114.296 121.6 114.088 121.371 113.833 121.203C113.038 120.645 112.085 120.358 111.114 120.384V120.379Z" fill="#FAFAFA"/>
<path d="M112.196 130.87V133.347L103.094 128.093V123.864L112.196 130.87Z" fill="#E7440B"/>
<path opacity="0.15" d="M112.196 130.87V133.347L103.094 128.093V123.864L112.196 130.87Z" fill="black"/>
<path d="M122.919 124.682V127.158L112.195 133.347V130.87L122.919 124.682Z" fill="#E7440B"/>
<path opacity="0.3" d="M122.919 124.682V127.158L112.195 133.347V130.87L122.919 124.682Z" fill="black"/>
<path opacity="0.1" d="M153.707 134.318L166.109 127.158L166.907 125.918V124.745L169.663 123.584L169.927 122.422L168.111 122.121L166.923 122.206L167.107 121.203L165.481 120.601L142.518 125.918L140.797 126.915C140.754 126.94 140.719 126.975 140.694 127.018C140.669 127.061 140.656 127.109 140.656 127.158C140.656 127.208 140.669 127.256 140.694 127.299C140.719 127.341 140.754 127.377 140.797 127.401L152.777 134.318C152.919 134.399 153.079 134.441 153.242 134.441C153.405 134.441 153.565 134.399 153.707 134.318Z" fill="black"/>
<path d="M151.373 119.935L158.327 113.974L159.51 114.893L158.327 116.477L160.338 115.162L161.394 116.039L162.361 116.567L163.823 115.717L164.879 116.466L164.726 117.142L162.82 118.198C163.134 118.39 163.467 118.551 163.813 118.679C164.331 118.387 164.825 118.056 165.291 117.686L165.93 119.022L165.048 121.588L166.315 121.852L166.115 123.225L164.283 124.608L166.627 125.268L166.146 126.472C166.146 126.472 159.626 128.769 159.531 128.769C159.309 128.758 151.373 119.935 151.373 119.935Z" fill="#B16668"/>
<path d="M167.853 119.729L159.642 124.893L158.766 123.737L166.918 118.272L167.995 118.562L167.853 119.729Z" fill="#FFBDA7"/>
<path d="M167.995 118.562L159.066 124.138L159.642 124.893L167.852 119.729L167.995 118.562Z" fill="#F0997A"/>
<path d="M157.899 111.065L147.477 110.912L148.152 110.188L157.757 109.338L158.57 110.104L157.899 111.065Z" fill="#FFBDA7"/>
<path d="M158.57 110.104L147.477 110.912L148.221 111.757L157.899 111.065L158.57 110.104Z" fill="#F0997A"/>
<path d="M168.216 124.286L159.668 127.132L158.902 126.118L169.151 122.565L168.216 124.286Z" fill="#F0997A"/>
<path d="M169.15 122.565L167.983 121.72L158.537 125.2L158.901 126.118L169.15 122.565Z" fill="#FFBDA7"/>
<path d="M164.831 118.969L156.848 123.436V122.422L164.831 117.781V118.969Z" fill="#F0997A"/>
<path d="M164.832 117.781L163.528 117.343L156.215 121.799L156.848 122.422L164.832 117.781Z" fill="#FFBDA7"/>
<path d="M159.922 116.361L152.83 122.142L152.656 121.139L159.716 115.188L159.922 116.361Z" fill="#F0997A"/>
<path d="M159.715 115.188L158.353 114.988L151.922 120.637L152.656 121.139L159.715 115.188Z" fill="#FFBDA7"/>
<path d="M149.234 123.24L157.106 114.47L156.805 113.346L148.906 122.807L149.234 123.24Z" fill="#F0997A"/>
<path d="M156.806 113.346H155.423L148.205 122.464L148.907 122.807L156.806 113.346Z" fill="#FFBDA7"/>
<path d="M155.988 120.141L164.996 114.523L164.7 115.764L156.569 121.039L155.988 120.141Z" fill="#F0997A"/>
<path d="M164.995 114.523H163.2L155.818 119.561L155.987 120.141L164.995 114.523Z" fill="#FFBDA7"/>
<path d="M162.382 123.864L153.279 130.87L142.561 124.682L151.663 117.67C152.806 116.876 154.143 116.407 155.532 116.314C156.92 116.221 158.308 116.507 159.546 117.142L162.038 118.578C164.304 119.904 164.462 122.264 162.382 123.864Z" fill="#E7440B"/>
<path d="M151.795 124.867C151.389 124.668 151.04 124.37 150.778 124.001C150.516 123.632 150.35 123.204 150.296 122.755C150.286 122.363 150.374 121.974 150.553 121.624C150.732 121.274 150.996 120.975 151.32 120.754C152.783 119.629 155.37 119.518 157.091 120.511C157.496 120.711 157.846 121.009 158.107 121.378C158.369 121.747 158.535 122.174 158.591 122.623C158.601 123.016 158.512 123.405 158.333 123.754C158.154 124.104 157.891 124.403 157.566 124.624C156.673 125.249 155.604 125.571 154.514 125.543C153.565 125.556 152.628 125.323 151.795 124.867ZM151.642 121.203C151.388 121.371 151.179 121.6 151.036 121.869C150.893 122.139 150.82 122.44 150.824 122.745C150.878 123.102 151.019 123.44 151.234 123.73C151.45 124.02 151.733 124.253 152.059 124.408C153.612 125.305 155.935 125.21 157.244 124.202C157.5 124.033 157.708 123.803 157.851 123.533C157.994 123.263 158.067 122.961 158.063 122.655C158.007 122.298 157.866 121.96 157.65 121.67C157.435 121.381 157.153 121.148 156.827 120.992C156.073 120.58 155.226 120.369 154.367 120.379C153.393 120.353 152.438 120.642 151.642 121.203Z" fill="#FAFAFA"/>
<path d="M153.279 130.87V133.347L162.382 128.093V123.864L153.279 130.87Z" fill="#E7440B"/>
<path opacity="0.15" d="M153.279 130.87V133.347L162.382 128.093V123.864L153.279 130.87Z" fill="black"/>
<path d="M142.555 124.682V127.158L153.278 133.347V130.87L142.555 124.682Z" fill="#E7440B"/>
<path opacity="0.3" d="M142.555 124.682V127.158L153.278 133.347V130.87L142.555 124.682Z" fill="black"/>
<path opacity="0.1" d="M119.889 97.4903C117.249 96.3287 112.982 96.3287 110.411 97.4903C107.84 98.6519 107.84 100.532 110.411 101.714C112.982 102.897 117.227 102.876 119.889 101.714C122.55 100.553 122.55 98.6519 119.889 97.4903Z" fill="black"/>
<path d="M121.653 83.7412H108.717L109.694 98.9846C109.752 99.539 110.274 100.088 111.278 100.51C113.786 101.413 116.531 101.413 119.039 100.51C120.058 100.088 120.623 99.539 120.66 98.9846L121.653 83.7412Z" fill="#FAFAFA"/>
<path d="M117.66 96.1492C117.334 96.1534 117.015 96.0515 116.752 95.8588C116.197 95.4522 115.896 94.6233 115.896 93.5356C115.896 92.0783 116.952 90.1986 118.426 89.8396C118.673 89.7593 118.936 89.7385 119.193 89.7788C119.449 89.8192 119.693 89.9196 119.904 90.0719C120.395 90.4574 120.654 91.2018 120.654 92.2209C120.654 93.2399 120.173 95.4839 118.352 96.0436C118.127 96.1122 117.894 96.1478 117.66 96.1492ZM118.975 90.2884C118.83 90.2909 118.687 90.3104 118.547 90.3465C117.333 90.6474 116.435 92.279 116.435 93.5145C116.435 94.4174 116.667 95.0985 117.074 95.41C117.24 95.517 117.43 95.582 117.627 95.5995C117.823 95.617 118.021 95.5864 118.204 95.5103C119.735 95.0404 120.136 93.1396 120.136 92.1945C120.136 91.3391 119.946 90.7425 119.608 90.4574C119.424 90.3281 119.199 90.2682 118.975 90.2884Z" fill="#E7440B"/>
<path d="M109.694 99.0001C109.752 99.5545 110.274 100.104 111.278 100.526C113.786 101.429 116.531 101.429 119.039 100.526C119.667 100.327 120.203 99.9089 120.549 99.3486C119.244 100.181 117.697 100.553 116.156 100.405C113.648 100.125 112.101 99.6759 111.652 97.6959C111.267 96.0063 110.354 86.6079 110.111 83.7778H108.717L109.694 99.0001Z" fill="#F0F0F0"/>
<path d="M108.717 83.7571L108.912 86.8511C109.244 87.0795 109.598 87.274 109.968 87.4319C112.767 88.5882 117.36 88.5882 120.275 87.4319C120.401 87.3791 120.502 87.3263 120.618 87.2735C120.899 87.1406 121.171 86.9889 121.431 86.8194L121.626 83.7412L108.717 83.7571Z" fill="#E0E0E0"/>
<path d="M121.885 84.2585V82.1148H120.496C120.312 82.0198 120.111 81.9247 119.889 81.835C117.249 80.779 112.983 80.779 110.412 81.835C110.2 81.9247 110.01 82.0198 109.831 82.1148H108.484V84.2585C108.484 84.9554 109.129 85.6524 110.412 86.1857C112.983 87.2417 117.228 87.2417 119.889 86.1857C121.22 85.6524 121.885 84.9554 121.885 84.2585Z" fill="#37474F"/>
<path d="M119.889 80.1875C117.249 79.1315 112.982 79.1315 110.411 80.1875C107.84 81.2435 107.84 82.9806 110.411 84.0419C112.982 85.1032 117.227 85.0979 119.889 84.0419C122.55 82.9859 122.55 81.2488 119.889 80.1875Z" fill="#455A64"/>
<path d="M120.168 81.5129L119.64 80.082H110.728L110.2 81.5129C109.999 82.0673 110.464 82.6534 111.599 83.0969C113.919 83.8255 116.407 83.8255 118.727 83.0969C119.899 82.6534 120.385 82.0673 120.168 81.5129Z" fill="#37474F"/>
<path d="M118.33 79.0841C116.268 78.4355 114.056 78.4355 111.994 79.0841C110.273 79.7335 110.273 80.7789 111.994 81.4284C114.057 82.0725 116.267 82.0725 118.33 81.4284C120.109 80.7842 120.109 79.7282 118.33 79.0841Z" fill="#455A64"/>
<path d="M119.048 80.2562C119.004 80.348 118.934 80.425 118.848 80.478C118.624 80.6361 118.379 80.7606 118.119 80.8476C117.158 81.1601 116.152 81.3117 115.141 81.2964C114.144 81.3162 113.152 81.1662 112.205 80.8529C111.952 80.7672 111.715 80.6406 111.503 80.478C111.355 80.3618 111.318 80.2774 111.318 80.2562C111.318 80.2351 111.471 79.9394 112.205 79.6596C113.152 79.3463 114.144 79.1963 115.141 79.2161C116.152 79.1981 117.158 79.3498 118.119 79.6649C118.858 79.9289 119.043 80.2034 119.048 80.2562Z" fill="#37474F"/>
<path d="M118.848 80.4781C118.625 80.6362 118.379 80.7607 118.12 80.8477C117.159 81.1601 116.152 81.3118 115.142 81.2965C114.145 81.3162 113.152 81.1663 112.206 80.8529C111.953 80.7673 111.716 80.6406 111.504 80.4781C111.716 80.3177 111.954 80.1929 112.206 80.1085C113.152 79.7933 114.145 79.6415 115.142 79.6597C116.152 79.6443 117.159 79.796 118.12 80.1085C118.379 80.1954 118.625 80.3199 118.848 80.4781Z" fill="#263238"/>
<path d="M117.07 80.5203C117.171 80.4508 117.286 80.4032 117.407 80.3805C117.528 80.3578 117.652 80.3604 117.772 80.3883C117.904 80.457 117.772 80.6365 117.54 80.7896C117.437 80.859 117.321 80.9065 117.199 80.9292C117.078 80.9519 116.953 80.9493 116.832 80.9216C116.689 80.8477 116.811 80.6682 117.07 80.5203Z" fill="black"/>
</svg>
